<?xml version="1.0" encoding="UTF-8"?>
<svg id="_图层_1" data-name="图层 1" xmlns="http://www.w3.org/2000/svg" version="1.1" viewBox="0 0 28.81 28.81">
  <defs>
    <style>
      .cls-1 {
        fill: #151a5d;
      }

      .cls-1, .cls-2, .cls-3 {
        stroke-width: 0px;
      }

      .cls-2 {
        fill: #6dc099;
      }

      .cls-3 {
        fill: #fff;
      }
    </style>
  </defs>
  <path class="cls-2" d="M26.94,4.45c.39-1.15.67-1.98.67-2.4l-15.18,15.17c.06.11.12.23.21.39h0s3.65,7.31,3.65,7.31c.72,1.43,1.23,2.45,1.58,2.6.31.13.66.11.95-.06.33-.2.7-1.28,1.21-2.79l6.91-20.23h0Z"/>
  <path class="cls-3" d="M11.19,16.17c.16.08.29.14.39.2L26.76,1.2h0c-.43,0-1.25.28-2.4.67L4.13,8.78c-1.5.51-2.59.89-2.79,1.22-.17.29-.19.64-.06.94.15.35,1.18.87,2.6,1.58l7.31,3.66h0Z"/>
  <path class="cls-1" d="M28.72,1.46c-.23-.64-.73-1.14-1.37-1.37-.74-.26-1.62.04-3.38.64L3.75,7.64c-2.07.71-3.02,1.03-3.44,1.74-.36.61-.41,1.37-.13,2.03.32.76,1.21,1.2,3.17,2.18l7.31,3.66c.25.13.38.19.46.25l.19.19c.06.08.13.21.25.46l3.66,7.31c.98,1.95,1.42,2.85,2.18,3.17.28.12.58.18.88.18.4,0,.8-.11,1.15-.32.71-.42,1.03-1.37,1.74-3.43l6.9-20.23c.6-1.76.91-2.64.65-3.38h0ZM18.82,27.47c-.29.17-.64.19-.95.06-.35-.15-.86-1.18-1.58-2.6l-3.65-7.31h0c-.09-.17-.15-.29-.21-.4L27.61,2.05c0,.43-.28,1.25-.67,2.4l-6.91,20.23c-.51,1.51-.88,2.59-1.21,2.79h0ZM1.28,10.94c-.13-.31-.11-.66.06-.94.2-.33,1.29-.7,2.79-1.22L24.36,1.87c1.15-.39,1.97-.67,2.4-.67h0l-15.18,15.18c-.1-.06-.23-.12-.39-.2l-7.31-3.66c-1.42-.71-2.45-1.23-2.6-1.58h0Z"/>
</svg>