<?xml version="1.0" encoding="UTF-8"?>
<svg id="_图层_1" data-name="图层 1" xmlns="http://www.w3.org/2000/svg" xmlns:xlink="http://www.w3.org/1999/xlink" version="1.1" viewBox="0 0 80 80">
  <defs>
    <style>
      .cls-1 {
        clip-path: url(#clippath);
      }

      .cls-2 {
        fill: none;
      }

      .cls-2, .cls-3, .cls-4, .cls-5, .cls-6 {
        stroke-width: 0px;
      }

      .cls-3 {
        fill: #67bf99;
      }

      .cls-7 {
        clip-path: url(#clippath-1);
      }

      .cls-4 {
        fill: #3e3a7d;
      }

      .cls-5 {
        fill: #1c2759;
      }

      .cls-6 {
        fill: #fff;
      }
    </style>
    <clipPath id="clippath">
      <rect class="cls-2" width="80" height="80"/>
    </clipPath>
    <clipPath id="clippath-1">
      <circle class="cls-2" cx="40" cy="40" r="40"/>
    </clipPath>
  </defs>
  <g class="cls-1">
    <path class="cls-4" d="M40,80c22.09,0,40-17.91,40-40S62.09,0,40,0,0,17.91,0,40s17.91,40,40,40"/>
  </g>
  <g class="cls-7">
    <path class="cls-6" d="M54.55,48.28c-.87,0-1.58-.71-1.58-1.58s.71-1.58,1.58-1.58,1.58.71,1.58,1.58-.71,1.58-1.58,1.58M48.64,48.28c-.87,0-1.58-.71-1.58-1.58s.71-1.58,1.58-1.58,1.58.71,1.58,1.58-.71,1.58-1.58,1.58M42.73,48.28c-.87,0-1.58-.71-1.58-1.58s.71-1.58,1.58-1.58,1.58.71,1.58,1.58-.71,1.58-1.58,1.58M59.31,34.66h-8.47v1.14c0,3.76-3.05,6.81-6.81,6.81h-11.08v10.52c0,2.76,2.25,5.01,5.01,5.01h12.53c.19,0,.38.06.54.18l7.3,5.48.07-4.77c0-.49.41-.89.9-.89,2.76,0,5.01-2.25,5.01-5.01v-13.46c0-2.76-2.25-5.01-5.01-5.01"/>
    <path class="cls-5" d="M23.66,46.46l-.07-4.77c0-.49-.41-.89-.9-.89-2.76,0-5.01-2.25-5.01-5.01v-13.46c0-2.76,2.25-5.01,5.01-5.01h21.35c2.76,0,5.01,2.25,5.01,5.01v13.46c0,2.76-2.25,5.01-5.01,5.01h-12.53c-.19,0-.38.06-.54.18l-7.3,5.48ZM64.32,53.13c0,2.76-2.25,5.01-5.01,5.01-.49,0-.89.39-.9.89l-.07,4.77-7.3-5.48c-.16-.12-.35-.18-.54-.18h-12.53c-2.76,0-5.01-2.25-5.01-5.01v-10.52h11.08c3.76,0,6.81-3.06,6.81-6.81v-1.14h8.47c2.76,0,5.01,2.25,5.01,5.01v13.46ZM59.31,32.86h-8.47v-10.52c0-3.76-3.05-6.81-6.81-6.81h-21.35c-3.76,0-6.81,3.06-6.81,6.81v13.46c0,3.45,2.58,6.32,5.92,6.75l.09,5.71c0,.34.2.65.5.79.13.06.26.09.4.09.19,0,.38-.06.54-.18l7.82-5.87v10.03c0,3.76,3.06,6.81,6.81,6.81h12.23l8.48,6.36c.16.12.35.18.54.18.14,0,.27-.03.4-.09.3-.15.5-.46.5-.79l.09-5.71c3.34-.44,5.92-3.3,5.92-6.75v-13.46c0-3.76-3.05-6.81-6.81-6.81"/>
    <path class="cls-5" d="M48.64,45.12c-.87,0-1.58.71-1.58,1.58s.71,1.58,1.58,1.58,1.58-.71,1.58-1.58-.71-1.58-1.58-1.58"/>
    <path class="cls-5" d="M54.55,45.12c-.87,0-1.58.71-1.58,1.58s.71,1.58,1.58,1.58,1.58-.71,1.58-1.58-.71-1.58-1.58-1.58"/>
    <path class="cls-5" d="M42.73,45.12c-.87,0-1.58.71-1.58,1.58s.71,1.58,1.58,1.58,1.58-.71,1.58-1.58-.71-1.58-1.58-1.58"/>
    <path class="cls-3" d="M33.36,27.79c.87,0,1.58.71,1.58,1.58s-.71,1.58-1.58,1.58-1.58-.71-1.58-1.58.71-1.58,1.58-1.58M39.27,27.79c.87,0,1.58.71,1.58,1.58s-.71,1.58-1.58,1.58-1.58-.71-1.58-1.58.71-1.58,1.58-1.58M27.45,30.95c-.87,0-1.58-.71-1.58-1.58s.71-1.58,1.58-1.58,1.58.71,1.58,1.58-.71,1.58-1.58,1.58M31.51,40.8h12.53c2.76,0,5.01-2.25,5.01-5.01v-13.46c0-2.76-2.25-5.01-5.01-5.01h-21.35c-2.76,0-5.01,2.25-5.01,5.01v13.46c0,2.76,2.25,5.01,5.01,5.01.49,0,.89.4.9.89l.07,4.77,7.3-5.48c.16-.12.35-.18.54-.18"/>
    <path class="cls-5" d="M33.36,30.95c.87,0,1.58-.71,1.58-1.58s-.71-1.58-1.58-1.58-1.58.71-1.58,1.58.71,1.58,1.58,1.58"/>
    <path class="cls-5" d="M27.45,27.79c-.87,0-1.58.71-1.58,1.58s.71,1.58,1.58,1.58,1.58-.71,1.58-1.58-.71-1.58-1.58-1.58"/>
    <path class="cls-5" d="M39.27,30.95c.87,0,1.58-.71,1.58-1.58s-.71-1.58-1.58-1.58-1.58.71-1.58,1.58.71,1.58,1.58,1.58"/>
  </g>
</svg>