<?xml version="1.0" encoding="UTF-8"?>
<svg id="_图层_1" data-name="图层 1" xmlns="http://www.w3.org/2000/svg" version="1.1" viewBox="0 0 26.93 28.44">
  <defs>
    <style>
      .cls-1 {
        fill: #151a5d;
      }

      .cls-1, .cls-2 {
        stroke-width: 0px;
      }

      .cls-2 {
        fill: #d8d5e5;
      }
    </style>
  </defs>
  <path class="cls-1" d="M26.33,4.54h-4.69c-1.01-.03-1.88-.66-2.22-1.6l-.05-.14-.15-.44c-.13-.4-.2-.61-.31-.81-.42-.8-1.2-1.37-2.09-1.51-.23-.04-.44-.04-.87-.04h-4.98c-.43,0-.64,0-.87.04-.89.14-1.68.71-2.09,1.51-.1.2-.17.41-.31.81l-.15.44-.05.14c-.34.95-1.21,1.58-2.22,1.6h-.15s-4.54,0-4.54,0c-.33,0-.6.27-.6.6s.27.6.6.6h1.95l-.03.22.7,13.44h0c.28,4.18.42,6.27,1.9,7.66,1.48,1.39,3.58,1.39,7.76,1.39h1.17c4.18,0,6.28,0,7.76-1.39,1.48-1.39,1.62-3.48,1.9-7.65h0s.7-13.45.7-13.45l-.03-.22h1.95c.33,0,.6-.27.6-.6s-.27-.6-.6-.6h0ZM8.64,3.35l.06-.17.15-.44c.11-.34.17-.52.23-.63.24-.47.7-.79,1.22-.88.13-.02.31-.02.68-.02h4.98c.36,0,.55,0,.68.02.52.08.98.41,1.22.88.06.12.12.29.23.64l.15.44.06.17c.16.44.4.85.72,1.19H7.92c.31-.35.55-.75.72-1.19h0ZM23.21,5.9v.03s-.7,13.4-.7,13.4c-.26,3.85-.39,5.79-1.52,6.85-1.14,1.06-3.08,1.06-6.94,1.06h-1.17c-3.86,0-5.8,0-6.94-1.06-1.14-1.06-1.27-3-1.52-6.85l-.7-13.4v-.03s-.03-.16-.03-.16h19.55l-.03.16h0Z"/>
  <path class="cls-2" d="M4.42,19.33c.26,3.85.39,5.79,1.52,6.85,1.14,1.06,3.08,1.06,6.94,1.06h1.17c3.87,0,5.8,0,6.94-1.06,1.14-1.06,1.26-3,1.52-6.85l.69-13.4H3.72l.7,13.4h0ZM15.89,20.22l.76-7.57c.03-.33.33-.57.66-.54.33.03.57.33.54.66l-.76,7.57c-.03.31-.29.54-.6.54h-.06c-.33-.04-.57-.33-.54-.66h0ZM9.62,12.11c.33-.03.62.21.66.54l.76,7.57c.03.33-.21.62-.54.66h-.06c-.3,0-.56-.23-.6-.54l-.76-7.57c-.03-.33.21-.62.54-.66h0Z"/>
  <path class="cls-1" d="M9.84,20.34c.03.31.29.54.6.54h.06c.33-.04.57-.33.54-.66l-.76-7.57c-.03-.33-.33-.57-.66-.54-.33.03-.57.33-.54.66l.76,7.57h0Z"/>
  <path class="cls-1" d="M16.43,20.87h.06c.3,0,.56-.23.6-.54l.76-7.57c.03-.33-.21-.62-.54-.66-.33-.03-.62.21-.66.54l-.76,7.57c-.03.33.21.62.54.66h0Z"/>
</svg>