<?xml version="1.0" encoding="UTF-8"?>
<svg id="_图层_1" data-name="图层 1" xmlns="http://www.w3.org/2000/svg" version="1.1" viewBox="0 0 30 22.27">
  <defs>
    <style>
      .cls-1 {
        fill: #151a5d;
      }

      .cls-1, .cls-2, .cls-3 {
        stroke-width: 0px;
      }

      .cls-2 {
        fill: #6dc099;
      }

      .cls-3 {
        fill: #fff;
      }
    </style>
  </defs>
  <path class="cls-2" d="M25.04,7.01v-3.4h-13.25c-.83,0-1.51-.68-1.51-1.51s-.68-1.51-1.51-1.51H.6v21.07L4.96,7.01h20.09Z"/>
  <polygon class="cls-3" points="4.96 7.01 .6 21.67 25.04 21.67 29.4 7.01 4.96 7.01 4.96 7.01"/>
  <path class="cls-1" d="M25.04,22.27c.26,0,.5-.17.57-.43l4.36-14.65c.05-.18.02-.38-.09-.53s-.29-.24-.48-.24h-3.76v-2.8c0-.33-.27-.6-.6-.6h-13.25c-.5,0-.91-.41-.91-.91,0-1.16-.95-2.11-2.11-2.11H.6c-.33,0-.6.27-.6.6v21.07c0,.3.22.55.51.59h24.53ZM1.2,1.2h7.58c.5,0,.91.41.91.91,0,1.16.95,2.11,2.11,2.11h12.65v2.2H4.96c-.26,0-.5.17-.57.43l-3.19,10.72V1.2h0ZM28.6,7.61l-4,13.46H1.4L5.4,7.61h23.2Z"/>
</svg>