<?xml version="1.0" encoding="UTF-8"?>
<svg id="_图层_1" data-name="图层 1" xmlns="http://www.w3.org/2000/svg" version="1.1" viewBox="0 0 55.94 39.94">
  <defs>
    <style>
      .cls-1 {
        fill: #fff;
        stroke-width: 0px;
      }
    </style>
  </defs>
  <rect class="cls-1" x="23.97" y="23.96" width="7.99" height="7.99"/>
  <rect class="cls-1" x="23.96" y="7.99" width="7.99" height="7.99"/>
  <polygon class="cls-1" points="39.96 7.99 39.96 15.97 39.96 23.96 39.96 31.95 47.42 31.95 55.94 31.95 55.94 23.96 47.95 23.96 47.95 15.97 47.95 7.99 39.96 7.99"/>
  <polygon class="cls-1" points="7.98 7.99 3.99 7.99 3.99 15.97 7.98 15.97 7.98 23.96 0 23.96 0 31.95 7.98 31.95 15.97 31.95 15.97 23.96 15.97 15.97 15.97 7.99 7.98 7.99"/>
  <rect class="cls-1" x="16.06" width="7.99" height="7.99"/>
  <rect class="cls-1" x="31.94" y="31.95" width="7.99" height="7.99"/>
</svg>