<?xml version="1.0" encoding="UTF-8"?>
<svg id="_图层_1" data-name="图层 1" xmlns="http://www.w3.org/2000/svg" xmlns:xlink="http://www.w3.org/1999/xlink" version="1.1" viewBox="0 0 74.9 44.94">
  <defs>
    <style>
      .cls-1 {
        clip-path: url(#clippath);
      }

      .cls-2 {
        fill: none;
      }

      .cls-2, .cls-3 {
        stroke-width: 0px;
      }

      .cls-3 {
        fill: #fff;
      }
    </style>
    <clipPath id="clippath">
      <rect class="cls-2" x="0" width="74.9" height="44.94"/>
    </clipPath>
  </defs>
  <g class="cls-1">
    <path class="cls-3" d="M67.54,9.61C60.34,4.23,48.82,0,37.45,0v1.25c12.06,0,21.85,9.5,21.85,21.22s-9.78,21.22-21.85,21.22v1.25c11.38,0,22.89-4.23,30.09-9.61,4.82-3.6,7.36-8.15,7.36-12.86s-2.54-9.26-7.36-12.86"/>
    <path class="cls-3" d="M37.45,43.69c-12.06,0-21.84-9.5-21.84-21.22S25.38,1.25,37.45,1.25V0C26.08,0,14.56,4.23,7.36,9.61,2.54,13.21,0,17.76,0,22.47s2.54,9.26,7.36,12.86c7.2,5.38,18.71,9.61,30.09,9.61v-1.25Z"/>
    <path class="cls-3" d="M40.21,22.55c-.99-.53-2.14-.84-2.14-1.49,0-.35.23-.71.84-.71.94,0,1.93.87,2.17,1.55h1.1v-2.45h-1.19v.79c-.64-.63-1.64-1-2.49-1-1.69,0-3.22.89-3.22,2.48,0,1.24.59,2.02,1.94,2.73,1.67.88,2.38,1.15,2.38,1.83,0,.45-.39.7-.82.7-.72,0-1.81-.56-2.16-1.65h-1.24v2.67h1.24v-.8c.66.59,1.78,1.01,2.56,1.01,2.36,0,3.21-1.53,3.21-2.69,0-1.77-1.16-2.42-2.18-2.97M50.44,21.97c0-2.08-1.54-2.73-2.66-2.73-1.31,0-2.38.53-2.86,1v-.79h-1.17v2.47h1.07c.17-.47.84-1.31,1.68-1.31.46,0,.84.31.84,1.13v.94c-.39-.28-.96-.49-1.6-.49-.98,0-2.58.9-2.58,3.17,0,1.59.78,2.84,2.34,2.84.75,0,1.45-.36,1.83-1v.8h3.96v-1.17h-.87v-4.85ZM47.35,25.48c0,.91-.38,1.14-.65,1.14-.44,0-.72-.34-.72-1.15,0-1.24.48-1.89.97-1.89.24,0,.39.16.39.48v1.43ZM26.47,26.71h-3.47v-4.81h1.76v1.17h1.5v-3.63h-1.5v1.17h-1.76v-4.17h3.27v1.71h1.5v-2.99h-9.74v1.28h1.14v10.25h-1.14v1.28h9.95v-3.2h-1.5v1.92ZM33.35,19.45h-4.35v1.17h1.04v6.2h-1.04v1.17h5.39v-1.17h-1.04v-7.37ZM31.69,18.7c1,0,1.82-.81,1.82-1.82s-.81-1.82-1.82-1.82-1.82.81-1.82,1.82.81,1.82,1.82,1.82M56.44,26.82v-7.37h-4.35v1.17h1.04v6.2h-1.04v1.17h5.39v-1.17h-1.04ZM54.78,18.7c1,0,1.82-.81,1.82-1.82s-.81-1.82-1.82-1.82-1.82.81-1.82,1.82.81,1.82,1.82,1.82"/>
  </g>
</svg>