<?xml version="1.0" encoding="UTF-8"?>
<svg id="_图层_1" data-name="图层 1" xmlns="http://www.w3.org/2000/svg" xmlns:xlink="http://www.w3.org/1999/xlink" version="1.1" viewBox="0 0 141.24 28.41">
  <defs>
    <style>
      .cls-1 {
        clip-path: url(#clippath);
      }

      .cls-2, .cls-3 {
        stroke-width: 0px;
      }

      .cls-2, .cls-4 {
        fill: none;
      }

      .cls-5 {
        clip-path: url(#clippath-1);
      }

      .cls-3 {
        fill: #fff;
      }

      .cls-4 {
        stroke: #fff;
        stroke-miterlimit: 3.86;
        stroke-width: .04px;
      }
    </style>
    <clipPath id="clippath">
      <rect class="cls-2" x="0" y="0" width="141.24" height="28.41"/>
    </clipPath>
    <clipPath id="clippath-1">
      <rect class="cls-2" x="0" y="0" width="141.24" height="28.41"/>
    </clipPath>
  </defs>
  <g class="cls-1">
    <path class="cls-3" d="M17.88,16.74l7.69.06-2.21,3.82,2.64,4.83,6.46-11.19-6.47-11.36-2.76,4.72,2.43,4.27h-7.79c1.34,0,2.42,1.09,2.42,2.43s-1.08,2.42-2.42,2.42M13.93,14.31c0-1.27,1.03-2.29,2.29-2.29s2.29,1.03,2.29,2.29-1.03,2.29-2.29,2.29-2.29-1.02-2.29-2.29M24.21.16H8.09L.02,14.12l8.11,14.1h16.06l-2.61-4.68h-10.69l-5.44-9.47,5.31-9.21h10.75L24.21.16Z"/>
    <path class="cls-3" d="M17.88,16.74l7.69.06-2.21,3.82,2.64,4.83,6.46-11.19-6.47-11.36-2.76,4.72,2.43,4.27h-7.79c1.34,0,2.42,1.09,2.42,2.43s-1.08,2.42-2.42,2.42M13.93,14.31c0-1.27,1.03-2.29,2.29-2.29s2.29,1.03,2.29,2.29-1.03,2.29-2.29,2.29-2.29-1.02-2.29-2.29M24.21.16H8.09L.02,14.12l8.11,14.1h16.06l-2.61-4.68h-10.69l-5.44-9.47,5.31-9.21h10.75L24.21.16Z"/>
    <path class="cls-4" d="M17.88,16.74l7.69.06-2.21,3.82,2.64,4.83,6.46-11.19-6.47-11.36-2.76,4.72,2.43,4.27h-7.79c1.34,0,2.42,1.09,2.42,2.43s-1.08,2.42-2.42,2.42ZM13.93,14.31c0-1.27,1.03-2.29,2.29-2.29s2.29,1.03,2.29,2.29-1.03,2.29-2.29,2.29-2.29-1.02-2.29-2.29ZM24.21.16H8.09L.02,14.12l8.11,14.1h16.06l-2.61-4.68h-10.69l-5.44-9.47,5.31-9.21h10.75L24.21.16Z"/>
    <path class="cls-3" d="M55.38,9.57l.33-1.53c.69-3.24-.53-3.46-5.22-3.46-5.4,0-6.52.89-7.68,6.37l-1.31,6.18c-1.15,5.59-.71,6.67,4.91,6.67,4.32,0,6.29-.15,7.14-4.13l.33-1.53h5.36l-.39,1.82c-1.68,8.42-6.42,8.12-13.41,8.42-9.91.37-10.97-2.87-9.35-11.02l1.36-6.4c1.9-8.94,5.79-10.95,14.02-10.95,6.97,0,10.94.04,9.61,8.04l-.33,1.53h-5.36Z"/>
    <path class="cls-3" d="M68.3,11.54h.15c1.65-2.87,4.06-3.16,6.82-3.16,5.14,0,6.25,2.12,5.24,6.89l-2.74,12.89h-4.69l2.64-12.4c.6-2.83.17-3.8-2.84-3.8-4.1,0-5.07,1.94-5.81,5.44l-2.29,10.76h-4.69L66.01.22h4.69l-2.41,11.32Z"/>
  </g>
  <path class="cls-3" d="M85.68,8.6l-4.15,19.55h4.69l4.16-19.55h-4.69ZM87.46.22l-.85,3.99h4.69l.85-3.99h-4.69Z"/>
  <g class="cls-5">
    <path class="cls-3" d="M105.24,16.27c.85-4.02.32-4.32-3.51-4.32-4.06,0-4.5.86-5.24,4.32h8.75ZM108.73,21.93c-1.31,6.14-4.91,6.44-10.49,6.44-7.49,0-8.5-2.38-6.9-9.94,1.49-7,3.25-10.06,11.15-10.06s8.63,2.35,6.81,10.87h-13.44c-.9,4.21-1.07,5.55,3.14,5.55,2.61,0,4.42.04,5.04-2.87h4.69Z"/>
    <path class="cls-3" d="M125.59,13.93c.5-2.35-.73-2.35-3.23-2.35s-4.21,0-4.75,2.57c-.41,1.94.1,2.01,4.15,2.2,4.57.22,8.74-.11,7.39,6.22-1.12,5.29-5.41,5.81-10.36,5.81-5.33,0-8.9,0-7.55-6.37h4.69c-.53,2.83.07,3.17,3.54,3.17,2.79,0,4.42.07,4.99-2.61.36-1.71.43-2.57-4.28-2.65-7.16-.11-8.26-1.08-7.2-6.07,1.14-5.36,5.04-5.48,10.06-5.48,3.84,0,8.4.08,7.24,5.55h-4.69Z"/>
  </g>
  <path class="cls-3" d="M134.77,8.6l-4.16,19.55h4.69l4.16-19.55h-4.69ZM136.54.22l-.85,3.99h4.69l.85-3.99h-4.69Z"/>
</svg>