<?xml version="1.0" encoding="UTF-8"?>
<svg id="_图层_1" data-name="图层 1" xmlns="http://www.w3.org/2000/svg" xmlns:xlink="http://www.w3.org/1999/xlink" version="1.1" viewBox="0 0 96.28 37.09">
  <defs>
    <style>
      .cls-1 {
        clip-path: url(#clippath);
      }

      .cls-2 {
        fill: none;
      }

      .cls-2, .cls-3 {
        stroke-width: 0px;
      }

      .cls-3 {
        fill: #fff;
      }
    </style>
    <clipPath id="clippath">
      <rect class="cls-2" width="96.28" height="37.09"/>
    </clipPath>
  </defs>
  <g class="cls-1">
    <path class="cls-3" d="M81.81,8.97h-4.28v19.42h4.28c6.43,0,10.18-3.88,10.18-9.64-.13-6.03-3.61-9.78-10.18-9.78M82.08,32.4h-6.83c-1.21,0-2.28-.94-2.28-2.28V7.1c0-1.2.94-2.14,2.28-2.14h6.83c9.24,0,14.19,6.16,14.19,13.79s-5.09,13.66-14.19,13.66M60.12,19.82h-8.17v8.44h8.17c3.21,0,4.69-2.14,4.69-4.15.13-2.14-1.34-4.28-4.69-4.28M59.18,8.97h-7.1v6.96h7.1c2.81,0,4.15-1.61,4.15-3.48,0-2.01-1.21-3.48-4.15-3.48M59.99,32.4h-10.18c-1.21,0-2.14-.94-2.14-2.28V7.1c0-1.2.94-2.14,2.14-2.14h9.51c5.22,0,8.44,3.08,8.44,6.96s-2.41,5.49-3.35,5.76c1.34.27,4.95,1.87,4.95,6.83,0,4.28-3.48,7.9-9.37,7.9"/>
    <path class="cls-3" d="M24.37,13.52h0c.13,0,10.85-2.68,10.85-2.68-1.47-3.21-3.75-5.89-6.69-7.77,0,0-4.15,10.18-4.15,10.31q-.13,0,0,.13c-.13,0,0,0,0,0M20.49,10.98c0,.13.13.13,0,0q.13.13.27,0c.27-.27,7.63-8.03,7.63-8.03C25.58,1.07,22.09,0,18.48,0c0,.13,1.87,10.44,2.01,10.98M26.24,17.54l10.44,3.61c.13-.8.13-1.74.13-2.54,0-2.68-.54-5.22-1.61-7.63,0,0-8.97,6.29-9.11,6.43l.13.13q-.13,0,0,0M12.45,13.39h0c0-.13-4.15-10.31-4.15-10.31-2.95,1.87-5.22,4.55-6.69,7.77,0,0,10.58,2.68,10.71,2.68l.13-.13q0,.13,0,0M18.34.13c-3.61,0-7.1,1.07-9.91,2.95,0,0,7.36,7.77,7.63,8.03l.13.13s.13,0,.13-.13c0-.67,2.01-10.98,2.01-10.98M10.58,17.54L.13,21.16C0,20.35,0,19.42,0,18.61,0,15.93.54,13.39,1.61,10.98c0,0,8.97,6.29,9.1,6.43q-.13,0-.13.13"/>
    <path class="cls-3" d="M18.34,37.09c9.24,0,17-6.83,18.34-15.8l-6.83.94c-.13,0-.13.13-.13.13-1.34,4.02-4.82,6.96-9.11,7.77,1.61-.8,2.81-2.41,2.81-4.42,0-2.68-2.14-4.82-4.82-4.82s-4.82,2.14-4.82,4.82c0,1.88,1.07,3.62,2.81,4.42-4.29-.8-7.77-3.75-9.11-7.77,0-.13-.13-.13-.13-.13l-7.23-.94c1.34,8.97,8.97,15.8,18.21,15.8"/>
  </g>
</svg>