<?xml version="1.0" encoding="UTF-8"?>
<svg id="_图层_1" data-name="图层 1" xmlns="http://www.w3.org/2000/svg" xmlns:xlink="http://www.w3.org/1999/xlink" version="1.1" viewBox="0 0 85.4 25.73">
  <defs>
    <style>
      .cls-1 {
        clip-path: url(#clippath);
      }

      .cls-2 {
        fill: none;
      }

      .cls-2, .cls-3 {
        stroke-width: 0px;
      }

      .cls-3 {
        fill: #fff;
      }
    </style>
    <clipPath id="clippath">
      <rect class="cls-2" width="85.4" height="25.73"/>
    </clipPath>
  </defs>
  <g class="cls-1">
    <path class="cls-3" d="M25.73,10.32v6.21c0,2.43-1.85,3.82-4.73,3.9-.16,0-.25.12-.25.25v1.44c0,1.97-1.6,3.62-3.62,3.62H6.4C2.87,25.73,0,22.87,0,19.33V6.4C0,2.87,2.87,0,6.4,0h14.24v5.31H6.78c-.82,0-1.48.66-1.48,1.48v12.17c0,.82.66,1.48,1.48,1.48h12.91c.55,0,.99-.44.99-.99v-4.11h-2.05c-1.9,0-3.42-1.52-3.42-3.42v-1.59h10.52ZM59.67,18.21v7.52h5.3v-11.8c0-.53.41-.62.7-.33l12.5,12.13h7.24l-13.24-12.87L85.4,0h-7.24l-12.5,12.13c-.29.29-.7.2-.7-.33V0h-5.3v7.56c0,2.71,1.77,4.36,4.93,5.22.12.04.12.16,0,.21-3.17.86-4.93,2.51-4.93,5.22M29.62,9.99c0,3.29,2.75,5.34,6.49,5.34h12.58c.9,0,1.48.58,1.48,1.48v2.14c0,.9-.58,1.48-1.48,1.48h-17.72v5.3h17.84c3.74,0,6.54-2.8,6.54-6.54v-2.34c0-3.74-2.8-6.54-6.54-6.54h-12.54c-.9,0-1.48-.58-1.48-1.48v-2.55c0-.62.37-.99.99-.99h17.43V0h-14.92c-2.01,0-3.62,1.6-3.62,3.62v1.44c0,.12-.08.25-.25.25-2.55.08-4.81,1.52-4.81,4.69"/>
  </g>
</svg>