<?xml version="1.0" encoding="UTF-8"?>
<svg id="_图层_1" data-name="图层 1" xmlns="http://www.w3.org/2000/svg" xmlns:xlink="http://www.w3.org/1999/xlink" version="1.1" viewBox="0 0 91.7 47.02">
  <defs>
    <style>
      .cls-1 {
        clip-path: url(#clippath);
      }

      .cls-2 {
        fill: none;
      }

      .cls-2, .cls-3 {
        stroke-width: 0px;
      }

      .cls-4 {
        clip-path: url(#clippath-1);
      }

      .cls-5 {
        clip-path: url(#clippath-3);
      }

      .cls-6 {
        clip-path: url(#clippath-2);
      }

      .cls-3 {
        fill: #fff;
      }
    </style>
    <clipPath id="clippath">
      <rect class="cls-2" x="0" y="0" width="91.69" height="47.02"/>
    </clipPath>
    <clipPath id="clippath-1">
      <rect class="cls-2" x="0" y="0" width="91.69" height="47.02"/>
    </clipPath>
    <clipPath id="clippath-2">
      <rect class="cls-2" x="0" y="0" width="91.69" height="47.02"/>
    </clipPath>
    <clipPath id="clippath-3">
      <rect class="cls-2" x="0" y="0" width="91.69" height="47.02"/>
    </clipPath>
  </defs>
  <g class="cls-1">
    <path class="cls-3" d="M91.69,47.02c-15.08-1.49-30.38-2.25-45.85-2.25s-30.77.76-45.85,2.25l.26-5.08c15-1.45,30.21-2.2,45.59-2.2s30.59.74,45.59,2.2l.26,5.08Z"/>
    <path class="cls-3" d="M39.42,23.89c-13.19-.18-26.25-.91-39.16-2.16L0,16.65c9.88.98,19.84,1.64,29.89,1.98-.17-.91-.26-1.85-.26-2.81,0-8.73,7.26-15.82,16.21-15.82s16.21,7.08,16.21,15.82c0,.96-.09,1.9-.26,2.81,10.05-.34,20.02-1,29.89-1.98l-.26,5.08c-12.9,1.25-25.96,1.98-39.16,2.16,2.3-1.91,3.77-4.82,3.77-8.07,0-5.75-4.57-10.4-10.2-10.4s-10.2,4.66-10.2,10.4c0,3.26,1.47,6.17,3.77,8.07"/>
  </g>
  <polygon class="cls-3" points="36.16 32.51 32.35 26.23 30.11 26.23 30.11 37.44 32.43 37.44 32.43 30.92 36.39 37.44 38.48 37.44 38.48 26.23 36.16 26.23 36.16 32.51"/>
  <g class="cls-4">
    <path class="cls-3" d="M25.95,33.66c0,1.27-.78,1.92-1.77,1.92s-1.77-.65-1.77-1.92v-4.39h-2.41v4.39c0,2.3,1.7,4,4,4s4.33-1.7,4.33-4v-4.39h-2.38v4.39Z"/>
  </g>
  <rect class="cls-3" x="25.95" y="26.23" width="2.38" height="2.05"/>
  <g class="cls-6">
    <path class="cls-3" d="M13.12,31.49v-3.31h1.41c1.16,0,1.83.7,1.83,1.65s-.67,1.65-1.83,1.65h-1.41ZM18.78,29.83c0-2.05-1.45-3.6-3.93-3.6h-4.09s0,11.21,0,11.21h2.35v-4.01h1.57l1.82,4.01h2.78l-2.28-4.55c1.07-.57,1.77-1.65,1.77-3.06"/>
  </g>
  <rect class="cls-3" x="20" y="26.23" width="2.41" height="2.05"/>
  <g class="cls-5">
    <path class="cls-3" d="M4.94,32.98h1.88v2.28c-.47.25-1.02.38-1.62.38-1.7,0-2.75-1.88-2.75-3.87s1.05-3.72,2.75-3.72c.99,0,1.82.39,2.41,1.03l1.36-1.71c-.95-.84-2.23-1.35-3.77-1.35C1.84,26.01,0,28.53,0,31.72s1.83,5.95,5.19,5.95c1.77,0,3.17-.75,3.99-1.4v-5.3h-4.24v2.02Z"/>
  </g>
  <path class="cls-3" d="M78.5,33.31l1.17-3.46,1.17,3.46h-2.33ZM80.89,26.23h-2.24l-3.94,11.21h2.4l.73-2.16h3.66l.73,2.16h2.62l-3.94-11.21h-.02Z"/>
  <polygon class="cls-3" points="71.85 30.72 68.39 30.72 68.39 26.23 66.01 26.23 66.01 37.44 68.39 37.44 68.39 32.78 71.85 32.78 71.85 37.44 74.23 37.44 74.23 26.23 71.85 26.23 71.85 30.72"/>
  <polygon class="cls-3" points="85.33 26.23 85.33 37.44 91.33 37.44 91.33 35.37 87.71 35.37 87.71 26.23 85.33 26.23"/>
  <polygon class="cls-3" points="54.89 32.51 51.09 26.23 48.85 26.23 48.85 37.44 51.17 37.44 51.17 30.92 55.12 37.44 57.22 37.44 57.22 26.23 54.89 26.23 54.89 32.51"/>
  <polygon class="cls-3" points="57.91 28.3 60.37 28.3 60.37 37.44 62.85 37.44 62.85 28.3 65.31 28.3 65.31 26.23 57.91 26.23 57.91 28.3"/>
  <polygon class="cls-3" points="42.73 32.77 46.71 32.77 46.71 30.72 42.73 30.72 42.73 28.28 47.36 28.28 47.36 26.23 40.36 26.23 40.36 37.44 47.47 37.44 47.47 35.39 42.73 35.39 42.73 32.77"/>
</svg>