<?xml version="1.0" encoding="UTF-8"?>
<svg id="_图层_1" data-name="图层 1" xmlns="http://www.w3.org/2000/svg" xmlns:xlink="http://www.w3.org/1999/xlink" version="1.1" viewBox="0 0 128.79 30.53">
  <defs>
    <style>
      .cls-1 {
        clip-path: url(#clippath);
      }

      .cls-2 {
        fill: none;
      }

      .cls-2, .cls-3 {
        stroke-width: 0px;
      }

      .cls-3 {
        fill: #fff;
      }
    </style>
    <clipPath id="clippath">
      <rect class="cls-2" x="0" y="0" width="128.79" height="30.53"/>
    </clipPath>
  </defs>
  <g class="cls-1">
    <path class="cls-3" d="M75.36,10.32c-1.48-2.07-3.5-3.31-6.25-3.31-4.58,0-8.29,3.75-8.29,8.38s3.71,8.38,8.29,8.38c3.3,0,6.16-1.95,7.49-4.77,0,0-8.53,0-8.53,0v-6.86h15.63V1.5h13.93v6.86h-7.3s-.02,3.78,0,3.78h7.3v6.86h-7.3v3.54h7.3v6.69c.24.01-13.94-.01-13.94,0v-10.17c-1.65,7.58-7.74,11.48-14.58,11.48s-12.41-4.01-14.05-11.1v1.83s0,7.96,0,7.96h-6.85V13.02s-3.96,3.49-3.96,16.2h-7.04c0-12.71-3.96-16.2-3.96-16.2v16.2h-6.85V1.08c7.9,0,13.11,8.87,14.33,14.11h0c1.22-5.24,6.44-14.11,14.33-14.11v9.36h0c1.33-6.23,7.58-10.44,14.05-10.44s12.48,5.01,13.71,10.32h-7.46Z"/>
    <path class="cls-3" d="M112.66,29.22c-1-7.65-6.06-13.1-6.06-13.1v13.1h-7.27V1.5c1.61,0,7.4,3.12,13.33,11.65V1.5h7.09v27.72h-7.09Z"/>
    <path class="cls-3" d="M17.89,15.82v-6.56c-2.21,1.54-4.57,4.39-6,6.56h6ZM8.99,22.27c-.19.8-1.41,5.06-1.9,7.01H0c.94-3.5,2.81-9.5,4.71-13.49,1.9-3.98,4.29-8.37,8.22-11.33,1.81-1.37,5.33-4.06,11.84-3.45v28.23h-6.89v-6.98h-8.89Z"/>
    <path class="cls-3" d="M126.15,2.96c.36,0,.61-.08.61-.49s-.46-.42-.77-.42h-.78v.91h.94ZM127.29,4.81h-.74l-.71-1.37h-.63v1.37h-.63V1.57h1.56c.27,0,.63,0,.88.16.29.19.38.5.38.84,0,.59-.31.83-.88.87l.79,1.37ZM128.23,3.17c0-1.34-1.08-2.42-2.42-2.42s-2.43,1.08-2.43,2.42,1.09,2.44,2.43,2.44,2.42-1.08,2.42-2.44M122.81,3.17c0-1.64,1.34-2.98,3-2.98s2.98,1.34,2.98,2.98-1.34,3-2.98,3-3-1.34-3-3"/>
  </g>
</svg>