<?xml version="1.0" encoding="UTF-8"?>
<svg id="_图层_1" data-name="图层 1" xmlns="http://www.w3.org/2000/svg" xmlns:xlink="http://www.w3.org/1999/xlink" version="1.1" viewBox="0 0 152.65 26.58">
  <defs>
    <style>
      .cls-1 {
        clip-path: url(#clippath);
      }

      .cls-2 {
        fill: none;
      }

      .cls-2, .cls-3 {
        stroke-width: 0px;
      }

      .cls-3 {
        fill: #fff;
      }
    </style>
    <clipPath id="clippath">
      <rect class="cls-2" x="0" y="0" width="152.65" height="26.58"/>
    </clipPath>
  </defs>
  <g class="cls-1">
    <path class="cls-3" d="M71.91,23.55h5.24c5.89,0,7.89-3.75,7.89-7.1s-2-7.11-7.89-7.11h-5.24c-6.15,0-7.94,3.9-7.94,7.11,0,2.85,1.6,7.1,7.94,7.1M63.97,9.16c1.31-1.23,3.61-2.56,7.27-2.56h6.13c8.35,0,10.7,5.66,10.7,9.84,0,4.71-2.83,9.84-10.7,9.84h-6.13c-5.97,0-10.29-3.86-10.29-9.84V0h.94c1.33,0,2.09.69,2.09,1.94v7.22ZM41.72,23.55h5.24c5.89,0,7.89-3.75,7.89-7.1s-2-7.11-7.89-7.11h-5.24c-6.15,0-7.94,3.9-7.94,7.11,0,2.85,1.6,7.1,7.94,7.1M33.78,9.16c1.3-1.23,3.61-2.56,7.27-2.56h6.13c8.35,0,10.7,5.66,10.7,9.84,0,4.71-2.83,9.84-10.7,9.84h-6.13c-5.97,0-10.29-3.86-10.29-9.84V0h.94c1.33,0,2.09.69,2.09,1.94v7.22ZM120.76,6.6h.72c1.4,0,2.31.63,2.31,2.54v17.14h-.75c-1.53,0-2.27-.83-2.27-2.49V6.6ZM122.27,4.35c.87,0,1.55-.54,1.55-1.56v-.65c0-1.04-.68-1.57-1.55-1.57s-1.55.52-1.55,1.57v.65c0,1.03.68,1.56,1.55,1.56M16.16,9.34h-5.24c-5.89,0-7.89,3.75-7.89,7.11s2,7.1,7.89,7.1h5.24c6.15,0,7.94-3.9,7.94-7.1,0-2.85-1.6-7.11-7.94-7.11M27.95,26.28c-1.23,0-2-.61-2.24-1.92l-.4-2.14c-.66,1.23-3.13,4.06-8.47,4.06h-6.13C2.36,26.28,0,20.62,0,16.44,0,11.73,2.83,6.6,10.7,6.6h6.13c5.97,0,9.29,3.48,10.09,7.72.67,3.54,2.24,11.96,2.24,11.96h-1.22ZM104.9,25.04c-.83,1.14-1.41,1.54-2.14,1.54-1.02,0-1.41-.55-2.13-1.54-1.76-2.4-13.5-18.44-13.5-18.44h1.81c1.96,0,2.52.69,3.34,1.83.36.5,10.56,14.88,10.56,14.88,0,0,10.19-14.36,10.61-14.96.75-1.06,1.33-1.75,3.3-1.75h1.6s-12.01,16.48-13.44,18.44M137.99,9.34h8.13c2.81,0,3.48,1.75,3.48,2.87,0,1.01-.62,2.87-3.48,2.87h-15.83c.19-1.95,1.83-5.74,7.69-5.74M152.14,25.73c0-1.62-.93-2.18-2.49-2.18h-11.69c-5.49,0-7.42-3.4-7.67-5.74h16.23c4.73,0,6.13-3.41,6.13-5.6,0-2.34-1.52-5.6-6.13-5.6h-8.76c-7.98,0-10.6,5.43-10.6,9.84,0,4.84,2.99,9.84,10.58,9.84h14.41v-.56Z"/>
  </g>
</svg>