<?xml version="1.0" encoding="UTF-8"?>
<svg id="_图层_1" data-name="图层 1" xmlns="http://www.w3.org/2000/svg" xmlns:xlink="http://www.w3.org/1999/xlink" version="1.1" viewBox="0 0 197.8 32.34">
  <defs>
    <style>
      .cls-1 {
        clip-path: url(#clippath);
      }

      .cls-2 {
        fill: none;
      }

      .cls-2, .cls-3 {
        stroke-width: 0px;
      }

      .cls-3 {
        fill: #fff;
      }
    </style>
    <clipPath id="clippath">
      <rect class="cls-2" width="197.8" height="32.34"/>
    </clipPath>
  </defs>
  <g class="cls-1">
    <path class="cls-3" d="M14.12,25.3L11.46,0h5.56l-2.66,25.3h-.24ZM152.72,13.22l-1.47,3.17h-.57l.43-4.17h15.29l.43,4.17h-.57l-1.48-3.17h-4.5v16.69l2.66.61v.69h-8.35v-.69l2.66-.61V13.22h-4.51ZM146.03,29.91l2.52.64v.66h-4.99l-5.63-8.71h-2.2v7.41l2.56.61v.68h-7.79v-.69l2.2-.61V13.52l-2.2-.62v-.68c.41-.01,3.78-.09,7.12-.09,5.39,0,7.58,2.22,7.58,5.08,0,3.59-3.77,4.55-4.43,4.72l5.26,7.98ZM116.47,14.79h.03l3.14,8.47h-6.32l3.15-8.47ZM107.44,31.21h6.21v-.69l-2.75-.61,1.93-5.25h7.3l1.94,5.25-2.75.61v.69h8.13v-.69l-2.15-.61-6.85-18.26-2.22.57-6.63,17.69-2.15.61v.69ZM185.34,30.98c.61.19,2.43.81,5.42.81,3.9,0,7.04-2.08,7.04-5.43,0-2.72-1.45-4.18-4.5-5.76-.74-.39-1.53-.8-2.24-1.16-1.91-.99-3.03-2.05-3.03-3.73,0-1.85,1.48-3.19,3.66-3.19,1.46,0,2.44.56,2.75.72l1.64,3.52h.57l-.45-4.39c-.37-.12-2.25-.73-4.44-.73-4.27,0-6.31,2.25-6.31,5.15,0,2.67,2.25,4.33,4.51,5.51.64.33,1.27.66,1.89.98,1.91.99,3.09,2.08,3.09,3.9,0,2.37-2.11,3.74-4.41,3.74-1.54,0-2.87-.58-3.4-.84l-1.78-4.08h-.53l.51,5.01ZM171.37,31.21h8.35v-.69l-2.66-.61V13.52l2.66-.61v-.69h-8.35v.69l2.66.61v16.39l-2.66.61v.69ZM142.14,17.42c0-3.28-2.36-4.2-6.41-4.2v8.29h1.22c3.08,0,5.19-1.65,5.19-4.09M98.3,31.55h1.7l6.73-18.03,1.98-.61v-.69h-5.69v.69l2.41.61-5.31,14.48h-.03l-5.31-14.48,2.41-.61v-.69h-7.69v.69l2,.61,6.81,18.03ZM78.06,30.91c-4.58,0-7.01-5.49-7.01-9.87s1.92-8.52,6.18-8.52c4,0,6.95,4.78,6.95,9.69,0,4.35-1.83,8.69-6.12,8.69M77.61,11.63c-5.12,0-9.78,3.92-9.78,10.09s4.6,10.07,9.81,10.07,9.81-3.86,9.81-10.58c0-4.69-3.55-9.58-9.84-9.58M62.08,31.51c-.02-.25-.11-2.21-.11-3.53v-14.46l2.09-.61v-.69h-5.83v.69l2.56.61v12.63l-10.74-13.93h-4.95v.69s.35.06.6.11c.81.18,1.6.83,1.8,1.02v15.87l-2.09.61v.69h5.83v-.69l-2.56-.61v-14.57l12.54,16.17h.86ZM28.65,22.81c0,4.92-4.97,9.54-14.41,9.54C3.66,32.34,0,27.02,0,21.79,0,16.1,4.17,12.59,4.17,7.64c0-1.47-.45-2.86-1.8-4.29l.12-.2c3.23.57,5.64,3.72,5.64,6.91,0,4.58-3.52,7.93-3.52,12.96,0,3.93,2.52,8.19,9.83,8.19,5.87,0,9.61-4.47,9.61-8.9,0-4.7-3-7.04-4.35-7.63l.08-.2c5.84.56,8.86,4.13,8.86,8.34"/>
  </g>
</svg>