<?xml version="1.0" encoding="UTF-8"?>
<svg id="_图层_1" data-name="图层 1" xmlns="http://www.w3.org/2000/svg" xmlns:xlink="http://www.w3.org/1999/xlink" version="1.1" viewBox="0 0 506.85 28.51">
  <defs>
    <style>
      .cls-1 {
        fill: #40bbc3;
      }

      .cls-1, .cls-2, .cls-3, .cls-4, .cls-5, .cls-6, .cls-7, .cls-8, .cls-9, .cls-10, .cls-11, .cls-12, .cls-13, .cls-14, .cls-15, .cls-16, .cls-17, .cls-18, .cls-19, .cls-20, .cls-21, .cls-22, .cls-23, .cls-24, .cls-25, .cls-26, .cls-27, .cls-28, .cls-29, .cls-30, .cls-31, .cls-32, .cls-33, .cls-34, .cls-35, .cls-36, .cls-37, .cls-38, .cls-39, .cls-40, .cls-41, .cls-42, .cls-43, .cls-44, .cls-45, .cls-46, .cls-47, .cls-48, .cls-49, .cls-50, .cls-51, .cls-52, .cls-53, .cls-54, .cls-55, .cls-56, .cls-57 {
        font-family: RocGrotesk-WideBold, 'Roc Grotesk';
        font-size: 24px;
        font-weight: 700;
      }

      .cls-2 {
        fill: #48beda;
      }

      .cls-3 {
        fill: #63a2d9;
      }

      .cls-58 {
        clip-path: url(#clippath);
      }

      .cls-4 {
        fill: #44baec;
      }

      .cls-5 {
        fill: #62a3d9;
      }

      .cls-6 {
        fill: #3dbaba;
      }

      .cls-7 {
        fill: #7b8cc5;
      }

      .cls-8 {
        fill: #49b8eb;
      }

      .cls-9 {
        fill: #65a0d7;
      }

      .cls-10 {
        fill: #3fbbc3;
      }

      .cls-11 {
        fill: #44beee;
      }

      .cls-12 {
        fill: #43bdd1;
      }

      .cls-13 {
        fill: #59aadf;
      }

      .cls-14 {
        fill: #45bdd3;
      }

      .cls-15 {
        fill: #7097cf;
      }

      .cls-16 {
        fill: #42bccc;
      }

      .cls-17 {
        fill: #4ec1ea;
      }

      .cls-18 {
        fill: #4ac0e4;
      }

      .cls-19 {
        fill: #41bcc8;
      }

      .cls-20 {
        fill: #41bbc6;
      }

      .cls-21 {
        fill: #48bfdf;
      }

      .cls-22 {
        fill: #7791ca;
      }

      .cls-23 {
        fill: #46bed5;
      }

      .cls-24 {
        fill: #3dbab9;
      }

      .cls-25 {
        fill: #53aee3;
      }

      .cls-26 {
        fill: #50b1e5;
      }

      .cls-59 {
        clip-path: url(#clippath-1);
      }

      .cls-60 {
        clip-path: url(#clippath-4);
      }

      .cls-61 {
        clip-path: url(#clippath-3);
      }

      .cls-62 {
        clip-path: url(#clippath-2);
      }

      .cls-63 {
        clip-path: url(#clippath-7);
      }

      .cls-64 {
        clip-path: url(#clippath-8);
      }

      .cls-65 {
        clip-path: url(#clippath-6);
      }

      .cls-66 {
        clip-path: url(#clippath-5);
      }

      .cls-67 {
        clip-path: url(#clippath-9);
      }

      .cls-27 {
        fill: #4bc0e7;
      }

      .cls-28 {
        fill: #64a1d7;
      }

      .cls-29 {
        fill: #43bccc;
      }

      .cls-68 {
        clip-path: url(#clippath-60);
      }

      .cls-69 {
        clip-path: url(#clippath-69);
      }

      .cls-70 {
        clip-path: url(#clippath-20);
      }

      .cls-71 {
        clip-path: url(#clippath-21);
      }

      .cls-72 {
        clip-path: url(#clippath-24);
      }

      .cls-73 {
        clip-path: url(#clippath-23);
      }

      .cls-74 {
        clip-path: url(#clippath-22);
      }

      .cls-75 {
        clip-path: url(#clippath-25);
      }

      .cls-76 {
        clip-path: url(#clippath-44);
      }

      .cls-77 {
        clip-path: url(#clippath-45);
      }

      .cls-78 {
        clip-path: url(#clippath-40);
      }

      .cls-79 {
        clip-path: url(#clippath-42);
      }

      .cls-80 {
        clip-path: url(#clippath-41);
      }

      .cls-81 {
        clip-path: url(#clippath-47);
      }

      .cls-82 {
        clip-path: url(#clippath-43);
      }

      .cls-83 {
        clip-path: url(#clippath-46);
      }

      .cls-84 {
        clip-path: url(#clippath-48);
      }

      .cls-85 {
        clip-path: url(#clippath-49);
      }

      .cls-86 {
        clip-path: url(#clippath-27);
      }

      .cls-87 {
        clip-path: url(#clippath-28);
      }

      .cls-88 {
        clip-path: url(#clippath-26);
      }

      .cls-89 {
        clip-path: url(#clippath-29);
      }

      .cls-90 {
        clip-path: url(#clippath-34);
      }

      .cls-91 {
        clip-path: url(#clippath-35);
      }

      .cls-92 {
        clip-path: url(#clippath-36);
      }

      .cls-93 {
        clip-path: url(#clippath-37);
      }

      .cls-94 {
        clip-path: url(#clippath-39);
      }

      .cls-95 {
        clip-path: url(#clippath-33);
      }

      .cls-96 {
        clip-path: url(#clippath-32);
      }

      .cls-97 {
        clip-path: url(#clippath-30);
      }

      .cls-98 {
        clip-path: url(#clippath-38);
      }

      .cls-99 {
        clip-path: url(#clippath-31);
      }

      .cls-100 {
        clip-path: url(#clippath-53);
      }

      .cls-101 {
        clip-path: url(#clippath-54);
      }

      .cls-102 {
        clip-path: url(#clippath-50);
      }

      .cls-103 {
        clip-path: url(#clippath-51);
      }

      .cls-104 {
        clip-path: url(#clippath-52);
      }

      .cls-105 {
        clip-path: url(#clippath-55);
      }

      .cls-106 {
        clip-path: url(#clippath-56);
      }

      .cls-107 {
        clip-path: url(#clippath-57);
      }

      .cls-108 {
        clip-path: url(#clippath-58);
      }

      .cls-109 {
        clip-path: url(#clippath-61);
      }

      .cls-110 {
        clip-path: url(#clippath-64);
      }

      .cls-111 {
        clip-path: url(#clippath-62);
      }

      .cls-112 {
        clip-path: url(#clippath-68);
      }

      .cls-113 {
        clip-path: url(#clippath-67);
      }

      .cls-114 {
        clip-path: url(#clippath-59);
      }

      .cls-115 {
        clip-path: url(#clippath-65);
      }

      .cls-116 {
        clip-path: url(#clippath-63);
      }

      .cls-117 {
        clip-path: url(#clippath-66);
      }

      .cls-118 {
        clip-path: url(#clippath-70);
      }

      .cls-119 {
        clip-path: url(#clippath-72);
      }

      .cls-120 {
        clip-path: url(#clippath-71);
      }

      .cls-121 {
        clip-path: url(#clippath-14);
      }

      .cls-122 {
        clip-path: url(#clippath-13);
      }

      .cls-123 {
        clip-path: url(#clippath-12);
      }

      .cls-124 {
        clip-path: url(#clippath-10);
      }

      .cls-125 {
        clip-path: url(#clippath-15);
      }

      .cls-126 {
        clip-path: url(#clippath-17);
      }

      .cls-127 {
        clip-path: url(#clippath-16);
      }

      .cls-128 {
        clip-path: url(#clippath-19);
      }

      .cls-129 {
        clip-path: url(#clippath-11);
      }

      .cls-130 {
        clip-path: url(#clippath-18);
      }

      .cls-30 {
        fill: #6c9ad1;
      }

      .cls-31 {
        fill: #7594cc;
      }

      .cls-32 {
        fill: #42bcc9;
      }

      .cls-33 {
        fill: #47bfdc;
      }

      .cls-34 {
        fill: #46bed4;
      }

      .cls-35 {
        fill: #42bcce;
      }

      .cls-36 {
        fill: #4bb6e9;
      }

      .cls-131 {
        clip-rule: evenodd;
        fill: none;
        stroke-width: 0px;
      }

      .cls-37 {
        fill: #53afe3;
      }

      .cls-38 {
        fill: #3ebabb;
      }

      .cls-39 {
        fill: #45bdd2;
      }

      .cls-40 {
        fill: #48bfdd;
      }

      .cls-41 {
        fill: #4bc1ec;
      }

      .cls-42 {
        fill: #44bdee;
      }

      .cls-43 {
        fill: #7296ce;
      }

      .cls-44 {
        fill: #49bfe0;
      }

      .cls-45 {
        fill: #42bccb;
      }

      .cls-46 {
        fill: #49bfe2;
      }

      .cls-47 {
        fill: #689ed5;
      }

      .cls-48 {
        fill: #3dbabb;
      }

      .cls-49 {
        fill: #47baec;
      }

      .cls-50 {
        fill: #44bdd1;
      }

      .cls-51 {
        fill: #42bcc6;
      }

      .cls-52 {
        fill: #60a5db;
      }

      .cls-53 {
        fill: #3fbbc1;
      }

      .cls-54 {
        fill: #3db9b7;
      }

      .cls-55 {
        fill: #45bbed;
      }

      .cls-56 {
        fill: #42bcc7;
      }

      .cls-57 {
        fill: #56ace1;
      }
    </style>
    <clipPath id="clippath">
      <polyline class="cls-131" points=".43 3.5 .43 19.25 .68 19.25 .68 18.75 .93 18.75 .93 18.5 1.18 18.5 1.18 18 1.43 18 1.43 17.75 1.68 17.75 1.68 17.25 1.93 17.25 1.93 17 2.18 17 2.18 16.5 2.43 16.5 2.43 16.25 2.68 16.25 2.68 15.75 2.93 15.75 2.93 15.5 3.18 15.5 3.18 15 3.43 15 3.43 14.75 3.68 14.75 3.68 14.25 3.93 14.25 3.93 14 4.18 14 4.18 13.5 4.43 13.5 4.43 13.25 4.68 13.25 4.68 12.75 4.93 12.75 4.93 12.5 5.18 12.5 5.18 12 5.43 12 5.43 11.75 5.68 11.75 5.68 11.5 5.93 11.5 5.93 11 6.18 11 6.18 10.75 6.43 10.75 6.43 10.25 6.68 10.25 6.68 10 6.93 10 6.93 9.5 7.18 9.5 7.18 9.25 7.43 9.25 7.43 8.75 7.68 8.75 7.68 8.5 7.93 8.5 7.93 8.25 8.18 8.25 8.18 7.75 8.43 7.75 8.43 7.5 8.68 7.5 8.68 7 8.93 7 8.93 6.75 9.18 6.75 9.18 6.5 9.43 6.5 9.43 6 9.68 6 9.68 5.75 9.93 5.75 9.93 5.25 10.18 5.25 10.18 5 10.43 5 10.43 4.75 10.68 4.75 10.68 4.25 10.93 4.25 10.93 4 11.18 4 11.18 3.75 11.43 3.75 11.43 3.5 .43 3.5"/>
    </clipPath>
    <clipPath id="clippath-1">
      <polyline class="cls-131" points="11.43 3.5 11.43 3.75 11.18 3.75 11.18 4 10.93 4 10.93 4.25 10.68 4.25 10.68 4.75 10.43 4.75 10.43 5 10.18 5 10.18 5.25 9.93 5.25 9.93 5.75 9.68 5.75 9.68 6 9.43 6 9.43 6.5 9.18 6.5 9.18 6.75 8.93 6.75 8.93 7 8.68 7 8.68 7.5 8.43 7.5 8.43 7.75 8.18 7.75 8.18 8.25 7.93 8.25 7.93 8.5 7.68 8.5 7.68 8.75 7.43 8.75 7.43 9.25 7.18 9.25 7.18 9.5 6.93 9.5 6.93 10 6.68 10 6.68 10.25 6.43 10.25 6.43 10.75 6.18 10.75 6.18 11 5.93 11 5.93 11.5 5.68 11.5 5.68 11.75 5.43 11.75 5.43 12 5.18 12 5.18 12.5 4.93 12.5 4.93 12.75 4.68 12.75 4.68 13.25 4.43 13.25 4.43 13.5 4.18 13.5 4.18 14 3.93 14 3.93 14.25 3.68 14.25 3.68 14.75 3.43 14.75 3.43 15 3.18 15 3.18 15.5 2.93 15.5 2.93 15.75 2.68 15.75 2.68 16.25 2.43 16.25 2.43 16.5 2.18 16.5 2.18 17 1.93 17 1.93 17.25 1.68 17.25 1.68 17.75 1.43 17.75 1.43 18 1.18 18 1.18 18.5 .93 18.5 .93 18.75 .68 18.75 .68 19.25 .43 19.25 .43 20.5 9.68 20.5 9.68 20 9.93 20 9.93 19.75 10.18 19.75 10.18 19.25 10.43 19.25 10.43 19 10.68 19 10.68 18.5 10.93 18.5 10.93 18.25 11.18 18.25 11.18 18 11.43 18 11.43 17.5 11.68 17.5 11.68 17.25 11.93 17.25 11.93 16.75 12.18 16.75 12.18 16.5 12.43 16.5 12.43 16 12.68 16 12.68 15.75 12.93 15.75 12.93 15.25 13.18 15.25 13.18 15 13.43 15 13.43 14.5 13.68 14.5 13.68 14.25 13.93 14.25 13.93 14 14.18 14 14.18 13.5 14.43 13.5 14.43 13.25 14.68 13.25 14.68 12.75 14.93 12.75 14.93 12.5 15.18 12.5 15.18 12.25 15.43 12.25 15.43 3.5 11.43 3.5"/>
    </clipPath>
    <clipPath id="clippath-2">
      <polyline class="cls-131" points="15.18 12.25 15.18 12.5 14.93 12.5 14.93 12.75 14.68 12.75 14.68 13.25 14.43 13.25 14.43 13.5 14.18 13.5 14.18 14 13.93 14 13.93 14.25 13.68 14.25 13.68 14.5 13.43 14.5 13.43 15 13.18 15 13.18 15.25 12.93 15.25 12.93 15.75 12.68 15.75 12.68 16 12.43 16 12.43 16.5 12.18 16.5 12.18 16.75 11.93 16.75 11.93 17.25 11.68 17.25 11.68 17.5 11.43 17.5 11.43 18 11.18 18 11.18 18.25 10.93 18.25 10.93 18.5 10.68 18.5 10.68 19 10.43 19 10.43 19.25 10.18 19.25 10.18 19.75 9.93 19.75 9.93 20 9.68 20 9.68 20.5 15.43 20.5 15.43 12.25 15.18 12.25"/>
    </clipPath>
    <clipPath id="clippath-3">
      <polyline class="cls-131" points="17.43 3.5 17.43 9 17.68 9 17.68 8.75 17.93 8.75 17.93 8.25 18.18 8.25 18.18 8 18.43 8 18.43 7.75 18.68 7.75 18.68 7.25 18.93 7.25 18.93 7 19.18 7 19.18 6.75 19.43 6.75 19.43 6.25 19.68 6.25 19.68 6 19.93 6 19.93 5.75 20.18 5.75 20.18 5.25 20.43 5.25 20.43 5 20.68 5 20.68 4.75 20.93 4.75 20.93 4.25 21.18 4.25 21.18 4 21.43 4 21.43 3.75 21.68 3.75 21.68 3.5 17.43 3.5"/>
    </clipPath>
    <clipPath id="clippath-4">
      <polyline class="cls-131" points="21.68 3.5 21.68 3.75 21.43 3.75 21.43 4 21.18 4 21.18 4.25 20.93 4.25 20.93 4.75 20.68 4.75 20.68 5 20.43 5 20.43 5.25 20.18 5.25 20.18 5.75 19.93 5.75 19.93 6 19.68 6 19.68 6.25 19.43 6.25 19.43 6.75 19.18 6.75 19.18 7 18.93 7 18.93 7.25 18.68 7.25 18.68 7.75 18.43 7.75 18.43 8 18.18 8 18.18 8.25 17.93 8.25 17.93 8.75 17.68 8.75 17.68 9 17.43 9 17.43 19.5 17.68 19.5 17.68 19.25 17.93 19.25 17.93 18.75 18.18 18.75 18.18 18.5 18.43 18.5 18.43 18 18.68 18 18.68 17.75 18.93 17.75 18.93 17.25 19.18 17.25 19.18 17 19.43 17 19.43 16.75 19.68 16.75 19.68 16.25 19.93 16.25 19.93 16 20.18 16 20.18 15.5 20.43 15.5 20.43 15.25 20.68 15.25 20.68 15 20.93 15 20.93 14.5 21.18 14.5 21.18 14.25 21.43 14.25 21.43 13.75 21.68 13.75 21.68 13.5 21.93 13.5 21.93 13.25 22.18 13.25 22.18 12.75 22.43 12.75 22.43 12.5 22.68 12.5 22.68 12.25 22.93 12.25 22.93 11.75 23.18 11.75 23.18 11.5 23.43 11.5 23.43 11.25 23.68 11.25 23.68 10.75 23.93 10.75 23.93 10.5 24.18 10.5 24.18 10.25 24.43 10.25 24.43 9.75 24.68 9.75 24.68 9.5 24.93 9.5 24.93 9.25 25.18 9.25 25.18 8.75 25.43 8.75 25.43 8.5 25.68 8.5 25.68 8.25 25.93 8.25 25.93 7.75 26.18 7.75 26.18 7.5 26.43 7.5 26.43 7.25 26.68 7.25 26.68 6.75 26.93 6.75 26.93 6.5 27.18 6.5 27.18 6.25 27.43 6.25 27.43 6 27.68 6 27.68 5.5 27.93 5.5 27.93 5.25 28.18 5.25 28.18 5 28.43 5 28.43 4.5 28.68 4.5 28.68 4.25 28.93 4.25 28.93 4 29.18 4 29.18 3.75 29.43 3.75 29.43 3.5 21.68 3.5"/>
    </clipPath>
    <clipPath id="clippath-5">
      <polyline class="cls-131" points="29.43 3.5 29.43 3.75 29.18 3.75 29.18 4 28.93 4 28.93 4.25 28.68 4.25 28.68 4.5 28.43 4.5 28.43 5 28.18 5 28.18 5.25 27.93 5.25 27.93 5.5 27.68 5.5 27.68 6 27.43 6 27.43 6.25 27.18 6.25 27.18 6.5 26.93 6.5 26.93 6.75 26.68 6.75 26.68 7.25 26.43 7.25 26.43 7.5 26.18 7.5 26.18 7.75 25.93 7.75 25.93 8.25 25.68 8.25 25.68 8.5 25.43 8.5 25.43 8.75 25.18 8.75 25.18 9.25 24.93 9.25 24.93 9.5 24.68 9.5 24.68 9.75 24.43 9.75 24.43 10.25 24.18 10.25 24.18 10.5 23.93 10.5 23.93 10.75 23.68 10.75 23.68 11.25 23.43 11.25 23.43 11.5 23.18 11.5 23.18 11.75 22.93 11.75 22.93 12.25 22.68 12.25 22.68 12.5 22.43 12.5 22.43 12.75 22.18 12.75 22.18 13.25 21.93 13.25 21.93 13.5 21.68 13.5 21.68 13.75 21.43 13.75 21.43 14.25 21.18 14.25 21.18 14.5 20.93 14.5 20.93 15 20.68 15 20.68 15.25 20.43 15.25 20.43 15.5 20.18 15.5 20.18 16 19.93 16 19.93 16.25 19.68 16.25 19.68 16.75 19.43 16.75 19.43 17 19.18 17 19.18 17.25 18.93 17.25 18.93 17.75 18.68 17.75 18.68 18 18.43 18 18.43 18.5 18.18 18.5 18.18 18.75 17.93 18.75 17.93 19.25 17.68 19.25 17.68 19.5 17.43 19.5 17.43 20.5 20.43 20.5 20.43 20.25 20.68 20.25 20.68 19.75 20.93 19.75 20.93 19.5 21.18 19.5 21.18 19 21.43 19 21.43 18.75 21.68 18.75 21.68 18.25 21.93 18.25 21.93 18 22.18 18 22.18 17.75 22.43 17.75 22.43 17.25 22.68 17.25 22.68 17 22.93 17 22.93 16.5 23.18 16.5 23.18 16.25 23.43 16.25 23.43 16 23.68 16 23.68 15.5 23.93 15.5 23.93 15.25 24.18 15.25 24.18 15 24.43 15 24.43 14.5 24.68 14.5 24.68 14.25 24.93 14.25 24.93 13.75 25.18 13.75 25.18 13.5 25.43 13.5 25.43 13.25 25.68 13.25 25.68 12.75 25.93 12.75 25.93 12.5 26.18 12.5 26.18 12.25 26.43 12.25 26.43 11.75 26.68 11.75 26.68 11.5 26.93 11.5 26.93 11.25 27.18 11.25 27.18 10.75 27.43 10.75 27.43 10.5 27.68 10.5 27.68 10.25 27.93 10.25 27.93 9.75 28.18 9.75 28.18 9.5 28.43 9.5 28.43 9.25 28.68 9.25 28.68 9 28.93 9 28.93 8.5 29.18 8.5 29.18 8.25 29.43 8.25 29.43 8 29.68 8 29.68 7.5 29.93 7.5 29.93 7.25 30.18 7.25 30.18 7 30.43 7 30.43 6.75 30.68 6.75 30.68 6.25 30.93 6.25 30.93 6 31.18 6 31.18 5.75 31.43 5.75 31.43 5.25 31.68 5.25 31.68 5 31.93 5 31.93 4.75 32.18 4.75 32.18 4.5 32.43 4.5 32.43 4 32.68 4 32.68 3.75 32.93 3.75 32.93 3.5 29.43 3.5"/>
    </clipPath>
    <clipPath id="clippath-6">
      <polyline class="cls-131" points="32.93 3.5 32.93 3.75 32.68 3.75 32.68 4 32.43 4 32.43 4.5 32.18 4.5 32.18 4.75 31.93 4.75 31.93 5 31.68 5 31.68 5.25 31.43 5.25 31.43 5.75 31.18 5.75 31.18 6 30.93 6 30.93 6.25 30.68 6.25 30.68 6.75 30.43 6.75 30.43 7 30.18 7 30.18 7.25 29.93 7.25 29.93 7.5 29.68 7.5 29.68 8 29.43 8 29.43 8.25 29.18 8.25 29.18 8.5 28.93 8.5 28.93 9 28.68 9 28.68 9.25 28.43 9.25 28.43 9.5 28.18 9.5 28.18 9.75 27.93 9.75 27.93 10.25 27.68 10.25 27.68 10.5 27.43 10.5 27.43 10.75 27.18 10.75 27.18 11.25 26.93 11.25 26.93 11.5 26.68 11.5 26.68 11.75 26.43 11.75 26.43 12.25 26.18 12.25 26.18 12.5 25.93 12.5 25.93 12.75 25.68 12.75 25.68 13.25 25.43 13.25 25.43 13.5 25.18 13.5 25.18 13.75 24.93 13.75 24.93 14.25 24.68 14.25 24.68 14.5 24.43 14.5 24.43 15 24.18 15 24.18 15.25 23.93 15.25 23.93 15.5 23.68 15.5 23.68 16 23.43 16 23.43 16.25 23.18 16.25 23.18 16.5 22.93 16.5 22.93 17 22.68 17 22.68 17.25 22.43 17.25 22.43 17.75 22.18 17.75 22.18 18 21.93 18 21.93 18.25 21.68 18.25 21.68 18.75 21.43 18.75 21.43 19 21.18 19 21.18 19.5 20.93 19.5 20.93 19.75 20.68 19.75 20.68 20.25 20.43 20.25 20.43 20.5 31.93 20.5 31.93 20.25 32.18 20.25 32.18 20 32.43 20 32.43 19.5 32.68 19.5 32.68 19.25 32.93 19.25 32.93 18.75 33.18 18.75 33.18 18.5 33.43 18.5 33.43 18.25 33.68 18.25 33.68 17.75 33.93 17.75 33.93 17.5 34.18 17.5 34.18 17.25 34.43 17.25 34.43 16.75 34.68 16.75 34.68 16.5 34.93 16.5 34.93 16.25 35.18 16.25 35.18 15.75 35.43 15.75 35.43 15.5 35.68 15.5 35.68 15.25 35.93 15.25 35.93 15 36.18 15 36.18 14.5 36.43 14.5 36.43 14.25 36.68 14.25 36.68 14 36.93 14 36.93 13.5 37.18 13.5 37.18 13.25 37.43 13.25 37.43 13 37.68 13 37.68 12.75 37.93 12.75 37.93 12.25 38.18 12.25 38.18 12 38.43 12 38.43 11.75 38.68 11.75 38.68 11.25 38.93 11.25 38.93 11 39.18 11 39.18 10.75 39.43 10.75 39.43 3.5 32.93 3.5"/>
    </clipPath>
    <clipPath id="clippath-7">
      <polyline class="cls-131" points="39.18 10.75 39.18 11 38.93 11 38.93 11.25 38.68 11.25 38.68 11.75 38.43 11.75 38.43 12 38.18 12 38.18 12.25 37.93 12.25 37.93 12.75 37.68 12.75 37.68 13 37.43 13 37.43 13.25 37.18 13.25 37.18 13.5 36.93 13.5 36.93 14 36.68 14 36.68 14.25 36.43 14.25 36.43 14.5 36.18 14.5 36.18 15 35.93 15 35.93 15.25 35.68 15.25 35.68 15.5 35.43 15.5 35.43 15.75 35.18 15.75 35.18 16.25 34.93 16.25 34.93 16.5 34.68 16.5 34.68 16.75 34.43 16.75 34.43 17.25 34.18 17.25 34.18 17.5 33.93 17.5 33.93 17.75 33.68 17.75 33.68 18.25 33.43 18.25 33.43 18.5 33.18 18.5 33.18 18.75 32.93 18.75 32.93 19.25 32.68 19.25 32.68 19.5 32.43 19.5 32.43 20 32.18 20 32.18 20.25 31.93 20.25 31.93 20.5 39.43 20.5 39.43 10.75 39.18 10.75"/>
    </clipPath>
    <clipPath id="clippath-8">
      <polyline class="cls-131" points="42.43 3.5 42.43 6.75 42.68 6.75 42.68 6.5 42.93 6.5 42.93 6.25 43.18 6.25 43.18 5.75 43.43 5.75 43.43 5.5 43.68 5.5 43.68 5.25 43.93 5.25 43.93 5 44.18 5 44.18 4.75 44.43 4.75 44.43 4.5 44.68 4.5 44.68 4 44.93 4 44.93 3.75 45.18 3.75 45.18 3.5 42.43 3.5"/>
    </clipPath>
    <clipPath id="clippath-9">
      <polyline class="cls-131" points="45.18 3.5 45.18 3.75 44.93 3.75 44.93 4 44.68 4 44.68 4.5 44.43 4.5 44.43 4.75 44.18 4.75 44.18 5 43.93 5 43.93 5.25 43.68 5.25 43.68 5.5 43.43 5.5 43.43 5.75 43.18 5.75 43.18 6.25 42.93 6.25 42.93 6.5 42.68 6.5 42.68 6.75 42.43 6.75 42.43 20.5 43.68 20.5 43.68 20.25 43.93 20.25 43.93 20 44.18 20 44.18 19.5 44.43 19.5 44.43 19.25 44.68 19.25 44.68 19 44.93 19 44.93 18.75 45.18 18.75 45.18 18.25 45.43 18.25 45.43 18 45.68 18 45.68 17.75 45.93 17.75 45.93 17.5 46.18 17.5 46.18 17 46.43 17 46.43 16.75 46.68 16.75 46.68 16.5 46.93 16.5 46.93 16.25 47.18 16.25 47.18 15.75 47.43 15.75 47.43 15.5 47.68 15.5 47.68 15.25 47.93 15.25 47.93 15 48.18 15 48.18 14.5 48.43 14.5 48.43 14.25 48.68 14.25 48.68 14 48.93 14 48.93 13.75 49.18 13.75 49.18 13.25 49.43 13.25 49.43 13 49.68 13 49.68 12.75 49.93 12.75 49.93 12.5 50.18 12.5 50.18 12.25 50.43 12.25 50.43 11.75 50.68 11.75 50.68 11.5 50.93 11.5 50.93 11.25 51.18 11.25 51.18 11 51.43 11 51.43 10.75 51.68 10.75 51.68 10.5 51.93 10.5 51.93 10 52.18 10 52.18 9.75 52.43 9.75 52.43 9.5 52.68 9.5 52.68 9.25 52.93 9.25 52.93 9 53.18 9 53.18 8.75 53.43 8.75 53.43 8.25 53.68 8.25 53.68 8 53.93 8 53.93 7.75 54.18 7.75 54.18 7.5 54.43 7.5 54.43 7.25 54.68 7.25 54.68 7 54.93 7 54.93 6.75 55.18 6.75 55.18 6.25 55.43 6.25 55.43 6 55.68 6 55.68 5.75 55.93 5.75 55.93 5.5 56.18 5.5 56.18 5.25 56.43 5.25 56.43 5 56.68 5 56.68 4.75 56.93 4.75 56.93 4.5 57.18 4.5 57.18 4 57.43 4 57.43 3.75 57.68 3.75 57.68 3.5 45.18 3.5"/>
    </clipPath>
    <clipPath id="clippath-10">
      <polyline class="cls-131" points="57.68 3.5 57.68 3.75 57.43 3.75 57.43 4 57.18 4 57.18 4.5 56.93 4.5 56.93 4.75 56.68 4.75 56.68 5 56.43 5 56.43 5.25 56.18 5.25 56.18 5.5 55.93 5.5 55.93 5.75 55.68 5.75 55.68 6 55.43 6 55.43 6.25 55.18 6.25 55.18 6.75 54.93 6.75 54.93 7 54.68 7 54.68 7.25 54.43 7.25 54.43 7.5 54.18 7.5 54.18 7.75 53.93 7.75 53.93 8 53.68 8 53.68 8.25 53.43 8.25 53.43 8.75 53.18 8.75 53.18 9 52.93 9 52.93 9.25 52.68 9.25 52.68 9.5 52.43 9.5 52.43 9.75 52.18 9.75 52.18 10 51.93 10 51.93 10.5 51.68 10.5 51.68 10.75 51.43 10.75 51.43 11 51.18 11 51.18 11.25 50.93 11.25 50.93 11.5 50.68 11.5 50.68 11.75 50.43 11.75 50.43 12.25 50.18 12.25 50.18 12.5 49.93 12.5 49.93 12.75 49.68 12.75 49.68 13 49.43 13 49.43 13.25 49.18 13.25 49.18 13.75 48.93 13.75 48.93 14 48.68 14 48.68 14.25 48.43 14.25 48.43 14.5 48.18 14.5 48.18 15 47.93 15 47.93 15.25 47.68 15.25 47.68 15.5 47.43 15.5 47.43 15.75 47.18 15.75 47.18 16.25 46.93 16.25 46.93 16.5 46.68 16.5 46.68 16.75 46.43 16.75 46.43 17 46.18 17 46.18 17.5 45.93 17.5 45.93 17.75 45.68 17.75 45.68 18 45.43 18 45.43 18.25 45.18 18.25 45.18 18.75 44.93 18.75 44.93 19 44.68 19 44.68 19.25 44.43 19.25 44.43 19.5 44.18 19.5 44.18 20 43.93 20 43.93 20.25 43.68 20.25 43.68 20.5 54.18 20.5 54.18 20.25 54.43 20.25 54.43 20 54.68 20 54.68 19.5 54.93 19.5 54.93 19.25 55.18 19.25 55.18 19 55.43 19 55.43 18.75 55.68 18.75 55.68 18.5 55.93 18.5 55.93 18 56.18 18 56.18 17.75 56.43 17.75 56.43 17.5 56.68 17.5 56.68 17.25 56.93 17.25 56.93 17 57.18 17 57.18 16.5 57.43 16.5 57.43 16.25 57.68 16.25 57.68 16 57.93 16 57.93 15.75 58.18 15.75 58.18 15.5 58.43 15.5 58.43 15 58.68 15 58.68 14.75 58.93 14.75 58.93 14.5 59.18 14.5 59.18 14.25 59.43 14.25 59.43 14 59.68 14 59.68 13.75 59.93 13.75 59.93 13.5 60.18 13.5 60.18 13 60.43 13 60.43 12.75 60.68 12.75 60.68 12.5 60.93 12.5 60.93 12.25 61.18 12.25 61.18 12 61.43 12 61.43 11.75 61.68 11.75 61.68 11.5 61.93 11.5 61.93 11 62.18 11 62.18 10.75 62.43 10.75 62.43 3.5 57.68 3.5"/>
    </clipPath>
    <clipPath id="clippath-11">
      <polyline class="cls-131" points="62.18 10.75 62.18 11 61.93 11 61.93 11.5 61.68 11.5 61.68 11.75 61.43 11.75 61.43 12 61.18 12 61.18 12.25 60.93 12.25 60.93 12.5 60.68 12.5 60.68 12.75 60.43 12.75 60.43 13 60.18 13 60.18 13.5 59.93 13.5 59.93 13.75 59.68 13.75 59.68 14 59.43 14 59.43 14.25 59.18 14.25 59.18 14.5 58.93 14.5 58.93 14.75 58.68 14.75 58.68 15 58.43 15 58.43 15.5 58.18 15.5 58.18 15.75 57.93 15.75 57.93 16 57.68 16 57.68 16.25 57.43 16.25 57.43 16.5 57.18 16.5 57.18 17 56.93 17 56.93 17.25 56.68 17.25 56.68 17.5 56.43 17.5 56.43 17.75 56.18 17.75 56.18 18 55.93 18 55.93 18.5 55.68 18.5 55.68 18.75 55.43 18.75 55.43 19 55.18 19 55.18 19.25 54.93 19.25 54.93 19.5 54.68 19.5 54.68 20 54.43 20 54.43 20.25 54.18 20.25 54.18 20.5 62.43 20.5 62.43 10.75 62.18 10.75"/>
    </clipPath>
    <clipPath id="clippath-12">
      <polyline class="cls-131" points="64.43 3.5 64.43 8.25 64.68 8.25 64.68 8 64.93 8 64.93 7.75 65.18 7.75 65.18 7.5 65.43 7.5 65.43 7.25 65.68 7.25 65.68 7 65.93 7 65.93 6.75 66.18 6.75 66.18 6.5 66.43 6.5 66.43 6.25 66.68 6.25 66.68 6 66.93 6 66.93 5.75 67.18 5.75 67.18 5.5 67.43 5.5 67.43 5.25 67.68 5.25 67.68 5 67.93 5 67.93 4.75 68.18 4.75 68.18 4.25 68.43 4.25 68.43 4 68.68 4 68.68 3.75 68.93 3.75 68.93 3.5 64.43 3.5"/>
    </clipPath>
    <clipPath id="clippath-13">
      <polyline class="cls-131" points="68.93 3.5 68.93 3.75 68.68 3.75 68.68 4 68.43 4 68.43 4.25 68.18 4.25 68.18 4.75 67.93 4.75 67.93 5 67.68 5 67.68 5.25 67.43 5.25 67.43 5.5 67.18 5.5 67.18 5.75 66.93 5.75 66.93 6 66.68 6 66.68 6.25 66.43 6.25 66.43 6.5 66.18 6.5 66.18 6.75 65.93 6.75 65.93 7 65.68 7 65.68 7.25 65.43 7.25 65.43 7.5 65.18 7.5 65.18 7.75 64.93 7.75 64.93 8 64.68 8 64.68 8.25 64.43 8.25 64.43 20.5 65.68 20.5 65.68 20.25 65.93 20.25 65.93 20 66.18 20 66.18 19.75 66.43 19.75 66.43 19.25 66.68 19.25 66.68 19 66.93 19 66.93 18.75 67.18 18.75 67.18 18.5 67.43 18.5 67.43 18.25 67.68 18.25 67.68 18 67.93 18 67.93 17.75 68.18 17.75 68.18 17.25 68.43 17.25 68.43 17 68.68 17 68.68 16.75 68.93 16.75 68.93 16.5 69.18 16.5 69.18 16.25 69.43 16.25 69.43 16 69.68 16 69.68 15.75 69.93 15.75 69.93 15.5 70.18 15.5 70.18 15.25 70.43 15.25 70.43 14.75 70.68 14.75 70.68 14.5 70.93 14.5 70.93 14.25 71.18 14.25 71.18 14 71.43 14 71.43 13.75 71.68 13.75 71.68 13.5 71.93 13.5 71.93 13.25 72.18 13.25 72.18 13 72.43 13 72.43 12.75 72.68 12.75 72.68 12.5 72.93 12.5 72.93 12.25 73.18 12.25 73.18 12 73.43 12 73.43 11.75 73.68 11.75 73.68 11.25 73.93 11.25 73.93 11 74.18 11 74.18 10.75 74.43 10.75 74.43 10.5 74.68 10.5 74.68 10.25 74.93 10.25 74.93 10 75.18 10 75.18 9.75 75.43 9.75 75.43 9.5 75.68 9.5 75.68 9.25 75.93 9.25 75.93 9 76.18 9 76.18 8.75 76.43 8.75 76.43 8.5 76.68 8.5 76.68 8.25 76.93 8.25 76.93 8 77.18 8 77.18 7.75 77.43 7.75 77.43 7.5 77.68 7.5 77.68 7.25 77.93 7.25 77.93 7 78.18 7 78.18 6.75 78.43 6.75 78.43 6.5 78.68 6.5 78.68 6.25 78.93 6.25 78.93 6 79.18 6 79.18 5.75 79.43 5.75 79.43 5.5 79.68 5.5 79.68 5.25 79.93 5.25 79.93 5 80.18 5 80.18 4.75 80.43 4.75 80.43 4.5 80.68 4.5 80.68 4.25 80.93 4.25 80.93 4 81.18 4 81.18 3.75 81.43 3.75 81.43 3.5 68.93 3.5"/>
    </clipPath>
    <clipPath id="clippath-14">
      <polyline class="cls-131" points="81.43 3.5 81.43 3.75 81.18 3.75 81.18 4 80.93 4 80.93 4.25 80.68 4.25 80.68 4.5 80.43 4.5 80.43 4.75 80.18 4.75 80.18 5 79.93 5 79.93 5.25 79.68 5.25 79.68 5.5 79.43 5.5 79.43 5.75 79.18 5.75 79.18 6 78.93 6 78.93 6.25 78.68 6.25 78.68 6.5 78.43 6.5 78.43 6.75 78.18 6.75 78.18 7 77.93 7 77.93 7.25 77.68 7.25 77.68 7.5 77.43 7.5 77.43 7.75 77.18 7.75 77.18 8 76.93 8 76.93 8.25 76.68 8.25 76.68 8.5 76.43 8.5 76.43 8.75 76.18 8.75 76.18 9 75.93 9 75.93 9.25 75.68 9.25 75.68 9.5 75.43 9.5 75.43 9.75 75.18 9.75 75.18 10 74.93 10 74.93 10.25 74.68 10.25 74.68 10.5 74.43 10.5 74.43 10.75 74.18 10.75 74.18 11 73.93 11 73.93 11.25 73.68 11.25 73.68 11.75 73.43 11.75 73.43 12 73.18 12 73.18 12.25 72.93 12.25 72.93 12.5 72.68 12.5 72.68 12.75 72.43 12.75 72.43 13 72.18 13 72.18 13.25 71.93 13.25 71.93 13.5 71.68 13.5 71.68 13.75 71.43 13.75 71.43 14 71.18 14 71.18 14.25 70.93 14.25 70.93 14.5 70.68 14.5 70.68 14.75 70.43 14.75 70.43 15.25 70.18 15.25 70.18 15.5 69.93 15.5 69.93 15.75 69.68 15.75 69.68 16 69.43 16 69.43 16.25 69.18 16.25 69.18 16.5 68.93 16.5 68.93 16.75 68.68 16.75 68.68 17 68.43 17 68.43 17.25 68.18 17.25 68.18 17.75 67.93 17.75 67.93 18 67.68 18 67.68 18.25 67.43 18.25 67.43 18.5 67.18 18.5 67.18 18.75 66.93 18.75 66.93 19 66.68 19 66.68 19.25 66.43 19.25 66.43 19.75 66.18 19.75 66.18 20 65.93 20 65.93 20.25 65.68 20.25 65.68 20.5 76.93 20.5 76.93 20.25 77.18 20.25 77.18 20 77.43 20 77.43 19.75 77.68 19.75 77.68 19.5 77.93 19.5 77.93 19.25 78.18 19.25 78.18 18.75 78.43 18.75 78.43 18.5 78.68 18.5 78.68 18.25 78.93 18.25 78.93 18 79.18 18 79.18 17.75 79.43 17.75 79.43 17.5 79.68 17.5 79.68 17.25 79.93 17.25 79.93 17 80.18 17 80.18 16.75 80.43 16.75 80.43 16.5 80.68 16.5 80.68 16.25 80.93 16.25 80.93 16 81.18 16 81.18 15.75 81.43 15.75 81.43 15.5 81.68 15.5 81.68 15.25 81.93 15.25 81.93 15 82.18 15 82.18 14.75 82.43 14.75 82.43 3.5 81.43 3.5"/>
    </clipPath>
    <clipPath id="clippath-15">
      <polyline class="cls-131" points="82.18 14.75 82.18 15 81.93 15 81.93 15.25 81.68 15.25 81.68 15.5 81.43 15.5 81.43 15.75 81.18 15.75 81.18 16 80.93 16 80.93 16.25 80.68 16.25 80.68 16.5 80.43 16.5 80.43 16.75 80.18 16.75 80.18 17 79.93 17 79.93 17.25 79.68 17.25 79.68 17.5 79.43 17.5 79.43 17.75 79.18 17.75 79.18 18 78.93 18 78.93 18.25 78.68 18.25 78.68 18.5 78.43 18.5 78.43 18.75 78.18 18.75 78.18 19.25 77.93 19.25 77.93 19.5 77.68 19.5 77.68 19.75 77.43 19.75 77.43 20 77.18 20 77.18 20.25 76.93 20.25 76.93 20.5 82.43 20.5 82.43 14.75 82.18 14.75"/>
    </clipPath>
    <clipPath id="clippath-16">
      <polyline class="cls-131" points="105.43 3.5 105.43 20.5 108.18 20.5 108.18 20.25 108.43 20.25 108.43 20 108.93 20 108.93 19.75 109.18 19.75 109.18 19.5 109.43 19.5 109.43 19.25 109.68 19.25 109.68 19 109.93 19 109.93 18.75 110.18 18.75 110.18 18.5 110.43 18.5 110.43 18.25 110.93 18.25 110.93 18 111.18 18 111.18 17.75 111.43 17.75 111.43 17.5 111.68 17.5 111.68 17.25 111.93 17.25 111.93 17 112.18 17 112.18 16.75 112.68 16.75 112.68 16.5 112.93 16.5 112.93 16.25 113.18 16.25 113.18 16 113.43 16 113.43 15.75 113.68 15.75 113.68 15.5 113.93 15.5 113.93 15.25 114.43 15.25 114.43 15 114.68 15 114.68 14.75 114.93 14.75 114.93 14.5 115.18 14.5 115.18 14.25 115.43 14.25 115.43 14 115.93 14 115.93 13.75 116.18 13.75 116.18 13.5 116.43 13.5 116.43 13.25 116.68 13.25 116.68 13 117.18 13 117.18 12.75 117.43 12.75 117.43 12.5 117.68 12.5 117.68 12.25 117.93 12.25 117.93 12 118.43 12 118.43 11.75 118.68 11.75 118.68 11.5 118.93 11.5 118.93 11.25 119.18 11.25 119.18 11 119.68 11 119.68 10.75 119.93 10.75 119.93 10.5 120.18 10.5 120.18 10.25 120.68 10.25 120.68 10 120.93 10 120.93 9.75 121.18 9.75 121.18 9.5 121.43 9.5 121.43 9.25 121.93 9.25 121.93 9 122.18 9 122.18 8.75 122.43 8.75 122.43 8.5 122.93 8.5 122.93 8.25 123.18 8.25 123.18 8 123.43 8 123.43 7.75 123.93 7.75 123.93 7.5 124.18 7.5 124.18 7.25 124.43 7.25 124.43 7 124.93 7 124.93 6.75 125.18 6.75 125.18 6.5 125.43 6.5 125.43 3.5 105.43 3.5"/>
    </clipPath>
    <clipPath id="clippath-17">
      <polyline class="cls-131" points="125.18 6.5 125.18 6.75 124.93 6.75 124.93 7 124.43 7 124.43 7.25 124.18 7.25 124.18 7.5 123.93 7.5 123.93 7.75 123.43 7.75 123.43 8 123.18 8 123.18 8.25 122.93 8.25 122.93 8.5 122.43 8.5 122.43 8.75 122.18 8.75 122.18 9 121.93 9 121.93 9.25 121.43 9.25 121.43 9.5 121.18 9.5 121.18 9.75 120.93 9.75 120.93 10 120.68 10 120.68 10.25 120.18 10.25 120.18 10.5 119.93 10.5 119.93 10.75 119.68 10.75 119.68 11 119.18 11 119.18 11.25 118.93 11.25 118.93 11.5 118.68 11.5 118.68 11.75 118.43 11.75 118.43 12 117.93 12 117.93 12.25 117.68 12.25 117.68 12.5 117.43 12.5 117.43 12.75 117.18 12.75 117.18 13 116.68 13 116.68 13.25 116.43 13.25 116.43 13.5 116.18 13.5 116.18 13.75 115.93 13.75 115.93 14 115.43 14 115.43 14.25 115.18 14.25 115.18 14.5 114.93 14.5 114.93 14.75 114.68 14.75 114.68 15 114.43 15 114.43 15.25 113.93 15.25 113.93 15.5 113.68 15.5 113.68 15.75 113.43 15.75 113.43 16 113.18 16 113.18 16.25 112.93 16.25 112.93 16.5 112.68 16.5 112.68 16.75 112.18 16.75 112.18 17 111.93 17 111.93 17.25 111.68 17.25 111.68 17.5 111.43 17.5 111.43 17.75 111.18 17.75 111.18 18 110.93 18 110.93 18.25 110.43 18.25 110.43 18.5 110.18 18.5 110.18 18.75 109.93 18.75 109.93 19 109.68 19 109.68 19.25 109.43 19.25 109.43 19.5 109.18 19.5 109.18 19.75 108.93 19.75 108.93 20 108.43 20 108.43 20.25 108.18 20.25 108.18 20.5 123.93 20.5 123.93 20.25 124.18 20.25 124.18 20 124.43 20 124.43 19.75 124.93 19.75 124.93 19.5 125.18 19.5 125.18 19.25 125.43 19.25 125.43 6.5 125.18 6.5"/>
    </clipPath>
    <clipPath id="clippath-18">
      <polyline class="cls-131" points="125.18 19.25 125.18 19.5 124.93 19.5 124.93 19.75 124.43 19.75 124.43 20 124.18 20 124.18 20.25 123.93 20.25 123.93 20.5 125.43 20.5 125.43 19.25 125.18 19.25"/>
    </clipPath>
    <clipPath id="clippath-19">
      <polyline class="cls-131" points="138.43 3.5 138.43 9.75 138.68 9.75 138.68 9.5 138.93 9.5 138.93 9.25 139.43 9.25 139.43 9 139.68 9 139.68 8.75 140.18 8.75 140.18 8.5 140.43 8.5 140.43 8.25 140.93 8.25 140.93 8 141.18 8 141.18 7.75 141.68 7.75 141.68 7.5 141.93 7.5 141.93 7.25 142.43 7.25 142.43 7 142.93 7 142.93 6.75 143.18 6.75 143.18 6.5 143.68 6.5 143.68 6.25 143.93 6.25 143.93 6 144.43 6 144.43 5.75 144.93 5.75 144.93 5.5 145.18 5.5 145.18 5.25 145.68 5.25 145.68 5 145.93 5 145.93 4.75 146.43 4.75 146.43 4.5 146.93 4.5 146.93 4.25 147.18 4.25 147.18 4 147.68 4 147.68 3.75 148.18 3.75 148.18 3.5 138.43 3.5"/>
    </clipPath>
    <clipPath id="clippath-20">
      <polyline class="cls-131" points="148.18 3.5 148.18 3.75 147.68 3.75 147.68 4 147.18 4 147.18 4.25 146.93 4.25 146.93 4.5 146.43 4.5 146.43 4.75 145.93 4.75 145.93 5 145.68 5 145.68 5.25 145.18 5.25 145.18 5.5 144.93 5.5 144.93 5.75 144.43 5.75 144.43 6 143.93 6 143.93 6.25 143.68 6.25 143.68 6.5 143.18 6.5 143.18 6.75 142.93 6.75 142.93 7 142.43 7 142.43 7.25 141.93 7.25 141.93 7.5 141.68 7.5 141.68 7.75 141.18 7.75 141.18 8 140.93 8 140.93 8.25 140.43 8.25 140.43 8.5 140.18 8.5 140.18 8.75 139.68 8.75 139.68 9 139.43 9 139.43 9.25 138.93 9.25 138.93 9.5 138.68 9.5 138.68 9.75 138.43 9.75 138.43 20.5 140.18 20.5 140.18 20.25 140.68 20.25 140.68 20 140.93 20 140.93 19.75 141.43 19.75 141.43 19.5 141.68 19.5 141.68 19.25 141.93 19.25 141.93 19 142.43 19 142.43 18.75 142.68 18.75 142.68 18.5 143.18 18.5 143.18 18.25 143.43 18.25 143.43 18 143.93 18 143.93 17.75 144.18 17.75 144.18 17.5 144.68 17.5 144.68 17.25 144.93 17.25 144.93 17 145.43 17 145.43 16.75 145.68 16.75 145.68 16.5 146.18 16.5 146.18 16.25 146.68 16.25 146.68 16 146.93 16 146.93 15.75 147.43 15.75 147.43 15.5 147.68 15.5 147.68 15.25 148.18 15.25 148.18 15 148.43 15 148.43 14.75 148.93 14.75 148.93 14.5 149.43 14.5 149.43 14.25 149.68 14.25 149.68 14 150.18 14 150.18 13.75 150.43 13.75 150.43 13.5 150.93 13.5 150.93 13.25 151.43 13.25 151.43 13 151.68 13 151.68 12.75 152.18 12.75 152.18 12.5 152.68 12.5 152.68 12.25 152.93 12.25 152.93 12 153.43 12 153.43 11.75 153.93 11.75 153.93 11.5 154.43 11.5 154.43 11.25 154.68 11.25 154.68 11 155.18 11 155.18 10.75 155.68 10.75 155.68 10.5 156.18 10.5 156.18 10.25 156.43 10.25 156.43 10 156.93 10 156.93 9.75 157.43 9.75 157.43 9.5 157.93 9.5 157.93 9.25 158.18 9.25 158.18 9 158.68 9 158.68 8.75 159.18 8.75 159.18 8.5 159.68 8.5 159.68 8.25 160.18 8.25 160.18 8 160.68 8 160.68 7.75 161.18 7.75 161.18 7.5 161.43 7.5 161.43 7.25 161.93 7.25 161.93 7 162.43 7 162.43 3.5 148.18 3.5"/>
    </clipPath>
    <clipPath id="clippath-21">
      <polyline class="cls-131" points="161.93 7 161.93 7.25 161.43 7.25 161.43 7.5 161.18 7.5 161.18 7.75 160.68 7.75 160.68 8 160.18 8 160.18 8.25 159.68 8.25 159.68 8.5 159.18 8.5 159.18 8.75 158.68 8.75 158.68 9 158.18 9 158.18 9.25 157.93 9.25 157.93 9.5 157.43 9.5 157.43 9.75 156.93 9.75 156.93 10 156.43 10 156.43 10.25 156.18 10.25 156.18 10.5 155.68 10.5 155.68 10.75 155.18 10.75 155.18 11 154.68 11 154.68 11.25 154.43 11.25 154.43 11.5 153.93 11.5 153.93 11.75 153.43 11.75 153.43 12 152.93 12 152.93 12.25 152.68 12.25 152.68 12.5 152.18 12.5 152.18 12.75 151.68 12.75 151.68 13 151.43 13 151.43 13.25 150.93 13.25 150.93 13.5 150.43 13.5 150.43 13.75 150.18 13.75 150.18 14 149.68 14 149.68 14.25 149.43 14.25 149.43 14.5 148.93 14.5 148.93 14.75 148.43 14.75 148.43 15 148.18 15 148.18 15.25 147.68 15.25 147.68 15.5 147.43 15.5 147.43 15.75 146.93 15.75 146.93 16 146.68 16 146.68 16.25 146.18 16.25 146.18 16.5 145.68 16.5 145.68 16.75 145.43 16.75 145.43 17 144.93 17 144.93 17.25 144.68 17.25 144.68 17.5 144.18 17.5 144.18 17.75 143.93 17.75 143.93 18 143.43 18 143.43 18.25 143.18 18.25 143.18 18.5 142.68 18.5 142.68 18.75 142.43 18.75 142.43 19 141.93 19 141.93 19.25 141.68 19.25 141.68 19.5 141.43 19.5 141.43 19.75 140.93 19.75 140.93 20 140.68 20 140.68 20.25 140.18 20.25 140.18 20.5 151.43 20.5 151.43 20.25 151.93 20.25 151.93 20 152.18 20 152.18 19.75 152.68 19.75 152.68 19.5 152.93 19.5 152.93 19.25 153.43 19.25 153.43 19 153.93 19 153.93 18.75 154.18 18.75 154.18 18.5 154.68 18.5 154.68 18.25 155.18 18.25 155.18 18 155.43 18 155.43 17.75 155.93 17.75 155.93 17.5 156.43 17.5 156.43 17.25 156.68 17.25 156.68 17 157.18 17 157.18 16.75 157.68 16.75 157.68 16.5 158.18 16.5 158.18 16.25 158.43 16.25 158.43 16 158.93 16 158.93 15.75 159.43 15.75 159.43 15.5 159.93 15.5 159.93 15.25 160.18 15.25 160.18 15 160.68 15 160.68 14.75 161.18 14.75 161.18 14.5 161.68 14.5 161.68 14.25 162.18 14.25 162.18 14 162.43 14 162.43 7 161.93 7"/>
    </clipPath>
    <clipPath id="clippath-22">
      <polyline class="cls-131" points="162.18 14 162.18 14.25 161.68 14.25 161.68 14.5 161.18 14.5 161.18 14.75 160.68 14.75 160.68 15 160.18 15 160.18 15.25 159.93 15.25 159.93 15.5 159.43 15.5 159.43 15.75 158.93 15.75 158.93 16 158.43 16 158.43 16.25 158.18 16.25 158.18 16.5 157.68 16.5 157.68 16.75 157.18 16.75 157.18 17 156.68 17 156.68 17.25 156.43 17.25 156.43 17.5 155.93 17.5 155.93 17.75 155.43 17.75 155.43 18 155.18 18 155.18 18.25 154.68 18.25 154.68 18.5 154.18 18.5 154.18 18.75 153.93 18.75 153.93 19 153.43 19 153.43 19.25 152.93 19.25 152.93 19.5 152.68 19.5 152.68 19.75 152.18 19.75 152.18 20 151.93 20 151.93 20.25 151.43 20.25 151.43 20.5 156.68 20.5 156.68 20.25 156.93 20.25 156.93 20 157.43 20 157.43 19.75 157.93 19.75 157.93 19.5 158.18 19.5 158.18 19.25 158.68 19.25 158.68 19 159.18 19 159.18 18.75 159.68 18.75 159.68 18.5 159.93 18.5 159.93 18.25 160.43 18.25 160.43 18 160.93 18 160.93 17.75 161.43 17.75 161.43 17.5 161.68 17.5 161.68 17.25 162.18 17.25 162.18 17 162.43 17 162.43 14 162.18 14"/>
    </clipPath>
    <clipPath id="clippath-23">
      <polyline class="cls-131" points="162.18 17 162.18 17.25 161.68 17.25 161.68 17.5 161.43 17.5 161.43 17.75 160.93 17.75 160.93 18 160.43 18 160.43 18.25 159.93 18.25 159.93 18.5 159.68 18.5 159.68 18.75 159.18 18.75 159.18 19 158.68 19 158.68 19.25 158.18 19.25 158.18 19.5 157.93 19.5 157.93 19.75 157.43 19.75 157.43 20 156.93 20 156.93 20.25 156.68 20.25 156.68 20.5 162.43 20.5 162.43 17 162.18 17"/>
    </clipPath>
    <clipPath id="clippath-24">
      <polyline class="cls-131" points="174.43 3.5 174.43 8 174.68 8 174.68 7.75 175.18 7.75 175.18 7.5 175.68 7.5 175.68 7.25 176.43 7.25 176.43 7 176.93 7 176.93 6.75 177.43 6.75 177.43 6.5 177.93 6.5 177.93 6.25 178.68 6.25 178.68 6 179.18 6 179.18 5.75 179.93 5.75 179.93 5.5 180.43 5.5 180.43 5.25 180.93 5.25 180.93 5 181.68 5 181.68 4.75 182.18 4.75 182.18 4.5 182.93 4.5 182.93 4.25 183.43 4.25 183.43 4 184.18 4 184.18 3.75 184.68 3.75 184.68 3.5 174.43 3.5"/>
    </clipPath>
    <clipPath id="clippath-25">
      <polyline class="cls-131" points="184.68 3.5 184.68 3.75 184.18 3.75 184.18 4 183.43 4 183.43 4.25 182.93 4.25 182.93 4.5 182.18 4.5 182.18 4.75 181.68 4.75 181.68 5 180.93 5 180.93 5.25 180.43 5.25 180.43 5.5 179.93 5.5 179.93 5.75 179.18 5.75 179.18 6 178.68 6 178.68 6.25 177.93 6.25 177.93 6.5 177.43 6.5 177.43 6.75 176.93 6.75 176.93 7 176.43 7 176.43 7.25 175.68 7.25 175.68 7.5 175.18 7.5 175.18 7.75 174.68 7.75 174.68 8 174.43 8 174.43 11 174.68 11 174.68 10.75 175.18 10.75 175.18 10.5 175.68 10.5 175.68 10.25 176.18 10.25 176.18 10 176.68 10 176.68 9.75 177.43 9.75 177.43 9.5 177.93 9.5 177.93 9.25 178.43 9.25 178.43 9 179.18 9 179.18 8.75 179.68 8.75 179.68 8.5 180.18 8.5 180.18 8.25 180.93 8.25 180.93 8 181.43 8 181.43 7.75 182.18 7.75 182.18 7.5 182.68 7.5 182.68 7.25 183.18 7.25 183.18 7 183.93 7 183.93 6.75 184.43 6.75 184.43 6.5 185.18 6.5 185.18 6.25 185.93 6.25 185.93 6 186.43 6 186.43 5.75 187.18 5.75 187.18 5.5 187.93 5.5 187.93 5.25 188.43 5.25 188.43 5 189.18 5 189.18 4.75 189.93 4.75 189.93 4.5 190.68 4.5 190.68 4.25 191.18 4.25 191.18 4 191.93 4 191.93 3.75 192.68 3.75 192.68 3.5 184.68 3.5"/>
    </clipPath>
    <clipPath id="clippath-26">
      <polyline class="cls-131" points="192.68 3.5 192.68 3.75 191.93 3.75 191.93 4 191.18 4 191.18 4.25 190.68 4.25 190.68 4.5 189.93 4.5 189.93 4.75 189.18 4.75 189.18 5 188.43 5 188.43 5.25 187.93 5.25 187.93 5.5 187.18 5.5 187.18 5.75 186.43 5.75 186.43 6 185.93 6 185.93 6.25 185.18 6.25 185.18 6.5 184.43 6.5 184.43 6.75 183.93 6.75 183.93 7 183.18 7 183.18 7.25 182.68 7.25 182.68 7.5 182.18 7.5 182.18 7.75 181.43 7.75 181.43 8 180.93 8 180.93 8.25 180.18 8.25 180.18 8.5 179.68 8.5 179.68 8.75 179.18 8.75 179.18 9 178.43 9 178.43 9.25 177.93 9.25 177.93 9.5 177.43 9.5 177.43 9.75 176.68 9.75 176.68 10 176.18 10 176.18 10.25 175.68 10.25 175.68 10.5 175.18 10.5 175.18 10.75 174.68 10.75 174.68 11 174.43 11 174.43 20.5 176.18 20.5 176.18 20.25 176.68 20.25 176.68 20 177.43 20 177.43 19.75 177.93 19.75 177.93 19.5 178.43 19.5 178.43 19.25 178.93 19.25 178.93 19 179.43 19 179.43 18.75 179.93 18.75 179.93 18.5 180.68 18.5 180.68 18.25 181.18 18.25 181.18 18 181.68 18 181.68 17.75 182.18 17.75 182.18 17.5 182.93 17.5 182.93 17.25 183.43 17.25 183.43 17 184.18 17 184.18 16.75 184.68 16.75 184.68 16.5 185.18 16.5 185.18 16.25 185.93 16.25 185.93 16 186.43 16 186.43 15.75 187.18 15.75 187.18 15.5 187.68 15.5 187.68 15.25 188.43 15.25 188.43 15 188.93 15 188.93 14.75 189.68 14.75 189.68 14.5 190.43 14.5 190.43 14.25 190.93 14.25 190.93 14 191.68 14 191.68 13.75 192.43 13.75 192.43 13.5 192.93 13.5 192.93 13.25 193.68 13.25 193.68 13 194.43 13 194.43 3.5 192.68 3.5"/>
    </clipPath>
    <clipPath id="clippath-27">
      <polyline class="cls-131" points="193.68 13 193.68 13.25 192.93 13.25 192.93 13.5 192.43 13.5 192.43 13.75 191.68 13.75 191.68 14 190.93 14 190.93 14.25 190.43 14.25 190.43 14.5 189.68 14.5 189.68 14.75 188.93 14.75 188.93 15 188.43 15 188.43 15.25 187.68 15.25 187.68 15.5 187.18 15.5 187.18 15.75 186.43 15.75 186.43 16 185.93 16 185.93 16.25 185.18 16.25 185.18 16.5 184.68 16.5 184.68 16.75 184.18 16.75 184.18 17 183.43 17 183.43 17.25 182.93 17.25 182.93 17.5 182.18 17.5 182.18 17.75 181.68 17.75 181.68 18 181.18 18 181.18 18.25 180.68 18.25 180.68 18.5 179.93 18.5 179.93 18.75 179.43 18.75 179.43 19 178.93 19 178.93 19.25 178.43 19.25 178.43 19.5 177.93 19.5 177.93 19.75 177.43 19.75 177.43 20 176.68 20 176.68 20.25 176.18 20.25 176.18 20.5 194.43 20.5 194.43 13 193.68 13"/>
    </clipPath>
    <clipPath id="clippath-28">
      <polyline class="cls-131" points="198.43 3.5 198.43 11.5 198.93 11.5 198.93 11.25 199.68 11.25 199.68 11 200.43 11 200.43 10.75 201.43 10.75 201.43 10.5 202.18 10.5 202.18 10.25 202.93 10.25 202.93 10 203.93 10 203.93 9.75 204.68 9.75 204.68 9.5 205.68 9.5 205.68 9.25 206.68 9.25 206.68 9 207.43 9 207.43 8.75 208.43 8.75 208.43 8.5 209.43 8.5 209.43 8.25 210.43 8.25 210.43 8 211.43 8 211.43 7.75 212.43 7.75 212.43 7.5 213.68 7.5 213.68 7.25 214.43 7.25 214.43 3.5 198.43 3.5"/>
    </clipPath>
    <clipPath id="clippath-29">
      <polyline class="cls-131" points="213.68 7.25 213.68 7.5 212.43 7.5 212.43 7.75 211.43 7.75 211.43 8 210.43 8 210.43 8.25 209.43 8.25 209.43 8.5 208.43 8.5 208.43 8.75 207.43 8.75 207.43 9 206.68 9 206.68 9.25 205.68 9.25 205.68 9.5 204.68 9.5 204.68 9.75 203.93 9.75 203.93 10 202.93 10 202.93 10.25 202.18 10.25 202.18 10.5 201.43 10.5 201.43 10.75 200.43 10.75 200.43 11 199.68 11 199.68 11.25 198.93 11.25 198.93 11.5 198.43 11.5 198.43 20.5 201.68 20.5 201.68 20.25 202.43 20.25 202.43 20 203.18 20 203.18 19.75 204.18 19.75 204.18 19.5 204.93 19.5 204.93 19.25 205.68 19.25 205.68 19 206.68 19 206.68 18.75 207.43 18.75 207.43 18.5 208.43 18.5 208.43 18.25 209.43 18.25 209.43 18 210.18 18 210.18 17.75 211.18 17.75 211.18 17.5 212.18 17.5 212.18 17.25 213.18 17.25 213.18 17 214.18 17 214.18 16.75 214.43 16.75 214.43 7.25 213.68 7.25"/>
    </clipPath>
    <clipPath id="clippath-30">
      <polyline class="cls-131" points="214.18 16.75 214.18 17 213.18 17 213.18 17.25 212.18 17.25 212.18 17.5 211.18 17.5 211.18 17.75 210.18 17.75 210.18 18 209.43 18 209.43 18.25 208.43 18.25 208.43 18.5 207.43 18.5 207.43 18.75 206.68 18.75 206.68 19 205.68 19 205.68 19.25 204.93 19.25 204.93 19.5 204.18 19.5 204.18 19.75 203.18 19.75 203.18 20 202.43 20 202.43 20.25 201.68 20.25 201.68 20.5 214.43 20.5 214.43 16.75 214.18 16.75"/>
    </clipPath>
    <clipPath id="clippath-31">
      <polyline class="cls-131" points="217.43 3.5 217.43 6.5 218.18 6.5 218.18 6.25 219.43 6.25 219.43 6 220.68 6 220.68 5.75 222.18 5.75 222.18 5.5 223.68 5.5 223.68 5.25 225.18 5.25 225.18 5 226.68 5 226.68 4.75 228.43 4.75 228.43 4.5 230.18 4.5 230.18 4.25 232.18 4.25 232.18 4 234.43 4 234.43 3.75 236.93 3.75 236.93 3.5 217.43 3.5"/>
    </clipPath>
    <clipPath id="clippath-32">
      <polyline class="cls-131" points="236.93 3.5 236.93 3.75 234.43 3.75 234.43 4 232.18 4 232.18 4.25 230.18 4.25 230.18 4.5 228.43 4.5 228.43 4.75 226.68 4.75 226.68 5 225.18 5 225.18 5.25 223.68 5.25 223.68 5.5 222.18 5.5 222.18 5.75 220.68 5.75 220.68 6 219.43 6 219.43 6.25 218.18 6.25 218.18 6.5 217.43 6.5 217.43 16.25 217.68 16.25 217.68 16 218.68 16 218.68 15.75 219.93 15.75 219.93 15.5 221.18 15.5 221.18 15.25 222.43 15.25 222.43 15 223.93 15 223.93 14.75 225.43 14.75 225.43 14.5 226.93 14.5 226.93 14.25 228.43 14.25 228.43 14 230.18 14 230.18 13.75 232.18 13.75 232.18 13.5 234.18 13.5 234.18 13.25 236.43 13.25 236.43 13 239.18 13 239.18 12.75 240.43 12.75 240.43 3.5 236.93 3.5"/>
    </clipPath>
    <clipPath id="clippath-33">
      <polyline class="cls-131" points="239.18 12.75 239.18 13 236.43 13 236.43 13.25 234.18 13.25 234.18 13.5 232.18 13.5 232.18 13.75 230.18 13.75 230.18 14 228.43 14 228.43 14.25 226.93 14.25 226.93 14.5 225.43 14.5 225.43 14.75 223.93 14.75 223.93 15 222.43 15 222.43 15.25 221.18 15.25 221.18 15.5 219.93 15.5 219.93 15.75 218.68 15.75 218.68 16 217.68 16 217.68 16.25 217.43 16.25 217.43 20.5 240.43 20.5 240.43 12.75 239.18 12.75"/>
    </clipPath>
    <clipPath id="clippath-34">
      <polyline class="cls-131" points="253.43 3.5 253.43 12.25 259.43 12.25 259.43 12.5 264.43 12.5 264.43 12.75 267.68 12.75 267.68 13 270.43 13 270.43 13.25 272.68 13.25 272.68 13.5 274.43 13.5 274.43 4 272.43 4 272.43 3.75 269.93 3.75 269.93 3.5 253.43 3.5"/>
    </clipPath>
    <clipPath id="clippath-35">
      <polyline class="cls-131" points="269.93 3.5 269.93 3.75 272.43 3.75 272.43 4 274.43 4 274.43 3.5 269.93 3.5"/>
    </clipPath>
    <clipPath id="clippath-36">
      <polyline class="cls-131" points="253.43 12.25 253.43 20.5 274.43 20.5 274.43 13.5 272.68 13.5 272.68 13.25 270.43 13.25 270.43 13 267.68 13 267.68 12.75 264.43 12.75 264.43 12.5 259.43 12.5 259.43 12.25 253.43 12.25"/>
    </clipPath>
    <clipPath id="clippath-37">
      <polyline class="cls-131" points="278.43 3.5 278.43 4.75 280.18 4.75 280.18 5 281.93 5 281.93 5.25 283.43 5.25 283.43 5.5 284.93 5.5 284.93 5.75 286.18 5.75 286.18 6 287.43 6 287.43 6.25 288.68 6.25 288.68 6.5 289.93 6.5 289.93 6.75 291.18 6.75 291.18 7 292.43 7 292.43 7.25 293.43 7.25 293.43 3.5 278.43 3.5"/>
    </clipPath>
    <clipPath id="clippath-38">
      <polyline class="cls-131" points="278.43 4.75 278.43 14.25 280.18 14.25 280.18 14.5 281.68 14.5 281.68 14.75 283.18 14.75 283.18 15 284.43 15 284.43 15.25 285.68 15.25 285.68 15.5 286.93 15.5 286.93 15.75 288.18 15.75 288.18 16 289.43 16 289.43 16.25 290.68 16.25 290.68 16.5 291.68 16.5 291.68 16.75 292.68 16.75 292.68 17 293.43 17 293.43 7.25 292.43 7.25 292.43 7 291.18 7 291.18 6.75 289.93 6.75 289.93 6.5 288.68 6.5 288.68 6.25 287.43 6.25 287.43 6 286.18 6 286.18 5.75 284.93 5.75 284.93 5.5 283.43 5.5 283.43 5.25 281.93 5.25 281.93 5 280.18 5 280.18 4.75 278.43 4.75"/>
    </clipPath>
    <clipPath id="clippath-39">
      <polyline class="cls-131" points="278.43 14.25 278.43 20.5 293.43 20.5 293.43 17 292.68 17 292.68 16.75 291.68 16.75 291.68 16.5 290.68 16.5 290.68 16.25 289.43 16.25 289.43 16 288.18 16 288.18 15.75 286.93 15.75 286.93 15.5 285.68 15.5 285.68 15.25 284.43 15.25 284.43 15 283.18 15 283.18 14.75 281.68 14.75 281.68 14.5 280.18 14.5 280.18 14.25 278.43 14.25"/>
    </clipPath>
    <clipPath id="clippath-40">
      <polyline class="cls-131" points="306.43 3.5 306.43 11 307.18 11 307.18 11.25 307.93 11.25 307.93 11.5 308.93 11.5 308.93 11.75 309.68 11.75 309.68 12 310.43 12 310.43 12.25 311.18 12.25 311.18 12.5 311.68 12.5 311.68 12.75 312.43 12.75 312.43 13 313.18 13 313.18 13.25 313.93 13.25 313.93 13.5 314.68 13.5 314.68 13.75 315.43 13.75 315.43 14 315.93 14 315.93 14.25 316.68 14.25 316.68 14.5 317.43 14.5 317.43 14.75 317.93 14.75 317.93 15 318.68 15 318.68 15.25 319.18 15.25 319.18 15.5 319.93 15.5 319.93 15.75 320.43 15.75 320.43 16 321.18 16 321.18 16.25 321.68 16.25 321.68 16.5 322.43 16.5 322.43 16.75 322.93 16.75 322.93 17 323.43 17 323.43 17.25 324.18 17.25 324.18 17.5 324.68 17.5 324.68 17.75 325.18 17.75 325.18 18 325.93 18 325.93 18.25 326.43 18.25 326.43 8.25 326.18 8.25 326.18 8 325.43 8 325.43 7.75 324.93 7.75 324.93 7.5 324.43 7.5 324.43 7.25 323.68 7.25 323.68 7 323.18 7 323.18 6.75 322.43 6.75 322.43 6.5 321.68 6.5 321.68 6.25 321.18 6.25 321.18 6 320.43 6 320.43 5.75 319.93 5.75 319.93 5.5 319.18 5.5 319.18 5.25 318.43 5.25 318.43 5 317.93 5 317.93 4.75 317.18 4.75 317.18 4.5 316.43 4.5 316.43 4.25 315.68 4.25 315.68 4 314.93 4 314.93 3.75 314.18 3.75 314.18 3.5 306.43 3.5"/>
    </clipPath>
    <clipPath id="clippath-41">
      <polyline class="cls-131" points="314.18 3.5 314.18 3.75 314.93 3.75 314.93 4 315.68 4 315.68 4.25 316.43 4.25 316.43 4.5 317.18 4.5 317.18 4.75 317.93 4.75 317.93 5 318.43 5 318.43 5.25 319.18 5.25 319.18 5.5 319.93 5.5 319.93 5.75 320.43 5.75 320.43 6 321.18 6 321.18 6.25 321.68 6.25 321.68 6.5 322.43 6.5 322.43 6.75 323.18 6.75 323.18 7 323.68 7 323.68 7.25 324.43 7.25 324.43 7.5 324.93 7.5 324.93 7.75 325.43 7.75 325.43 8 326.18 8 326.18 8.25 326.43 8.25 326.43 5.25 325.93 5.25 325.93 5 325.43 5 325.43 4.75 324.68 4.75 324.68 4.5 324.18 4.5 324.18 4.25 323.43 4.25 323.43 4 322.93 4 322.93 3.75 322.18 3.75 322.18 3.5 314.18 3.5"/>
    </clipPath>
    <clipPath id="clippath-42">
      <polyline class="cls-131" points="322.18 3.5 322.18 3.75 322.93 3.75 322.93 4 323.43 4 323.43 4.25 324.18 4.25 324.18 4.5 324.68 4.5 324.68 4.75 325.43 4.75 325.43 5 325.93 5 325.93 5.25 326.43 5.25 326.43 3.5 322.18 3.5"/>
    </clipPath>
    <clipPath id="clippath-43">
      <polyline class="cls-131" points="306.43 11 306.43 20.5 326.43 20.5 326.43 18.25 325.93 18.25 325.93 18 325.18 18 325.18 17.75 324.68 17.75 324.68 17.5 324.18 17.5 324.18 17.25 323.43 17.25 323.43 17 322.93 17 322.93 16.75 322.43 16.75 322.43 16.5 321.68 16.5 321.68 16.25 321.18 16.25 321.18 16 320.43 16 320.43 15.75 319.93 15.75 319.93 15.5 319.18 15.5 319.18 15.25 318.68 15.25 318.68 15 317.93 15 317.93 14.75 317.43 14.75 317.43 14.5 316.68 14.5 316.68 14.25 315.93 14.25 315.93 14 315.43 14 315.43 13.75 314.68 13.75 314.68 13.5 313.93 13.5 313.93 13.25 313.18 13.25 313.18 13 312.43 13 312.43 12.75 311.68 12.75 311.68 12.5 311.18 12.5 311.18 12.25 310.43 12.25 310.43 12 309.68 12 309.68 11.75 308.93 11.75 308.93 11.5 307.93 11.5 307.93 11.25 307.18 11.25 307.18 11 306.43 11"/>
    </clipPath>
    <clipPath id="clippath-44">
      <polyline class="cls-131" points="328.43 3.5 328.43 6.25 328.93 6.25 328.93 6.5 329.43 6.5 329.43 6.75 330.18 6.75 330.18 7 330.68 7 330.68 7.25 331.18 7.25 331.18 7.5 331.68 7.5 331.68 7.75 332.43 7.75 332.43 8 332.93 8 332.93 8.25 333.43 8.25 333.43 8.5 333.93 8.5 333.93 8.75 334.43 8.75 334.43 9 334.93 9 334.93 9.25 335.68 9.25 335.68 9.5 336.18 9.5 336.18 9.75 336.68 9.75 336.68 10 337.18 10 337.18 10.25 337.68 10.25 337.68 10.5 338.18 10.5 338.18 10.75 338.68 10.75 338.68 11 339.18 11 339.18 11.25 339.68 11.25 339.68 11.5 340.18 11.5 340.18 11.75 340.68 11.75 340.68 12 341.18 12 341.18 12.25 341.68 12.25 341.68 12.5 342.18 12.5 342.18 12.75 342.68 12.75 342.68 13 342.93 13 342.93 13.25 343.43 13.25 343.43 13.5 343.93 13.5 343.93 13.75 344.43 13.75 344.43 14 344.93 14 344.93 14.25 345.43 14.25 345.43 14.5 345.68 14.5 345.68 14.75 346.18 14.75 346.18 15 346.68 15 346.68 15.25 347.18 15.25 347.18 15.5 347.68 15.5 347.68 15.75 347.93 15.75 347.93 16 348.43 16 348.43 16.25 348.93 16.25 348.93 16.5 349.43 16.5 349.43 16.75 349.68 16.75 349.68 17 350.18 17 350.18 17.25 350.68 17.25 350.68 17.5 350.93 17.5 350.93 17.75 351.43 17.75 351.43 10.5 350.93 10.5 350.93 10.25 350.43 10.25 350.43 10 349.93 10 349.93 9.75 349.68 9.75 349.68 9.5 349.18 9.5 349.18 9.25 348.68 9.25 348.68 9 348.18 9 348.18 8.75 347.68 8.75 347.68 8.5 347.43 8.5 347.43 8.25 346.93 8.25 346.93 8 346.43 8 346.43 7.75 345.93 7.75 345.93 7.5 345.43 7.5 345.43 7.25 344.93 7.25 344.93 7 344.43 7 344.43 6.75 343.93 6.75 343.93 6.5 343.43 6.5 343.43 6.25 342.93 6.25 342.93 6 342.43 6 342.43 5.75 341.93 5.75 341.93 5.5 341.43 5.5 341.43 5.25 340.93 5.25 340.93 5 340.43 5 340.43 4.75 339.93 4.75 339.93 4.5 339.43 4.5 339.43 4.25 338.93 4.25 338.93 4 338.43 4 338.43 3.75 337.93 3.75 337.93 3.5 328.43 3.5"/>
    </clipPath>
    <clipPath id="clippath-45">
      <polyline class="cls-131" points="337.93 3.5 337.93 3.75 338.43 3.75 338.43 4 338.93 4 338.93 4.25 339.43 4.25 339.43 4.5 339.93 4.5 339.93 4.75 340.43 4.75 340.43 5 340.93 5 340.93 5.25 341.43 5.25 341.43 5.5 341.93 5.5 341.93 5.75 342.43 5.75 342.43 6 342.93 6 342.93 6.25 343.43 6.25 343.43 6.5 343.93 6.5 343.93 6.75 344.43 6.75 344.43 7 344.93 7 344.93 7.25 345.43 7.25 345.43 7.5 345.93 7.5 345.93 7.75 346.43 7.75 346.43 8 346.93 8 346.93 8.25 347.43 8.25 347.43 8.5 347.68 8.5 347.68 8.75 348.18 8.75 348.18 9 348.68 9 348.68 9.25 349.18 9.25 349.18 9.5 349.68 9.5 349.68 9.75 349.93 9.75 349.93 10 350.43 10 350.43 10.25 350.93 10.25 350.93 10.5 351.43 10.5 351.43 3.5 337.93 3.5"/>
    </clipPath>
    <clipPath id="clippath-46">
      <polyline class="cls-131" points="328.43 6.25 328.43 9.25 329.18 9.25 329.18 9.5 329.68 9.5 329.68 9.75 330.18 9.75 330.18 10 330.68 10 330.68 10.25 331.18 10.25 331.18 10.5 331.93 10.5 331.93 10.75 332.43 10.75 332.43 11 332.93 11 332.93 11.25 333.43 11.25 333.43 11.5 333.93 11.5 333.93 11.75 334.43 11.75 334.43 12 334.93 12 334.93 12.25 335.68 12.25 335.68 12.5 336.18 12.5 336.18 12.75 336.68 12.75 336.68 13 337.18 13 337.18 13.25 337.68 13.25 337.68 13.5 338.18 13.5 338.18 13.75 338.68 13.75 338.68 14 339.18 14 339.18 14.25 339.68 14.25 339.68 14.5 340.18 14.5 340.18 14.75 340.43 14.75 340.43 15 340.93 15 340.93 15.25 341.43 15.25 341.43 15.5 341.93 15.5 341.93 15.75 342.43 15.75 342.43 16 342.93 16 342.93 16.25 343.43 16.25 343.43 16.5 343.93 16.5 343.93 16.75 344.18 16.75 344.18 17 344.68 17 344.68 17.25 345.18 17.25 345.18 17.5 345.68 17.5 345.68 17.75 346.18 17.75 346.18 18 346.43 18 346.43 18.25 346.93 18.25 346.93 18.5 347.43 18.5 347.43 18.75 347.93 18.75 347.93 19 348.18 19 348.18 19.25 348.68 19.25 348.68 19.5 349.18 19.5 349.18 19.75 349.43 19.75 349.43 20 349.93 20 349.93 20.25 350.43 20.25 350.43 20.5 351.43 20.5 351.43 17.75 350.93 17.75 350.93 17.5 350.68 17.5 350.68 17.25 350.18 17.25 350.18 17 349.68 17 349.68 16.75 349.43 16.75 349.43 16.5 348.93 16.5 348.93 16.25 348.43 16.25 348.43 16 347.93 16 347.93 15.75 347.68 15.75 347.68 15.5 347.18 15.5 347.18 15.25 346.68 15.25 346.68 15 346.18 15 346.18 14.75 345.68 14.75 345.68 14.5 345.43 14.5 345.43 14.25 344.93 14.25 344.93 14 344.43 14 344.43 13.75 343.93 13.75 343.93 13.5 343.43 13.5 343.43 13.25 342.93 13.25 342.93 13 342.68 13 342.68 12.75 342.18 12.75 342.18 12.5 341.68 12.5 341.68 12.25 341.18 12.25 341.18 12 340.68 12 340.68 11.75 340.18 11.75 340.18 11.5 339.68 11.5 339.68 11.25 339.18 11.25 339.18 11 338.68 11 338.68 10.75 338.18 10.75 338.18 10.5 337.68 10.5 337.68 10.25 337.18 10.25 337.18 10 336.68 10 336.68 9.75 336.18 9.75 336.18 9.5 335.68 9.5 335.68 9.25 334.93 9.25 334.93 9 334.43 9 334.43 8.75 333.93 8.75 333.93 8.5 333.43 8.5 333.43 8.25 332.93 8.25 332.93 8 332.43 8 332.43 7.75 331.68 7.75 331.68 7.5 331.18 7.5 331.18 7.25 330.68 7.25 330.68 7 330.18 7 330.18 6.75 329.43 6.75 329.43 6.5 328.93 6.5 328.93 6.25 328.43 6.25"/>
    </clipPath>
    <clipPath id="clippath-47">
      <polyline class="cls-131" points="328.43 9.25 328.43 19.25 328.68 19.25 328.68 19.5 329.18 19.5 329.18 19.75 329.68 19.75 329.68 20 330.18 20 330.18 20.25 330.68 20.25 330.68 20.5 350.43 20.5 350.43 20.25 349.93 20.25 349.93 20 349.43 20 349.43 19.75 349.18 19.75 349.18 19.5 348.68 19.5 348.68 19.25 348.18 19.25 348.18 19 347.93 19 347.93 18.75 347.43 18.75 347.43 18.5 346.93 18.5 346.93 18.25 346.43 18.25 346.43 18 346.18 18 346.18 17.75 345.68 17.75 345.68 17.5 345.18 17.5 345.18 17.25 344.68 17.25 344.68 17 344.18 17 344.18 16.75 343.93 16.75 343.93 16.5 343.43 16.5 343.43 16.25 342.93 16.25 342.93 16 342.43 16 342.43 15.75 341.93 15.75 341.93 15.5 341.43 15.5 341.43 15.25 340.93 15.25 340.93 15 340.43 15 340.43 14.75 340.18 14.75 340.18 14.5 339.68 14.5 339.68 14.25 339.18 14.25 339.18 14 338.68 14 338.68 13.75 338.18 13.75 338.18 13.5 337.68 13.5 337.68 13.25 337.18 13.25 337.18 13 336.68 13 336.68 12.75 336.18 12.75 336.18 12.5 335.68 12.5 335.68 12.25 334.93 12.25 334.93 12 334.43 12 334.43 11.75 333.93 11.75 333.93 11.5 333.43 11.5 333.43 11.25 332.93 11.25 332.93 11 332.43 11 332.43 10.75 331.93 10.75 331.93 10.5 331.18 10.5 331.18 10.25 330.68 10.25 330.68 10 330.18 10 330.18 9.75 329.68 9.75 329.68 9.5 329.18 9.5 329.18 9.25 328.43 9.25"/>
    </clipPath>
    <clipPath id="clippath-48">
      <polyline class="cls-131" points="328.43 19.25 328.43 20.5 330.68 20.5 330.68 20.25 330.18 20.25 330.18 20 329.68 20 329.68 19.75 329.18 19.75 329.18 19.5 328.68 19.5 328.68 19.25 328.43 19.25"/>
    </clipPath>
    <clipPath id="clippath-49">
      <polyline class="cls-131" points="355.43 3.5 355.43 13 355.68 13 355.68 13.25 355.93 13.25 355.93 13.5 356.43 13.5 356.43 13.75 356.93 13.75 356.93 14 357.18 14 357.18 14.25 357.68 14.25 357.68 14.5 357.93 14.5 357.93 14.75 358.43 14.75 358.43 15 358.93 15 358.93 15.25 359.18 15.25 359.18 15.5 359.68 15.5 359.68 15.75 359.93 15.75 359.93 16 360.43 16 360.43 16.25 360.93 16.25 360.93 16.5 361.18 16.5 361.18 16.75 361.68 16.75 361.68 17 361.93 17 361.93 17.25 362.43 17.25 362.43 17.5 362.68 17.5 362.68 17.75 363.18 17.75 363.18 18 363.43 18 363.43 18.25 363.93 18.25 363.93 18.5 364.18 18.5 364.18 18.75 364.68 18.75 364.68 19 364.93 19 364.93 19.25 365.18 19.25 365.18 19.5 365.68 19.5 365.68 19.75 365.93 19.75 365.93 20 366.43 20 366.43 20.25 366.68 20.25 366.68 20.5 379.43 20.5 379.43 17.5 379.18 17.5 379.18 17.25 378.93 17.25 378.93 17 378.68 17 378.68 16.75 378.18 16.75 378.18 16.5 377.93 16.5 377.93 16.25 377.68 16.25 377.68 16 377.18 16 377.18 15.75 376.93 15.75 376.93 15.5 376.68 15.5 376.68 15.25 376.18 15.25 376.18 15 375.93 15 375.93 14.75 375.68 14.75 375.68 14.5 375.18 14.5 375.18 14.25 374.93 14.25 374.93 14 374.43 14 374.43 13.75 374.18 13.75 374.18 13.5 373.93 13.5 373.93 13.25 373.43 13.25 373.43 13 373.18 13 373.18 12.75 372.68 12.75 372.68 12.5 372.43 12.5 372.43 12.25 372.18 12.25 372.18 12 371.68 12 371.68 11.75 371.43 11.75 371.43 11.5 370.93 11.5 370.93 11.25 370.68 11.25 370.68 11 370.18 11 370.18 10.75 369.93 10.75 369.93 10.5 369.43 10.5 369.43 10.25 369.18 10.25 369.18 10 368.68 10 368.68 9.75 368.43 9.75 368.43 9.5 367.93 9.5 367.93 9.25 367.68 9.25 367.68 9 367.18 9 367.18 8.75 366.93 8.75 366.93 8.5 366.43 8.5 366.43 8.25 366.18 8.25 366.18 8 365.68 8 365.68 7.75 365.43 7.75 365.43 7.5 364.93 7.5 364.93 7.25 364.68 7.25 364.68 7 364.18 7 364.18 6.75 363.68 6.75 363.68 6.5 363.43 6.5 363.43 6.25 362.93 6.25 362.93 6 362.68 6 362.68 5.75 362.18 5.75 362.18 5.5 361.68 5.5 361.68 5.25 361.43 5.25 361.43 5 360.93 5 360.93 4.75 360.43 4.75 360.43 4.5 360.18 4.5 360.18 4.25 359.68 4.25 359.68 4 359.18 4 359.18 3.75 358.93 3.75 358.93 3.5 355.43 3.5"/>
    </clipPath>
    <clipPath id="clippath-50">
      <polyline class="cls-131" points="358.93 3.5 358.93 3.75 359.18 3.75 359.18 4 359.68 4 359.68 4.25 360.18 4.25 360.18 4.5 360.43 4.5 360.43 4.75 360.93 4.75 360.93 5 361.43 5 361.43 5.25 361.68 5.25 361.68 5.5 362.18 5.5 362.18 5.75 362.68 5.75 362.68 6 362.93 6 362.93 6.25 363.43 6.25 363.43 6.5 363.68 6.5 363.68 6.75 364.18 6.75 364.18 7 364.68 7 364.68 7.25 364.93 7.25 364.93 7.5 365.43 7.5 365.43 7.75 365.68 7.75 365.68 8 366.18 8 366.18 8.25 366.43 8.25 366.43 8.5 366.93 8.5 366.93 8.75 367.18 8.75 367.18 9 367.68 9 367.68 9.25 367.93 9.25 367.93 9.5 368.43 9.5 368.43 9.75 368.68 9.75 368.68 10 369.18 10 369.18 10.25 369.43 10.25 369.43 10.5 369.93 10.5 369.93 10.75 370.18 10.75 370.18 11 370.68 11 370.68 11.25 370.93 11.25 370.93 11.5 371.43 11.5 371.43 11.75 371.68 11.75 371.68 12 372.18 12 372.18 12.25 372.43 12.25 372.43 12.5 372.68 12.5 372.68 12.75 373.18 12.75 373.18 13 373.43 13 373.43 13.25 373.93 13.25 373.93 13.5 374.18 13.5 374.18 13.75 374.43 13.75 374.43 14 374.93 14 374.93 14.25 375.18 14.25 375.18 14.5 375.68 14.5 375.68 14.75 375.93 14.75 375.93 15 376.18 15 376.18 15.25 376.68 15.25 376.68 15.5 376.93 15.5 376.93 15.75 377.18 15.75 377.18 16 377.68 16 377.68 16.25 377.93 16.25 377.93 16.5 378.18 16.5 378.18 16.75 378.68 16.75 378.68 17 378.93 17 378.93 17.25 379.18 17.25 379.18 17.5 379.43 17.5 379.43 4.75 378.93 4.75 378.93 4.5 378.68 4.5 378.68 4.25 378.18 4.25 378.18 4 377.93 4 377.93 3.75 377.68 3.75 377.68 3.5 358.93 3.5"/>
    </clipPath>
    <clipPath id="clippath-51">
      <polyline class="cls-131" points="377.68 3.5 377.68 3.75 377.93 3.75 377.93 4 378.18 4 378.18 4.25 378.68 4.25 378.68 4.5 378.93 4.5 378.93 4.75 379.43 4.75 379.43 3.5 377.68 3.5"/>
    </clipPath>
    <clipPath id="clippath-52">
      <polyline class="cls-131" points="355.43 13 355.43 20.5 366.68 20.5 366.68 20.25 366.43 20.25 366.43 20 365.93 20 365.93 19.75 365.68 19.75 365.68 19.5 365.18 19.5 365.18 19.25 364.93 19.25 364.93 19 364.68 19 364.68 18.75 364.18 18.75 364.18 18.5 363.93 18.5 363.93 18.25 363.43 18.25 363.43 18 363.18 18 363.18 17.75 362.68 17.75 362.68 17.5 362.43 17.5 362.43 17.25 361.93 17.25 361.93 17 361.68 17 361.68 16.75 361.18 16.75 361.18 16.5 360.93 16.5 360.93 16.25 360.43 16.25 360.43 16 359.93 16 359.93 15.75 359.68 15.75 359.68 15.5 359.18 15.5 359.18 15.25 358.93 15.25 358.93 15 358.43 15 358.43 14.75 357.93 14.75 357.93 14.5 357.68 14.5 357.68 14.25 357.18 14.25 357.18 14 356.93 14 356.93 13.75 356.43 13.75 356.43 13.5 355.93 13.5 355.93 13.25 355.68 13.25 355.68 13 355.43 13"/>
    </clipPath>
    <clipPath id="clippath-53">
      <polyline class="cls-131" points="383.43 3.5 383.43 8 383.68 8 383.68 8.25 384.18 8.25 384.18 8.5 384.43 8.5 384.43 8.75 384.68 8.75 384.68 9 385.18 9 385.18 9.25 385.43 9.25 385.43 9.5 385.68 9.5 385.68 9.75 386.18 9.75 386.18 10 386.43 10 386.43 10.25 386.68 10.25 386.68 10.5 387.18 10.5 387.18 10.75 387.43 10.75 387.43 11 387.68 11 387.68 11.25 387.93 11.25 387.93 11.5 388.43 11.5 388.43 11.75 388.68 11.75 388.68 12 388.93 12 388.93 12.25 389.18 12.25 389.18 12.5 389.68 12.5 389.68 12.75 389.93 12.75 389.93 13 390.18 13 390.18 13.25 390.43 13.25 390.43 13.5 390.93 13.5 390.93 13.75 391.18 13.75 391.18 14 391.43 14 391.43 14.25 391.68 14.25 391.68 14.5 391.93 14.5 391.93 14.75 392.43 14.75 392.43 15 392.68 15 392.68 15.25 392.93 15.25 392.93 15.5 393.18 15.5 393.18 15.75 393.43 15.75 393.43 16 393.93 16 393.93 16.25 394.18 16.25 394.18 16.5 394.43 16.5 394.43 16.75 394.68 16.75 394.68 17 394.93 17 394.93 17.25 395.18 17.25 395.18 17.5 395.68 17.5 395.68 17.75 395.93 17.75 395.93 18 396.18 18 396.18 18.25 396.43 18.25 396.43 18.5 396.68 18.5 396.68 18.75 396.93 18.75 396.93 19 397.43 19 397.43 19.25 397.68 19.25 397.68 19.5 397.93 19.5 397.93 19.75 398.18 19.75 398.18 20 398.43 20 398.43 20.25 398.68 20.25 398.68 20.5 399.43 20.5 399.43 3.5 383.43 3.5"/>
    </clipPath>
    <clipPath id="clippath-54">
      <polyline class="cls-131" points="383.43 8 383.43 20.5 398.68 20.5 398.68 20.25 398.43 20.25 398.43 20 398.18 20 398.18 19.75 397.93 19.75 397.93 19.5 397.68 19.5 397.68 19.25 397.43 19.25 397.43 19 396.93 19 396.93 18.75 396.68 18.75 396.68 18.5 396.43 18.5 396.43 18.25 396.18 18.25 396.18 18 395.93 18 395.93 17.75 395.68 17.75 395.68 17.5 395.18 17.5 395.18 17.25 394.93 17.25 394.93 17 394.68 17 394.68 16.75 394.43 16.75 394.43 16.5 394.18 16.5 394.18 16.25 393.93 16.25 393.93 16 393.43 16 393.43 15.75 393.18 15.75 393.18 15.5 392.93 15.5 392.93 15.25 392.68 15.25 392.68 15 392.43 15 392.43 14.75 391.93 14.75 391.93 14.5 391.68 14.5 391.68 14.25 391.43 14.25 391.43 14 391.18 14 391.18 13.75 390.93 13.75 390.93 13.5 390.43 13.5 390.43 13.25 390.18 13.25 390.18 13 389.93 13 389.93 12.75 389.68 12.75 389.68 12.5 389.18 12.5 389.18 12.25 388.93 12.25 388.93 12 388.68 12 388.68 11.75 388.43 11.75 388.43 11.5 387.93 11.5 387.93 11.25 387.68 11.25 387.68 11 387.43 11 387.43 10.75 387.18 10.75 387.18 10.5 386.68 10.5 386.68 10.25 386.43 10.25 386.43 10 386.18 10 386.18 9.75 385.68 9.75 385.68 9.5 385.43 9.5 385.43 9.25 385.18 9.25 385.18 9 384.68 9 384.68 8.75 384.43 8.75 384.43 8.5 384.18 8.5 384.18 8.25 383.68 8.25 383.68 8 383.43 8"/>
    </clipPath>
    <clipPath id="clippath-55">
      <polyline class="cls-131" points="403.43 3.5 403.43 20.5 423.43 20.5 423.43 13.25 423.18 13.25 423.18 13 422.93 13 422.93 12.75 422.68 12.75 422.68 12.5 422.43 12.5 422.43 12.25 422.18 12.25 422.18 12 421.93 12 421.93 11.75 421.68 11.75 421.68 11.5 421.43 11.5 421.43 11.25 421.18 11.25 421.18 11 420.93 11 420.93 10.75 420.68 10.75 420.68 10.5 420.43 10.5 420.43 10.25 420.18 10.25 420.18 10 419.93 10 419.93 9.75 419.68 9.75 419.68 9.5 419.43 9.5 419.43 9.25 419.18 9.25 419.18 9 418.93 9 418.93 8.75 418.68 8.75 418.68 8.5 418.18 8.5 418.18 8.25 417.93 8.25 417.93 8 417.68 8 417.68 7.75 417.43 7.75 417.43 7.5 417.18 7.5 417.18 7.25 416.93 7.25 416.93 7 416.68 7 416.68 6.75 416.43 6.75 416.43 6.5 416.18 6.5 416.18 6.25 415.93 6.25 415.93 6 415.68 6 415.68 5.75 415.43 5.75 415.43 5.5 415.18 5.5 415.18 5.25 414.68 5.25 414.68 5 414.43 5 414.43 4.75 414.18 4.75 414.18 4.5 413.93 4.5 413.93 4.25 413.68 4.25 413.68 4 413.43 4 413.43 3.75 413.18 3.75 413.18 3.5 403.43 3.5"/>
    </clipPath>
    <clipPath id="clippath-56">
      <polyline class="cls-131" points="413.18 3.5 413.18 3.75 413.43 3.75 413.43 4 413.68 4 413.68 4.25 413.93 4.25 413.93 4.5 414.18 4.5 414.18 4.75 414.43 4.75 414.43 5 414.68 5 414.68 5.25 415.18 5.25 415.18 5.5 415.43 5.5 415.43 5.75 415.68 5.75 415.68 6 415.93 6 415.93 6.25 416.18 6.25 416.18 6.5 416.43 6.5 416.43 6.75 416.68 6.75 416.68 7 416.93 7 416.93 7.25 417.18 7.25 417.18 7.5 417.43 7.5 417.43 7.75 417.68 7.75 417.68 8 417.93 8 417.93 8.25 418.18 8.25 418.18 8.5 418.68 8.5 418.68 8.75 418.93 8.75 418.93 9 419.18 9 419.18 9.25 419.43 9.25 419.43 9.5 419.68 9.5 419.68 9.75 419.93 9.75 419.93 10 420.18 10 420.18 10.25 420.43 10.25 420.43 10.5 420.68 10.5 420.68 10.75 420.93 10.75 420.93 11 421.18 11 421.18 11.25 421.43 11.25 421.43 11.5 421.68 11.5 421.68 11.75 421.93 11.75 421.93 12 422.18 12 422.18 12.25 422.43 12.25 422.43 12.5 422.68 12.5 422.68 12.75 422.93 12.75 422.93 13 423.18 13 423.18 13.25 423.43 13.25 423.43 3.5 413.18 3.5"/>
    </clipPath>
    <clipPath id="clippath-57">
      <polyline class="cls-131" points="428.43 3.5 428.43 6.75 428.68 6.75 428.68 7 428.93 7 428.93 7.25 429.18 7.25 429.18 7.5 429.43 7.5 429.43 7.75 429.68 7.75 429.68 8 429.93 8 429.93 8.25 430.18 8.25 430.18 8.5 430.43 8.5 430.43 8.75 430.68 8.75 430.68 9 430.93 9 430.93 9.25 431.18 9.25 431.18 9.5 431.43 9.5 431.43 9.75 431.68 9.75 431.68 10 431.93 10 431.93 10.25 432.18 10.25 432.18 10.5 432.43 10.5 432.43 10.75 432.68 10.75 432.68 11 432.93 11 432.93 11.25 433.18 11.25 433.18 11.5 433.43 11.5 433.43 11.75 433.68 11.75 433.68 12 433.93 12 433.93 12.25 434.18 12.25 434.18 12.5 434.43 12.5 434.43 12.75 434.68 12.75 434.68 13 434.93 13 434.93 13.25 435.18 13.25 435.18 13.75 435.43 13.75 435.43 14 435.68 14 435.68 14.25 435.93 14.25 435.93 14.5 436.18 14.5 436.18 14.75 436.43 14.75 436.43 15 436.68 15 436.68 15.25 436.93 15.25 436.93 15.5 437.18 15.5 437.18 15.75 437.43 15.75 437.43 16 437.68 16 437.68 16.25 437.93 16.25 437.93 16.75 438.18 16.75 438.18 17 438.43 17 438.43 17.25 438.68 17.25 438.68 17.5 438.93 17.5 438.93 17.75 439.18 17.75 439.18 18 439.43 18 439.43 18.25 439.68 18.25 439.68 18.5 439.93 18.5 439.93 19 440.18 19 440.18 19.25 440.43 19.25 440.43 19.5 440.68 19.5 440.68 19.75 440.93 19.75 440.93 20 441.18 20 441.18 20.25 441.43 20.25 441.43 20.5 444.43 20.5 444.43 10.5 444.18 10.5 444.18 10.25 443.93 10.25 443.93 9.75 443.68 9.75 443.68 9.5 443.43 9.5 443.43 9.25 443.18 9.25 443.18 9 442.93 9 442.93 8.75 442.68 8.75 442.68 8.5 442.43 8.5 442.43 8.25 442.18 8.25 442.18 8 441.93 8 441.93 7.75 441.68 7.75 441.68 7.5 441.43 7.5 441.43 7.25 441.18 7.25 441.18 7 440.93 7 440.93 6.5 440.68 6.5 440.68 6.25 440.43 6.25 440.43 6 440.18 6 440.18 5.75 439.93 5.75 439.93 5.5 439.68 5.5 439.68 5.25 439.43 5.25 439.43 5 439.18 5 439.18 4.75 438.93 4.75 438.93 4.5 438.68 4.5 438.68 4.25 438.43 4.25 438.43 4 438.18 4 438.18 3.75 437.93 3.75 437.93 3.5 428.43 3.5"/>
    </clipPath>
    <clipPath id="clippath-58">
      <polyline class="cls-131" points="437.93 3.5 437.93 3.75 438.18 3.75 438.18 4 438.43 4 438.43 4.25 438.68 4.25 438.68 4.5 438.93 4.5 438.93 4.75 439.18 4.75 439.18 5 439.43 5 439.43 5.25 439.68 5.25 439.68 5.5 439.93 5.5 439.93 5.75 440.18 5.75 440.18 6 440.43 6 440.43 6.25 440.68 6.25 440.68 6.5 440.93 6.5 440.93 7 441.18 7 441.18 7.25 441.43 7.25 441.43 7.5 441.68 7.5 441.68 7.75 441.93 7.75 441.93 8 442.18 8 442.18 8.25 442.43 8.25 442.43 8.5 442.68 8.5 442.68 8.75 442.93 8.75 442.93 9 443.18 9 443.18 9.25 443.43 9.25 443.43 9.5 443.68 9.5 443.68 9.75 443.93 9.75 443.93 10.25 444.18 10.25 444.18 10.5 444.43 10.5 444.43 3.5 437.93 3.5"/>
    </clipPath>
    <clipPath id="clippath-59">
      <polyline class="cls-131" points="428.43 6.75 428.43 18.75 428.68 18.75 428.68 19 428.93 19 428.93 19.25 429.18 19.25 429.18 19.5 429.43 19.5 429.43 19.75 429.68 19.75 429.68 20 429.93 20 429.93 20.25 430.18 20.25 430.18 20.5 441.43 20.5 441.43 20.25 441.18 20.25 441.18 20 440.93 20 440.93 19.75 440.68 19.75 440.68 19.5 440.43 19.5 440.43 19.25 440.18 19.25 440.18 19 439.93 19 439.93 18.5 439.68 18.5 439.68 18.25 439.43 18.25 439.43 18 439.18 18 439.18 17.75 438.93 17.75 438.93 17.5 438.68 17.5 438.68 17.25 438.43 17.25 438.43 17 438.18 17 438.18 16.75 437.93 16.75 437.93 16.25 437.68 16.25 437.68 16 437.43 16 437.43 15.75 437.18 15.75 437.18 15.5 436.93 15.5 436.93 15.25 436.68 15.25 436.68 15 436.43 15 436.43 14.75 436.18 14.75 436.18 14.5 435.93 14.5 435.93 14.25 435.68 14.25 435.68 14 435.43 14 435.43 13.75 435.18 13.75 435.18 13.25 434.93 13.25 434.93 13 434.68 13 434.68 12.75 434.43 12.75 434.43 12.5 434.18 12.5 434.18 12.25 433.93 12.25 433.93 12 433.68 12 433.68 11.75 433.43 11.75 433.43 11.5 433.18 11.5 433.18 11.25 432.93 11.25 432.93 11 432.68 11 432.68 10.75 432.43 10.75 432.43 10.5 432.18 10.5 432.18 10.25 431.93 10.25 431.93 10 431.68 10 431.68 9.75 431.43 9.75 431.43 9.5 431.18 9.5 431.18 9.25 430.93 9.25 430.93 9 430.68 9 430.68 8.75 430.43 8.75 430.43 8.5 430.18 8.5 430.18 8.25 429.93 8.25 429.93 8 429.68 8 429.68 7.75 429.43 7.75 429.43 7.5 429.18 7.5 429.18 7.25 428.93 7.25 428.93 7 428.68 7 428.68 6.75 428.43 6.75"/>
    </clipPath>
    <clipPath id="clippath-60">
      <polyline class="cls-131" points="428.43 18.75 428.43 20.5 430.18 20.5 430.18 20.25 429.93 20.25 429.93 20 429.68 20 429.68 19.75 429.43 19.75 429.43 19.5 429.18 19.5 429.18 19.25 428.93 19.25 428.93 19 428.68 19 428.68 18.75 428.43 18.75"/>
    </clipPath>
    <clipPath id="clippath-61">
      <polyline class="cls-131" points="447.43 3.5 447.43 14 447.68 14 447.68 14.5 447.93 14.5 447.93 14.75 448.18 14.75 448.18 15 448.43 15 448.43 15.25 448.68 15.25 448.68 15.5 448.93 15.5 448.93 15.75 449.18 15.75 449.18 16.25 449.43 16.25 449.43 16.5 449.68 16.5 449.68 16.75 449.93 16.75 449.93 17 450.18 17 450.18 17.25 450.43 17.25 450.43 17.75 450.68 17.75 450.68 18 450.93 18 450.93 18.25 451.18 18.25 451.18 18.5 451.43 18.5 451.43 18.75 451.68 18.75 451.68 19.25 451.93 19.25 451.93 19.5 452.18 19.5 452.18 19.75 452.43 19.75 452.43 20 452.68 20 452.68 20.25 452.93 20.25 452.93 20.5 463.18 20.5 463.18 20 462.93 20 462.93 19.75 462.68 19.75 462.68 19.5 462.43 19.5 462.43 19.25 462.18 19.25 462.18 18.75 461.93 18.75 461.93 18.5 461.68 18.5 461.68 18.25 461.43 18.25 461.43 17.75 461.18 17.75 461.18 17.5 460.93 17.5 460.93 17.25 460.68 17.25 460.68 17 460.43 17 460.43 16.5 460.18 16.5 460.18 16.25 459.93 16.25 459.93 16 459.68 16 459.68 15.75 459.43 15.75 459.43 15.25 459.18 15.25 459.18 15 458.93 15 458.93 14.75 458.68 14.75 458.68 14.5 458.43 14.5 458.43 14 458.18 14 458.18 13.75 457.93 13.75 457.93 13.5 457.68 13.5 457.68 13.25 457.43 13.25 457.43 13 457.18 13 457.18 12.5 456.93 12.5 456.93 12.25 456.68 12.25 456.68 12 456.43 12 456.43 11.75 456.18 11.75 456.18 11.5 455.93 11.5 455.93 11 455.68 11 455.68 10.75 455.43 10.75 455.43 10.5 455.18 10.5 455.18 10.25 454.93 10.25 454.93 10 454.68 10 454.68 9.75 454.43 9.75 454.43 9.25 454.18 9.25 454.18 9 453.93 9 453.93 8.75 453.68 8.75 453.68 8.5 453.43 8.5 453.43 8.25 453.18 8.25 453.18 8 452.93 8 452.93 7.75 452.68 7.75 452.68 7.25 452.43 7.25 452.43 7 452.18 7 452.18 6.75 451.93 6.75 451.93 6.5 451.68 6.5 451.68 6.25 451.43 6.25 451.43 6 451.18 6 451.18 5.75 450.93 5.75 450.93 5.25 450.68 5.25 450.68 5 450.43 5 450.43 4.75 450.18 4.75 450.18 4.5 449.93 4.5 449.93 4.25 449.68 4.25 449.68 4 449.43 4 449.43 3.75 449.18 3.75 449.18 3.5 447.43 3.5"/>
    </clipPath>
    <clipPath id="clippath-62">
      <polyline class="cls-131" points="449.18 3.5 449.18 3.75 449.43 3.75 449.43 4 449.68 4 449.68 4.25 449.93 4.25 449.93 4.5 450.18 4.5 450.18 4.75 450.43 4.75 450.43 5 450.68 5 450.68 5.25 450.93 5.25 450.93 5.75 451.18 5.75 451.18 6 451.43 6 451.43 6.25 451.68 6.25 451.68 6.5 451.93 6.5 451.93 6.75 452.18 6.75 452.18 7 452.43 7 452.43 7.25 452.68 7.25 452.68 7.75 452.93 7.75 452.93 8 453.18 8 453.18 8.25 453.43 8.25 453.43 8.5 453.68 8.5 453.68 8.75 453.93 8.75 453.93 9 454.18 9 454.18 9.25 454.43 9.25 454.43 9.75 454.68 9.75 454.68 10 454.93 10 454.93 10.25 455.18 10.25 455.18 10.5 455.43 10.5 455.43 10.75 455.68 10.75 455.68 11 455.93 11 455.93 11.5 456.18 11.5 456.18 11.75 456.43 11.75 456.43 12 456.68 12 456.68 12.25 456.93 12.25 456.93 12.5 457.18 12.5 457.18 13 457.43 13 457.43 13.25 457.68 13.25 457.68 13.5 457.93 13.5 457.93 13.75 458.18 13.75 458.18 14 458.43 14 458.43 14.5 458.68 14.5 458.68 14.75 458.93 14.75 458.93 15 459.18 15 459.18 15.25 459.43 15.25 459.43 15.75 459.68 15.75 459.68 16 459.93 16 459.93 16.25 460.18 16.25 460.18 16.5 460.43 16.5 460.43 17 460.68 17 460.68 17.25 460.93 17.25 460.93 17.5 461.18 17.5 461.18 17.75 461.43 17.75 461.43 18.25 461.68 18.25 461.68 18.5 461.93 18.5 461.93 18.75 462.18 18.75 462.18 19.25 462.43 19.25 462.43 19.5 462.68 19.5 462.68 19.75 462.93 19.75 462.93 20 463.18 20 463.18 20.5 467.43 20.5 467.43 10.25 467.18 10.25 467.18 10 466.93 10 466.93 9.75 466.68 9.75 466.68 9.25 466.43 9.25 466.43 9 466.18 9 466.18 8.75 465.93 8.75 465.93 8.5 465.68 8.5 465.68 8 465.43 8 465.43 7.75 465.18 7.75 465.18 7.5 464.93 7.5 464.93 7.25 464.68 7.25 464.68 7 464.43 7 464.43 6.5 464.18 6.5 464.18 6.25 463.93 6.25 463.93 6 463.68 6 463.68 5.75 463.43 5.75 463.43 5.5 463.18 5.5 463.18 5 462.93 5 462.93 4.75 462.68 4.75 462.68 4.5 462.43 4.5 462.43 4.25 462.18 4.25 462.18 4 461.93 4 461.93 3.75 461.68 3.75 461.68 3.5 449.18 3.5"/>
    </clipPath>
    <clipPath id="clippath-63">
      <polyline class="cls-131" points="461.68 3.5 461.68 3.75 461.93 3.75 461.93 4 462.18 4 462.18 4.25 462.43 4.25 462.43 4.5 462.68 4.5 462.68 4.75 462.93 4.75 462.93 5 463.18 5 463.18 5.5 463.43 5.5 463.43 5.75 463.68 5.75 463.68 6 463.93 6 463.93 6.25 464.18 6.25 464.18 6.5 464.43 6.5 464.43 7 464.68 7 464.68 7.25 464.93 7.25 464.93 7.5 465.18 7.5 465.18 7.75 465.43 7.75 465.43 8 465.68 8 465.68 8.5 465.93 8.5 465.93 8.75 466.18 8.75 466.18 9 466.43 9 466.43 9.25 466.68 9.25 466.68 9.75 466.93 9.75 466.93 10 467.18 10 467.18 10.25 467.43 10.25 467.43 3.5 461.68 3.5"/>
    </clipPath>
    <clipPath id="clippath-64">
      <polyline class="cls-131" points="447.43 14 447.43 20.5 452.93 20.5 452.93 20.25 452.68 20.25 452.68 20 452.43 20 452.43 19.75 452.18 19.75 452.18 19.5 451.93 19.5 451.93 19.25 451.68 19.25 451.68 18.75 451.43 18.75 451.43 18.5 451.18 18.5 451.18 18.25 450.93 18.25 450.93 18 450.68 18 450.68 17.75 450.43 17.75 450.43 17.25 450.18 17.25 450.18 17 449.93 17 449.93 16.75 449.68 16.75 449.68 16.5 449.43 16.5 449.43 16.25 449.18 16.25 449.18 15.75 448.93 15.75 448.93 15.5 448.68 15.5 448.68 15.25 448.43 15.25 448.43 15 448.18 15 448.18 14.75 447.93 14.75 447.93 14.5 447.68 14.5 447.68 14 447.43 14"/>
    </clipPath>
    <clipPath id="clippath-65">
      <polyline class="cls-131" points="470.43 3.5 470.43 14.5 470.68 14.5 470.68 14.75 470.93 14.75 470.93 15 471.18 15 471.18 15.5 471.43 15.5 471.43 15.75 471.68 15.75 471.68 16 471.93 16 471.93 16.25 472.18 16.25 472.18 16.75 472.43 16.75 472.43 17 472.68 17 472.68 17.25 472.93 17.25 472.93 17.75 473.18 17.75 473.18 18 473.43 18 473.43 18.25 473.68 18.25 473.68 18.75 473.93 18.75 473.93 19 474.18 19 474.18 19.5 474.43 19.5 474.43 19.75 474.68 19.75 474.68 20 474.93 20 474.93 20.5 486.68 20.5 486.68 20.25 486.43 20.25 486.43 20 486.18 20 486.18 19.5 485.93 19.5 485.93 19.25 485.68 19.25 485.68 19 485.43 19 485.43 18.5 485.18 18.5 485.18 18.25 484.93 18.25 484.93 17.75 484.68 17.75 484.68 17.5 484.43 17.5 484.43 17.25 484.18 17.25 484.18 16.75 483.93 16.75 483.93 16.5 483.68 16.5 483.68 16 483.43 16 483.43 15.75 483.18 15.75 483.18 15.5 482.93 15.5 482.93 15 482.68 15 482.68 14.75 482.43 14.75 482.43 14.25 482.18 14.25 482.18 14 481.93 14 481.93 13.75 481.68 13.75 481.68 13.25 481.43 13.25 481.43 13 481.18 13 481.18 12.75 480.93 12.75 480.93 12.25 480.68 12.25 480.68 12 480.43 12 480.43 11.75 480.18 11.75 480.18 11.25 479.93 11.25 479.93 11 479.68 11 479.68 10.75 479.43 10.75 479.43 10.25 479.18 10.25 479.18 10 478.93 10 478.93 9.75 478.68 9.75 478.68 9.25 478.43 9.25 478.43 9 478.18 9 478.18 8.75 477.93 8.75 477.93 8.5 477.68 8.5 477.68 8 477.43 8 477.43 7.75 477.18 7.75 477.18 7.5 476.93 7.5 476.93 7 476.68 7 476.68 6.75 476.43 6.75 476.43 6.5 476.18 6.5 476.18 6.25 475.93 6.25 475.93 5.75 475.68 5.75 475.68 5.5 475.43 5.5 475.43 5.25 475.18 5.25 475.18 5 474.93 5 474.93 4.5 474.68 4.5 474.68 4.25 474.43 4.25 474.43 4 474.18 4 474.18 3.75 473.93 3.75 473.93 3.5 470.43 3.5"/>
    </clipPath>
    <clipPath id="clippath-66">
      <polyline class="cls-131" points="473.93 3.5 473.93 3.75 474.18 3.75 474.18 4 474.43 4 474.43 4.25 474.68 4.25 474.68 4.5 474.93 4.5 474.93 5 475.18 5 475.18 5.25 475.43 5.25 475.43 5.5 475.68 5.5 475.68 5.75 475.93 5.75 475.93 6.25 476.18 6.25 476.18 6.5 476.43 6.5 476.43 6.75 476.68 6.75 476.68 7 476.93 7 476.93 7.5 477.18 7.5 477.18 7.75 477.43 7.75 477.43 8 477.68 8 477.68 8.5 477.93 8.5 477.93 8.75 478.18 8.75 478.18 9 478.43 9 478.43 9.25 478.68 9.25 478.68 9.75 478.93 9.75 478.93 10 479.18 10 479.18 10.25 479.43 10.25 479.43 10.75 479.68 10.75 479.68 11 479.93 11 479.93 11.25 480.18 11.25 480.18 11.75 480.43 11.75 480.43 12 480.68 12 480.68 12.25 480.93 12.25 480.93 12.75 481.18 12.75 481.18 13 481.43 13 481.43 13.25 481.68 13.25 481.68 13.75 481.93 13.75 481.93 14 482.18 14 482.18 14.25 482.43 14.25 482.43 14.75 482.68 14.75 482.68 15 482.93 15 482.93 15.5 483.18 15.5 483.18 15.75 483.43 15.75 483.43 16 483.68 16 483.68 16.5 483.93 16.5 483.93 16.75 484.18 16.75 484.18 17.25 484.43 17.25 484.43 17.5 484.68 17.5 484.68 17.75 484.93 17.75 484.93 18.25 485.18 18.25 485.18 18.5 485.43 18.5 485.43 19 485.68 19 485.68 19.25 485.93 19.25 485.93 19.5 486.18 19.5 486.18 20 486.43 20 486.43 20.25 486.68 20.25 486.68 20.5 489.43 20.5 489.43 19.25 489.18 19.25 489.18 19 488.93 19 488.93 18.5 488.68 18.5 488.68 18.25 488.43 18.25 488.43 18 488.18 18 488.18 17.5 487.93 17.5 487.93 17.25 487.68 17.25 487.68 16.75 487.43 16.75 487.43 16.5 487.18 16.5 487.18 16 486.93 16 486.93 15.75 486.68 15.75 486.68 15.5 486.43 15.5 486.43 15 486.18 15 486.18 14.75 485.93 14.75 485.93 14.25 485.68 14.25 485.68 14 485.43 14 485.43 13.75 485.18 13.75 485.18 13.25 484.93 13.25 484.93 13 484.68 13 484.68 12.75 484.43 12.75 484.43 12.25 484.18 12.25 484.18 12 483.93 12 483.93 11.75 483.68 11.75 483.68 11.25 483.43 11.25 483.43 11 483.18 11 483.18 10.75 482.93 10.75 482.93 10.25 482.68 10.25 482.68 10 482.43 10 482.43 9.75 482.18 9.75 482.18 9.25 481.93 9.25 481.93 9 481.68 9 481.68 8.75 481.43 8.75 481.43 8.25 481.18 8.25 481.18 8 480.93 8 480.93 7.75 480.68 7.75 480.68 7.25 480.43 7.25 480.43 7 480.18 7 480.18 6.75 479.93 6.75 479.93 6.25 479.68 6.25 479.68 6 479.43 6 479.43 5.75 479.18 5.75 479.18 5.5 478.93 5.5 478.93 5 478.68 5 478.68 4.75 478.43 4.75 478.43 4.5 478.18 4.5 478.18 4.25 477.93 4.25 477.93 3.75 477.68 3.75 477.68 3.5 473.93 3.5"/>
    </clipPath>
    <clipPath id="clippath-67">
      <polyline class="cls-131" points="477.68 3.5 477.68 3.75 477.93 3.75 477.93 4.25 478.18 4.25 478.18 4.5 478.43 4.5 478.43 4.75 478.68 4.75 478.68 5 478.93 5 478.93 5.5 479.18 5.5 479.18 5.75 479.43 5.75 479.43 6 479.68 6 479.68 6.25 479.93 6.25 479.93 6.75 480.18 6.75 480.18 7 480.43 7 480.43 7.25 480.68 7.25 480.68 7.75 480.93 7.75 480.93 8 481.18 8 481.18 8.25 481.43 8.25 481.43 8.75 481.68 8.75 481.68 9 481.93 9 481.93 9.25 482.18 9.25 482.18 9.75 482.43 9.75 482.43 10 482.68 10 482.68 10.25 482.93 10.25 482.93 10.75 483.18 10.75 483.18 11 483.43 11 483.43 11.25 483.68 11.25 483.68 11.75 483.93 11.75 483.93 12 484.18 12 484.18 12.25 484.43 12.25 484.43 12.75 484.68 12.75 484.68 13 484.93 13 484.93 13.25 485.18 13.25 485.18 13.75 485.43 13.75 485.43 14 485.68 14 485.68 14.25 485.93 14.25 485.93 14.75 486.18 14.75 486.18 15 486.43 15 486.43 15.5 486.68 15.5 486.68 15.75 486.93 15.75 486.93 16 487.18 16 487.18 16.5 487.43 16.5 487.43 16.75 487.68 16.75 487.68 17.25 487.93 17.25 487.93 17.5 488.18 17.5 488.18 18 488.43 18 488.43 18.25 488.68 18.25 488.68 18.5 488.93 18.5 488.93 19 489.18 19 489.18 19.25 489.43 19.25 489.43 8.75 489.18 8.75 489.18 8.5 488.93 8.5 488.93 8.25 488.68 8.25 488.68 7.75 488.43 7.75 488.43 7.5 488.18 7.5 488.18 7.25 487.93 7.25 487.93 6.75 487.68 6.75 487.68 6.5 487.43 6.5 487.43 6.25 487.18 6.25 487.18 5.75 486.93 5.75 486.93 5.5 486.68 5.5 486.68 5.25 486.43 5.25 486.43 4.75 486.18 4.75 486.18 4.5 485.93 4.5 485.93 4.25 485.68 4.25 485.68 3.75 485.43 3.75 485.43 3.5 477.68 3.5"/>
    </clipPath>
    <clipPath id="clippath-68">
      <polyline class="cls-131" points="485.43 3.5 485.43 3.75 485.68 3.75 485.68 4.25 485.93 4.25 485.93 4.5 486.18 4.5 486.18 4.75 486.43 4.75 486.43 5.25 486.68 5.25 486.68 5.5 486.93 5.5 486.93 5.75 487.18 5.75 487.18 6.25 487.43 6.25 487.43 6.5 487.68 6.5 487.68 6.75 487.93 6.75 487.93 7.25 488.18 7.25 488.18 7.5 488.43 7.5 488.43 7.75 488.68 7.75 488.68 8.25 488.93 8.25 488.93 8.5 489.18 8.5 489.18 8.75 489.43 8.75 489.43 3.5 485.43 3.5"/>
    </clipPath>
    <clipPath id="clippath-69">
      <polyline class="cls-131" points="470.43 14.5 470.43 20.5 474.93 20.5 474.93 20 474.68 20 474.68 19.75 474.43 19.75 474.43 19.5 474.18 19.5 474.18 19 473.93 19 473.93 18.75 473.68 18.75 473.68 18.25 473.43 18.25 473.43 18 473.18 18 473.18 17.75 472.93 17.75 472.93 17.25 472.68 17.25 472.68 17 472.43 17 472.43 16.75 472.18 16.75 472.18 16.25 471.93 16.25 471.93 16 471.68 16 471.68 15.75 471.43 15.75 471.43 15.5 471.18 15.5 471.18 15 470.93 15 470.93 14.75 470.68 14.75 470.68 14.5 470.43 14.5"/>
    </clipPath>
    <clipPath id="clippath-70">
      <polyline class="cls-131" points="493.43 3.5 493.43 14.75 493.68 14.75 493.68 15.25 493.93 15.25 493.93 15.5 494.18 15.5 494.18 15.75 494.43 15.75 494.43 16.25 494.68 16.25 494.68 16.5 494.93 16.5 494.93 17 495.18 17 495.18 17.25 495.43 17.25 495.43 17.75 495.68 17.75 495.68 18 495.93 18 495.93 18.5 496.18 18.5 496.18 18.75 496.43 18.75 496.43 19.25 496.68 19.25 496.68 19.5 496.93 19.5 496.93 20 497.18 20 497.18 20.25 497.43 20.25 497.43 20.5 506.43 20.5 506.43 19 506.18 19 506.18 18.75 505.93 18.75 505.93 18.25 505.68 18.25 505.68 18 505.43 18 505.43 17.5 505.18 17.5 505.18 17.25 504.93 17.25 504.93 16.75 504.68 16.75 504.68 16.5 504.43 16.5 504.43 16 504.18 16 504.18 15.75 503.93 15.75 503.93 15.25 503.68 15.25 503.68 15 503.43 15 503.43 14.5 503.18 14.5 503.18 14.25 502.93 14.25 502.93 13.75 502.68 13.75 502.68 13.5 502.43 13.5 502.43 13 502.18 13 502.18 12.75 501.93 12.75 501.93 12.25 501.68 12.25 501.68 12 501.43 12 501.43 11.5 501.18 11.5 501.18 11.25 500.93 11.25 500.93 10.75 500.68 10.75 500.68 10.5 500.43 10.5 500.43 10 500.18 10 500.18 9.75 499.93 9.75 499.93 9.5 499.68 9.5 499.68 9 499.43 9 499.43 8.75 499.18 8.75 499.18 8.25 498.93 8.25 498.93 8 498.68 8 498.68 7.75 498.43 7.75 498.43 7.25 498.18 7.25 498.18 7 497.93 7 497.93 6.5 497.68 6.5 497.68 6.25 497.43 6.25 497.43 6 497.18 6 497.18 5.5 496.93 5.5 496.93 5.25 496.68 5.25 496.68 4.75 496.43 4.75 496.43 4.5 496.18 4.5 496.18 4.25 495.93 4.25 495.93 3.75 495.68 3.75 495.68 3.5 493.43 3.5"/>
    </clipPath>
    <clipPath id="clippath-71">
      <polyline class="cls-131" points="495.68 3.5 495.68 3.75 495.93 3.75 495.93 4.25 496.18 4.25 496.18 4.5 496.43 4.5 496.43 4.75 496.68 4.75 496.68 5.25 496.93 5.25 496.93 5.5 497.18 5.5 497.18 6 497.43 6 497.43 6.25 497.68 6.25 497.68 6.5 497.93 6.5 497.93 7 498.18 7 498.18 7.25 498.43 7.25 498.43 7.75 498.68 7.75 498.68 8 498.93 8 498.93 8.25 499.18 8.25 499.18 8.75 499.43 8.75 499.43 9 499.68 9 499.68 9.5 499.93 9.5 499.93 9.75 500.18 9.75 500.18 10 500.43 10 500.43 10.5 500.68 10.5 500.68 10.75 500.93 10.75 500.93 11.25 501.18 11.25 501.18 11.5 501.43 11.5 501.43 12 501.68 12 501.68 12.25 501.93 12.25 501.93 12.75 502.18 12.75 502.18 13 502.43 13 502.43 13.5 502.68 13.5 502.68 13.75 502.93 13.75 502.93 14.25 503.18 14.25 503.18 14.5 503.43 14.5 503.43 15 503.68 15 503.68 15.25 503.93 15.25 503.93 15.75 504.18 15.75 504.18 16 504.43 16 504.43 16.5 504.68 16.5 504.68 16.75 504.93 16.75 504.93 17.25 505.18 17.25 505.18 17.5 505.43 17.5 505.43 18 505.68 18 505.68 18.25 505.93 18.25 505.93 18.75 506.18 18.75 506.18 19 506.43 19 506.43 3.5 495.68 3.5"/>
    </clipPath>
    <clipPath id="clippath-72">
      <polyline class="cls-131" points="493.43 14.75 493.43 20.5 497.43 20.5 497.43 20.25 497.18 20.25 497.18 20 496.93 20 496.93 19.5 496.68 19.5 496.68 19.25 496.43 19.25 496.43 18.75 496.18 18.75 496.18 18.5 495.93 18.5 495.93 18 495.68 18 495.68 17.75 495.43 17.75 495.43 17.25 495.18 17.25 495.18 17 494.93 17 494.93 16.5 494.68 16.5 494.68 16.25 494.43 16.25 494.43 15.75 494.18 15.75 494.18 15.5 493.93 15.5 493.93 15.25 493.68 15.25 493.68 14.75 493.43 14.75"/>
    </clipPath>
  </defs>
  <g class="cls-58">
    <text class="cls-7" transform="translate(0 19.9)"><tspan x="0" y="0">L</tspan></text>
  </g>
  <g class="cls-59">
    <text class="cls-22" transform="translate(0 19.9)"><tspan x="0" y="0">L</tspan></text>
  </g>
  <g class="cls-62">
    <text class="cls-43" transform="translate(0 19.9)"><tspan x="0" y="0">L</tspan></text>
  </g>
  <g class="cls-61">
    <text class="cls-31" transform="translate(17.38 19.9)"><tspan x="0" y="0">O</tspan></text>
  </g>
  <g class="cls-60">
    <text class="cls-15" transform="translate(17.38 19.9)"><tspan x="0" y="0">O</tspan></text>
  </g>
  <g class="cls-66">
    <text class="cls-30" transform="translate(17.38 19.9)"><tspan x="0" y="0">O</tspan></text>
  </g>
  <g class="cls-65">
    <text class="cls-47" transform="translate(17.38 19.9)"><tspan x="0" y="0">O</tspan></text>
  </g>
  <g class="cls-63">
    <text class="cls-5" transform="translate(17.38 19.9)"><tspan x="0" y="0">O</tspan></text>
  </g>
  <g class="cls-64">
    <text class="cls-28" transform="translate(42.2 19.9)"><tspan x="0" y="0">S</tspan></text>
  </g>
  <g class="cls-67">
    <text class="cls-52" transform="translate(42.2 19.9)"><tspan x="0" y="0">S</tspan></text>
  </g>
  <g class="cls-124">
    <text class="cls-13" transform="translate(42.2 19.9)"><tspan x="0" y="0">S</tspan></text>
  </g>
  <g class="cls-129">
    <text class="cls-37" transform="translate(42.2 19.9)"><tspan x="0" y="0">S</tspan></text>
  </g>
  <g class="cls-123">
    <text class="cls-57" transform="translate(64.41 19.9)"><tspan x="0" y="0">T</tspan></text>
  </g>
  <g class="cls-122">
    <text class="cls-26" transform="translate(64.41 19.9)"><tspan x="0" y="0">T</tspan></text>
  </g>
  <g class="cls-121">
    <text class="cls-36" transform="translate(64.41 19.9)"><tspan x="0" y="0">T</tspan></text>
  </g>
  <g class="cls-125">
    <text class="cls-55" transform="translate(64.41 19.9)"><tspan x="0" y="0">T</tspan></text>
  </g>
  <text class="cls-42" transform="translate(85.06 19.9)"><tspan x="0" y="0"> </tspan></text>
  <text class="cls-4" transform="translate(94.66 19.9)"><tspan x="0" y="0">I</tspan></text>
  <g class="cls-127">
    <text class="cls-41" transform="translate(104.64 19.9)"><tspan x="0" y="0">N</tspan></text>
  </g>
  <g class="cls-126">
    <text class="cls-27" transform="translate(104.64 19.9)"><tspan x="0" y="0">N</tspan></text>
  </g>
  <g class="cls-130">
    <text class="cls-44" transform="translate(104.64 19.9)"><tspan x="0" y="0">N</tspan></text>
  </g>
  <text class="cls-21" transform="translate(129.12 19.9)"><tspan x="0" y="0"> </tspan></text>
  <g class="cls-128">
    <text class="cls-46" transform="translate(138.73 19.9)"><tspan x="0" y="0">A</tspan></text>
  </g>
  <g class="cls-70">
    <text class="cls-33" transform="translate(138.73 19.9)"><tspan x="0" y="0">A</tspan></text>
  </g>
  <g class="cls-71">
    <text class="cls-23" transform="translate(138.73 19.9)"><tspan x="0" y="0">A</tspan></text>
  </g>
  <g class="cls-74">
    <text class="cls-12" transform="translate(138.73 19.9)"><tspan x="0" y="0">A</tspan></text>
  </g>
  <g class="cls-73">
    <text class="cls-35" transform="translate(138.73 19.9)"><tspan x="0" y="0">A</tspan></text>
  </g>
  <text class="cls-29" transform="translate(164.74 19.9)"><tspan x="0" y="0"> </tspan></text>
  <g class="cls-72">
    <text class="cls-14" transform="translate(174.34 19.9)"><tspan x="0" y="0">S</tspan></text>
  </g>
  <g class="cls-75">
    <text class="cls-50" transform="translate(174.34 19.9)"><tspan x="0" y="0">S</tspan></text>
  </g>
  <g class="cls-88">
    <text class="cls-45" transform="translate(174.34 19.9)"><tspan x="0" y="0">S</tspan></text>
  </g>
  <g class="cls-86">
    <text class="cls-1" transform="translate(174.34 19.9)"><tspan x="0" y="0">S</tspan></text>
  </g>
  <g class="cls-87">
    <text class="cls-32" transform="translate(197.28 19.9)"><tspan x="0" y="0">E</tspan></text>
  </g>
  <g class="cls-89">
    <text class="cls-53" transform="translate(197.28 19.9)"><tspan x="0" y="0">E</tspan></text>
  </g>
  <g class="cls-97">
    <text class="cls-48" transform="translate(197.28 19.9)"><tspan x="0" y="0">E</tspan></text>
  </g>
  <g class="cls-99">
    <text class="cls-56" transform="translate(217.05 19.9)"><tspan x="0" y="0">A</tspan></text>
  </g>
  <g class="cls-96">
    <text class="cls-53" transform="translate(217.05 19.9)"><tspan x="0" y="0">A</tspan></text>
  </g>
  <g class="cls-95">
    <text class="cls-6" transform="translate(217.05 19.9)"><tspan x="0" y="0">A</tspan></text>
  </g>
  <text class="cls-54" transform="translate(243.07 19.9)"><tspan x="0" y="0"> </tspan></text>
  <g class="cls-90">
    <text class="cls-53" transform="translate(252.67 19.9)"><tspan x="0" y="0">O</tspan></text>
  </g>
  <g class="cls-91">
    <text class="cls-51" transform="translate(252.67 19.9)"><tspan x="0" y="0">O</tspan></text>
  </g>
  <g class="cls-92">
    <text class="cls-24" transform="translate(252.67 19.9)"><tspan x="0" y="0">O</tspan></text>
  </g>
  <g class="cls-93">
    <text class="cls-19" transform="translate(277.49 19.9)"><tspan x="0" y="0">F</tspan></text>
  </g>
  <g class="cls-98">
    <text class="cls-53" transform="translate(277.49 19.9)"><tspan x="0" y="0">F</tspan></text>
  </g>
  <g class="cls-94">
    <text class="cls-6" transform="translate(277.49 19.9)"><tspan x="0" y="0">F</tspan></text>
  </g>
  <text class="cls-38" transform="translate(296.38 19.9)"><tspan x="0" y="0"> </tspan></text>
  <g class="cls-78">
    <text class="cls-45" transform="translate(305.98 19.9)"><tspan x="0" y="0">S</tspan></text>
  </g>
  <g class="cls-80">
    <text class="cls-50" transform="translate(305.98 19.9)"><tspan x="0" y="0">S</tspan></text>
  </g>
  <g class="cls-79">
    <text class="cls-39" transform="translate(305.98 19.9)"><tspan x="0" y="0">S</tspan></text>
  </g>
  <g class="cls-82">
    <text class="cls-10" transform="translate(305.98 19.9)"><tspan x="0" y="0">S</tspan></text>
  </g>
  <g class="cls-76">
    <text class="cls-34" transform="translate(328.2 19.9)"><tspan x="0" y="0">A</tspan></text>
  </g>
  <g class="cls-77">
    <text class="cls-2" transform="translate(328.2 19.9)"><tspan x="0" y="0">A</tspan></text>
  </g>
  <g class="cls-83">
    <text class="cls-12" transform="translate(328.2 19.9)"><tspan x="0" y="0">A</tspan></text>
  </g>
  <g class="cls-81">
    <text class="cls-16" transform="translate(328.2 19.9)"><tspan x="0" y="0">A</tspan></text>
  </g>
  <g class="cls-84">
    <text class="cls-20" transform="translate(328.2 19.9)"><tspan x="0" y="0">A</tspan></text>
  </g>
  <g class="cls-85">
    <text class="cls-40" transform="translate(354.22 19.9)"><tspan x="0" y="0">M</tspan></text>
  </g>
  <g class="cls-102">
    <text class="cls-18" transform="translate(354.22 19.9)"><tspan x="0" y="0">M</tspan></text>
  </g>
  <g class="cls-103">
    <text class="cls-17" transform="translate(354.22 19.9)"><tspan x="0" y="0">M</tspan></text>
  </g>
  <g class="cls-104">
    <text class="cls-23" transform="translate(354.22 19.9)"><tspan x="0" y="0">M</tspan></text>
  </g>
  <g class="cls-100">
    <text class="cls-41" transform="translate(382.83 19.9)"><tspan x="0" y="0">E</tspan></text>
  </g>
  <g class="cls-101">
    <text class="cls-27" transform="translate(382.83 19.9)"><tspan x="0" y="0">E</tspan></text>
  </g>
  <g class="cls-105">
    <text class="cls-11" transform="translate(402.6 19.9)"><tspan x="0" y="0">N</tspan></text>
  </g>
  <g class="cls-106">
    <text class="cls-8" transform="translate(402.6 19.9)"><tspan x="0" y="0">N</tspan></text>
  </g>
  <g class="cls-107">
    <text class="cls-26" transform="translate(427.08 19.9)"><tspan x="0" y="0">E</tspan></text>
  </g>
  <g class="cls-108">
    <text class="cls-57" transform="translate(427.08 19.9)"><tspan x="0" y="0">E</tspan></text>
  </g>
  <g class="cls-114">
    <text class="cls-36" transform="translate(427.08 19.9)"><tspan x="0" y="0">E</tspan></text>
  </g>
  <g class="cls-68">
    <text class="cls-49" transform="translate(427.08 19.9)"><tspan x="0" y="0">E</tspan></text>
  </g>
  <g class="cls-109">
    <text class="cls-13" transform="translate(446.85 19.9)"><tspan x="0" y="0">S</tspan></text>
  </g>
  <g class="cls-111">
    <text class="cls-52" transform="translate(446.85 19.9)"><tspan x="0" y="0">S</tspan></text>
  </g>
  <g class="cls-116">
    <text class="cls-9" transform="translate(446.85 19.9)"><tspan x="0" y="0">S</tspan></text>
  </g>
  <g class="cls-110">
    <text class="cls-25" transform="translate(446.85 19.9)"><tspan x="0" y="0">S</tspan></text>
  </g>
  <g class="cls-115">
    <text class="cls-47" transform="translate(469.8 19.9)"><tspan x="0" y="0">S</tspan></text>
  </g>
  <g class="cls-117">
    <text class="cls-30" transform="translate(469.8 19.9)"><tspan x="0" y="0">S</tspan></text>
  </g>
  <g class="cls-113">
    <text class="cls-15" transform="translate(469.8 19.9)"><tspan x="0" y="0">S</tspan></text>
  </g>
  <g class="cls-112">
    <text class="cls-31" transform="translate(469.8 19.9)"><tspan x="0" y="0">S</tspan></text>
  </g>
  <g class="cls-69">
    <text class="cls-3" transform="translate(469.8 19.9)"><tspan x="0" y="0">S</tspan></text>
  </g>
  <g class="cls-118">
    <text class="cls-22" transform="translate(492.74 19.9)"><tspan x="0" y="0">?</tspan></text>
  </g>
  <g class="cls-120">
    <text class="cls-7" transform="translate(492.74 19.9)"><tspan x="0" y="0">?</tspan></text>
  </g>
  <g class="cls-119">
    <text class="cls-43" transform="translate(492.74 19.9)"><tspan x="0" y="0">?</tspan></text>
  </g>
</svg>