<?xml version="1.0" encoding="UTF-8"?>
<svg id="_图层_1" data-name="图层 1" xmlns="http://www.w3.org/2000/svg" version="1.1" viewBox="0 0 93.48 73.94">
  <defs>
    <style>
      .cls-1 {
        fill: #151a5d;
        stroke-width: 0px;
      }
    </style>
  </defs>
  <polygon class="cls-1" points="52.06 31.51 41.56 31.51 41.56 42.01 52.06 42.01 52.06 31.51 52.06 31.51"/>
  <polygon class="cls-1" points="41.54 21.01 52.04 21.01 52.04 10.5 41.54 10.5 41.54 21.01 41.54 21.01"/>
  <polygon class="cls-1" points="62.58 10.5 62.58 21.01 62.58 31.51 62.58 42.02 72.4 42.02 83.6 42.02 83.6 31.51 73.09 31.51 73.09 21.01 73.09 10.5 62.58 10.5 62.58 10.5"/>
  <polygon class="cls-1" points="20.53 10.5 15.28 10.5 15.28 21.01 20.53 21.01 20.53 31.51 10.03 31.51 10.03 42.02 20.53 42.02 31.03 42.02 31.03 31.51 31.03 21.01 31.03 10.5 20.53 10.5 20.53 10.5"/>
  <polygon class="cls-1" points="31.15 10.5 41.65 10.5 41.65 0 31.15 0 31.15 10.5 31.15 10.5"/>
  <polygon class="cls-1" points="52.04 52.52 62.54 52.52 62.54 42.02 52.04 42.02 52.04 52.52 52.04 52.52"/>
  <path class="cls-1" d="M7.07,71.85H2.9l-.69,2H0l3.77-10.5h2.45l3.77,10.5h-2.22l-.69-2h0ZM6.5,70.17l-1.52-4.39-1.52,4.39h3.03Z"/>
  <path class="cls-1" d="M19.52,64.01c.84.43,1.48,1.04,1.94,1.84.46.8.68,1.72.68,2.77s-.23,1.97-.68,2.76c-.46.79-1.1,1.4-1.94,1.83-.84.43-1.8.65-2.91.65h-3.67v-10.48h3.67c1.1,0,2.07.21,2.91.65h0ZM19.09,71.16c.6-.6.9-1.45.9-2.54s-.3-1.94-.9-2.56c-.6-.62-1.45-.92-2.55-.92h-1.49v6.93h1.49c1.1,0,1.95-.3,2.55-.9h0Z"/>
  <polygon class="cls-1" points="34.29 63.36 30.45 73.85 27.89 73.85 24.05 63.36 26.3 63.36 29.19 71.7 32.05 63.36 34.29 63.36 34.29 63.36"/>
  <path class="cls-1" d="M42.62,71.85h-4.18l-.69,2h-2.21l3.77-10.5h2.45l3.77,10.5h-2.22l-.69-2h0ZM42.05,70.17l-1.52-4.39-1.52,4.39h3.03Z"/>
  <polygon class="cls-1" points="57.46 73.85 55.35 73.85 50.59 66.65 50.59 73.85 48.49 73.85 48.49 63.35 50.59 63.35 55.35 70.56 55.35 63.35 57.46 63.35 57.46 73.85 57.46 73.85"/>
  <path class="cls-1" d="M61.54,65.82c.47-.82,1.1-1.45,1.91-1.91.81-.45,1.71-.68,2.71-.68,1.17,0,2.2.3,3.08.9.88.6,1.5,1.43,1.85,2.49h-2.42c-.24-.5-.58-.88-1.01-1.13-.44-.25-.94-.38-1.51-.38-.61,0-1.15.14-1.63.43-.47.29-.85.69-1.11,1.21-.27.52-.4,1.13-.4,1.83s.13,1.3.4,1.83c.26.52.64.93,1.11,1.22.48.29,1.02.43,1.63.43.57,0,1.07-.13,1.51-.38.43-.26.77-.63,1.01-1.14h2.42c-.35,1.07-.96,1.91-1.84,2.5-.88.6-1.91.89-3.09.89-1,0-1.9-.23-2.71-.68-.81-.46-1.44-1.09-1.91-1.9-.47-.81-.7-1.73-.7-2.76s.23-1.96.7-2.77h0Z"/>
  <polygon class="cls-1" points="76.63 65.06 76.63 67.69 80.16 67.69 80.16 69.35 76.63 69.35 76.63 72.13 80.61 72.13 80.61 73.85 74.53 73.85 74.53 63.35 80.61 63.35 80.61 65.06 76.63 65.06 76.63 65.06"/>
  <path class="cls-1" d="M90.86,64.01c.84.43,1.48,1.04,1.94,1.84.46.8.68,1.72.68,2.77s-.23,1.97-.68,2.76c-.46.79-1.1,1.4-1.94,1.83-.84.43-1.8.65-2.91.65h-3.66v-10.48h3.66c1.1,0,2.07.21,2.91.65h0ZM90.43,71.16c.6-.6.9-1.45.9-2.54s-.3-1.94-.9-2.56c-.6-.62-1.45-.92-2.55-.92h-1.49v6.93h1.49c1.1,0,1.95-.3,2.55-.9h0Z"/>
</svg>