<?xml version="1.0" encoding="UTF-8"?>
<svg id="_图层_1" data-name="图层 1" xmlns="http://www.w3.org/2000/svg" version="1.1" viewBox="0 0 20.03 25.66">
  <defs>
    <style>
      .cls-1 {
        fill: #151a5d;
      }

      .cls-1, .cls-2, .cls-3 {
        stroke-width: 0px;
      }

      .cls-2 {
        fill: #6dc099;
      }

      .cls-3 {
        fill: #fff;
      }
    </style>
  </defs>
  <path class="cls-3" d="M13.64,16.78c-1.62-1.31-2.7-3.17-3.02-5.24-.08-.48-.48-.52-.6-.52s-.53.04-.6.52c-.33,2.06-1.4,3.92-3.02,5.24-.38.3-.21.68-.15.78.06.11.3.44.75.26,1.95-.75,4.1-.75,6.05,0,.45.17.69-.16.75-.26.06-.11.23-.48-.14-.78h0Z"/>
  <path class="cls-3" d="M18.75,6.99h-5.43c-.35,0-.64-.29-.64-.64V1.28H1.28v23.09h17.47V6.99h0ZM14.9,18.2c-.48.82-1.43,1.16-2.32.82-1.65-.64-3.47-.64-5.13,0-.23.09-.47.13-.7.13-.65,0-1.26-.34-1.62-.95-.48-.82-.29-1.82.45-2.42,1.38-1.11,2.29-2.69,2.56-4.44.15-.94.92-1.6,1.87-1.6s1.72.66,1.87,1.6c.28,1.75,1.19,3.33,2.56,4.44.74.6.92,1.59.45,2.42h0Z"/>
  <path class="cls-1" d="M19.84,5.44L14.55.19c-.12-.12-.28-.19-.45-.19H.64c-.35,0-.64.29-.64.64v24.37c0,.35.29.64.64.64h18.75c.35,0,.64-.29.64-.64V5.9c0-.17-.07-.33-.19-.45h0ZM13.96,5.71V1.36l4.34,4.35h-4.34ZM1.28,1.28h11.39v5.07c0,.35.29.64.64.64h5.43v17.39H1.28V1.28h0Z"/>
  <polygon class="cls-2" points="13.96 5.71 18.3 5.71 13.96 1.36 13.96 5.71 13.96 5.71"/>
  <path class="cls-1" d="M14.45,15.78c-1.38-1.11-2.29-2.69-2.56-4.44-.15-.94-.92-1.6-1.87-1.6s-1.72.66-1.87,1.6c-.28,1.75-1.19,3.33-2.56,4.44-.74.6-.92,1.59-.45,2.42.35.61.96.95,1.62.95.23,0,.47-.04.7-.13,1.65-.64,3.47-.64,5.13,0,.89.34,1.84,0,2.32-.82.48-.82.29-1.82-.45-2.42h0ZM13.79,17.56c-.06.11-.3.44-.75.26-1.95-.75-4.1-.75-6.05,0-.45.17-.69-.16-.75-.26-.06-.11-.23-.48.15-.78,1.62-1.31,2.7-3.17,3.02-5.24.08-.48.48-.52.6-.52s.53.04.6.52c.33,2.06,1.4,3.92,3.02,5.24.38.3.21.68.14.78h0Z"/>
</svg>