<?xml version="1.0" encoding="UTF-8"?>
<svg id="_图层_1" data-name="图层 1" xmlns="http://www.w3.org/2000/svg" version="1.1" viewBox="0 0 21.11 29.87">
  <defs>
    <style>
      .cls-1 {
        fill: #151a5d;
      }

      .cls-1, .cls-2 {
        stroke-width: 0px;
      }

      .cls-2 {
        fill: #6dc099;
      }
    </style>
  </defs>
  <path class="cls-2" d="M12.9,1.68l-6.49,9.79h3.04c.33,0,.6.27.6.6v1.45c0,2.52-.98,4.9-2.77,6.68-1.64,1.64-3.78,2.61-6.08,2.75v5.71c1.83-.07,3.61-.47,5.3-1.18,1.8-.76,3.42-1.85,4.81-3.25,1.39-1.39,2.48-3.01,3.25-4.81.79-1.87,1.19-3.85,1.19-5.9v-1.45c0-.33.27-.6.6-.6h3.04L12.9,1.68h0Z"/>
  <path class="cls-1" d="M21.01,11.74L13.4.27c-.11-.17-.3-.27-.5-.27s-.39.1-.5.27l-7.61,11.47c-.12.18-.13.42-.03.61.1.2.31.32.53.32h3.56v.84c0,2.2-.86,4.28-2.42,5.83-1.56,1.56-3.63,2.42-5.83,2.42-.33,0-.6.27-.6.6v6.9c0,.33.27.6.6.6,2.21,0,4.35-.43,6.37-1.29,1.95-.82,3.7-2,5.2-3.5,1.5-1.5,2.68-3.25,3.5-5.2.85-2.02,1.29-4.16,1.29-6.36v-.84h3.56c.22,0,.42-.12.53-.32.1-.19.09-.43-.03-.61h0ZM15.75,12.07v1.45c0,2.04-.4,4.03-1.19,5.9-.76,1.8-1.86,3.42-3.25,4.81-1.39,1.39-3.01,2.48-4.81,3.25-1.69.71-3.47,1.11-5.3,1.18v-5.71c2.3-.14,4.44-1.11,6.08-2.75,1.78-1.78,2.77-4.16,2.77-6.68v-1.45c0-.33-.27-.6-.6-.6h-3.04L12.9,1.68l6.49,9.79h-3.04c-.33,0-.6.27-.6.6h0Z"/>
</svg>