<?xml version="1.0" encoding="UTF-8"?>
<svg id="_图层_1" data-name=" 图层 1" xmlns="http://www.w3.org/2000/svg" version="1.1" viewBox="0 0 76.7 76.7">
  <defs>
    <style>
      .cls-1 {
        fill: #151a5d;
        stroke-width: 0px;
      }
    </style>
  </defs>
  <polygon class="cls-1" points="43.7 43.8 33.2 43.8 33.2 54.3 43.7 54.3 43.7 43.8 43.7 43.8"/>
  <polygon class="cls-1" points="33.2 33.3 43.7 33.3 43.7 22.8 33.2 22.8 33.2 33.3 33.2 33.3"/>
  <polygon class="cls-1" points="54.2 22.8 54.2 33.3 54.2 43.8 54.2 54.4 64 54.4 75.2 54.4 75.2 43.8 64.7 43.8 64.7 33.3 64.7 22.8 54.2 22.8 54.2 22.8"/>
  <polygon class="cls-1" points="12.2 22.8 6.9 22.8 6.9 33.3 12.2 33.3 12.2 43.8 1.7 43.8 1.7 54.4 12.2 54.4 22.7 54.4 22.7 43.8 22.7 33.3 22.7 22.8 12.2 22.8 12.2 22.8"/>
  <polygon class="cls-1" points="22.8 22.8 33.3 22.8 33.3 12.3 22.8 12.3 22.8 22.8 22.8 22.8"/>
  <polygon class="cls-1" points="43.7 64.9 54.2 64.9 54.2 54.4 43.7 54.4 43.7 64.9 43.7 64.9"/>
</svg>