<?xml version="1.0" encoding="UTF-8"?>
<svg id="_图层_1" data-name="图层 1" xmlns="http://www.w3.org/2000/svg" xmlns:xlink="http://www.w3.org/1999/xlink" version="1.1" viewBox="0 0 47.02 41.54">
  <defs>
    <style>
      .cls-1 {
        clip-path: url(#clippath);
      }

      .cls-2 {
        fill: none;
      }

      .cls-2, .cls-3, .cls-4 {
        stroke-width: 0px;
      }

      .cls-3 {
        fill: #e7e6ef;
      }

      .cls-5 {
        clip-path: url(#clippath-1);
      }

      .cls-4 {
        fill: url(#_未命名的渐变_2);
      }
    </style>
    <clipPath id="clippath">
      <rect class="cls-2" x="3.51" y=".77" width="40" height="40"/>
    </clipPath>
    <clipPath id="clippath-1">
      <path class="cls-2" d="M11.27,14.37h.49l2.05,6.49h-4.59l2.05-6.49ZM9.61,13.88l-4.38,13.78h1.84l1.66-5.28h5.57l1.66,5.28h1.86l-4.4-13.78h-3.81ZM19.54,13.88v1.52h3.09v10.73h-3.09v1.52h7.94v-1.52h-3.09v-10.73h3.09v-1.52h-7.94ZM35.24,14.37h.49l2.05,6.49h-4.59l2.05-6.49ZM33.58,13.88l-4.38,13.78h1.84l1.66-5.28h5.57l1.66,5.28h1.86l-4.4-13.78h-3.81Z"/>
    </clipPath>
    <radialGradient id="_未命名的渐变_2" data-name="未命名的渐变 2" cx="-271.28" cy="449.5" fx="-271.28" fy="449.5" r="1" gradientTransform="translate(-27612.56 16659.67) rotate(90) scale(61.48 -61.48)" gradientUnits="userSpaceOnUse">
      <stop offset="0" stop-color="#1c2a52"/>
      <stop offset=".99" stop-color="#67bf9a"/>
      <stop offset="1" stop-color="#67bf9a"/>
    </radialGradient>
  </defs>
  <g class="cls-1">
    <path class="cls-3" d="M23.51,40.77c11.05,0,20-8.95,20-20S34.56.77,23.51.77,3.51,9.72,3.51,20.77s8.95,20,20,20"/>
  </g>
  <g class="cls-5">
    <rect class="cls-4" x="9.61" y="1.28" width="27.8" height="38.97" transform="translate(-5.18 33.45) rotate(-65.3)"/>
  </g>
</svg>